<svg width="510" height="192" fill="none" xmlns="http://www.w3.org/2000/svg"><path d="M.953 177.543v-28.804h5.535v28.804H.953ZM19.025 177.541H13.49v-28.803h4.998l.592 4.419c.902-1.652 2.203-2.939 3.917-3.855 1.708-.922 3.58-1.39 5.625-1.39 3.766 0 6.56 1.08 8.364 3.242 1.804 2.162 2.706 5.088 2.706 8.778v17.609h-5.535v-16.377c0-2.905-.634-4.998-1.886-6.272-1.253-1.273-2.94-1.914-5.06-1.914-2.596 0-4.613.84-6.038 2.534-1.439 1.686-2.148 3.951-2.148 6.774v15.255ZM44.186 169.178h5.3c0 1.453.537 2.602 1.598 3.442 1.06.847 2.492 1.267 4.295 1.267 1.97 0 3.484-.386 4.544-1.15 1.06-.764 1.583-1.797 1.583-3.091 0-.943-.289-1.728-.86-2.354-.565-.627-1.597-1.136-3.091-1.529l-5.06-1.177c-2.554-.626-4.454-1.59-5.686-2.884-1.24-1.295-1.86-3.002-1.86-5.122 0-1.769.462-3.298 1.385-4.592.922-1.294 2.202-2.299 3.827-3.002 1.632-.709 3.504-1.06 5.625-1.06 2.12 0 3.958.379 5.514 1.122 1.549.751 2.767 1.783 3.648 3.119.889 1.336 1.35 2.926 1.384 4.771h-5.3c-.035-1.494-.524-2.651-1.467-3.477-.95-.826-2.265-1.239-3.951-1.239-1.687 0-3.064.372-4.007 1.122-.943.744-1.411 1.769-1.411 3.064 0 1.927 1.41 3.242 4.24 3.951l5.067 1.239c2.43.551 4.255 1.446 5.473 2.678 1.219 1.24 1.824 2.912 1.824 5.033 0 1.803-.488 3.387-1.473 4.743-.977 1.356-2.327 2.396-4.034 3.119-1.707.722-3.724 1.087-6.038 1.087-3.373 0-6.071-.826-8.068-2.471-2.01-1.652-3.008-3.848-3.008-6.595l.007-.014ZM72.267 190.443v-41.705h4.998l.413 5.184c.95-2.004 2.348-3.505 4.213-4.503 1.866-.998 3.938-1.501 6.217-1.501 2.747 0 5.122.641 7.125 1.921 2.01 1.274 3.545 3.043 4.626 5.301 1.081 2.258 1.625 4.86 1.625 7.807 0 2.946-.523 5.576-1.563 7.896-1.04 2.32-2.554 4.144-4.537 5.48-1.982 1.335-4.406 2.003-7.27 2.003-2.326 0-4.385-.475-6.188-1.411-1.804-.943-3.18-2.299-4.124-4.062v17.61h-5.535v-.02Zm5.597-27.276c0 1.928.358 3.663 1.088 5.211.723 1.556 1.769 2.761 3.118 3.622 1.357.867 2.967 1.294 4.86 1.294 1.894 0 3.498-.441 4.826-1.322 1.336-.881 2.369-2.093 3.091-3.628.73-1.528 1.088-3.256 1.088-5.184 0-1.927-.358-3.772-1.088-5.301-.722-1.528-1.755-2.733-3.09-3.593-1.33-.861-2.94-1.294-4.826-1.294-1.887 0-3.504.433-4.86 1.294-1.357.867-2.396 2.065-3.12 3.593-.729 1.529-1.087 3.298-1.087 5.301v.007ZM109.331 144.009c-.984 0-1.838-.365-2.568-1.088-.722-.723-1.087-1.576-1.087-2.568a3.55 3.55 0 0 1 1.087-2.588c.73-.709 1.577-1.06 2.568-1.06.992 0 1.887.351 2.596 1.06.709.709 1.06 1.569 1.06 2.588 0 1.019-.351 1.838-1.06 2.568-.709.723-1.57 1.088-2.596 1.088Zm-2.712 33.533v-28.804h5.535v28.804h-5.535ZM135.665 148.497v5.067h-2.472c-2.63 0-4.709.757-6.216 2.265-1.515 1.514-2.265 3.662-2.265 6.45v15.256h-5.535v-28.749h5.184l.475 5.776h-.537c.392-1.886 1.328-3.428 2.829-4.626 1.487-1.198 3.353-1.797 5.597-1.797.509 0 .991.028 1.446.09.454.055.957.144 1.5.261l-.006.007ZM152.214 178.251c-2.788 0-5.267-.641-7.422-1.914-2.161-1.274-3.841-3.043-5.059-5.301-1.219-2.258-1.825-4.874-1.825-7.862 0-2.988.599-5.673 1.797-7.951 1.198-2.279 2.843-4.062 4.95-5.363 2.099-1.294 4.543-1.942 7.332-1.942 2.788 0 5.135.593 7.159 1.77 2.017 1.184 3.587 2.829 4.709 4.95 1.122 2.12 1.68 4.619 1.68 7.483v2.058l-24.673.062.11-3.711H160c0-2.395-.73-4.323-2.183-5.769-1.452-1.452-3.393-2.182-5.83-2.182-1.852 0-3.429.399-4.744 1.205-1.315.805-2.313 1.983-3.001 3.531-.682 1.556-1.033 3.408-1.033 5.563 0 3.463.785 6.12 2.355 7.986 1.569 1.865 3.827 2.795 6.774 2.795 2.161 0 3.924-.434 5.3-1.295 1.377-.86 2.293-2.12 2.768-3.765h5.184c-.709 3.063-2.217 5.438-4.537 7.125-2.313 1.694-5.266 2.533-8.839 2.533v-.006ZM181.844 162.403c0-2.712.551-5.156 1.645-7.332a12.97 12.97 0 0 1 4.716-5.218c2.038-1.294 4.454-1.941 7.242-1.941 2.595 0 4.812.619 6.657 1.858 1.852 1.24 3.16 2.954 3.952 5.157l-.709.764.585-6.946h4.95v27.626c0 3.022-.586 5.645-1.77 7.862-1.17 2.217-2.843 3.938-5.011 5.156-2.162 1.212-4.709 1.825-7.656 1.825-3.924 0-7.146-1.04-9.658-3.119-2.513-2.086-4.048-4.95-4.592-8.598h5.535c.351 2.12 1.294 3.772 2.829 4.949 1.535 1.178 3.497 1.77 5.886 1.77 2.713 0 4.881-.82 6.513-2.444 1.625-1.632 2.444-3.821 2.444-6.568v-8.13l.709.764c-.744 2.162-2.107 3.855-4.069 5.094-1.962 1.24-4.24 1.852-6.829 1.852-2.754 0-5.129-.633-7.132-1.914-2.003-1.273-3.545-2.994-4.626-5.149-1.074-2.162-1.618-4.592-1.618-7.304l.007-.014Zm5.535-.117c0 1.804.358 3.435 1.087 4.888.73 1.452 1.742 2.616 3.064 3.476 1.315.868 2.857 1.295 4.626 1.295 1.886 0 3.497-.413 4.826-1.24 1.336-.826 2.368-1.962 3.098-3.421.723-1.453 1.081-3.119 1.081-5.005 0-1.886-.351-3.532-1.06-4.95a8.11 8.11 0 0 0-3.064-3.359c-1.329-.826-2.939-1.239-4.826-1.239-1.886 0-3.428.433-4.743 1.294a8.518 8.518 0 0 0-3.029 3.442c-.709 1.432-1.06 3.036-1.06 4.805v.014ZM234.344 148.497v5.067h-2.472c-2.629 0-4.709.757-6.216 2.265-1.515 1.514-2.265 3.662-2.265 6.45v15.256h-5.535v-28.749h5.184l.475 5.776h-.537c.392-1.886 1.329-3.428 2.829-4.626 1.487-1.198 3.353-1.797 5.597-1.797.51 0 .992.028 1.446.09.454.055.957.144 1.501.261l-.007.007ZM250.914 178.251c-2.788 0-5.266-.641-7.421-1.914-2.162-1.274-3.841-3.043-5.06-5.301-1.218-2.258-1.824-4.874-1.824-7.862 0-2.988.599-5.673 1.797-7.951 1.198-2.279 2.843-4.062 4.949-5.363 2.1-1.294 4.544-1.942 7.332-1.942 2.788 0 5.136.593 7.16 1.77 2.017 1.184 3.587 2.829 4.709 4.95 1.122 2.12 1.679 4.619 1.679 7.483v2.058l-24.673.062.11-3.711H258.7c0-2.395-.729-4.323-2.182-5.769-1.452-1.452-3.394-2.182-5.831-2.182-1.852 0-3.428.399-4.743 1.205-1.315.805-2.313 1.983-3.002 3.531-.681 1.556-1.032 3.408-1.032 5.563 0 3.463.785 6.12 2.354 7.986 1.57 1.865 3.828 2.795 6.774 2.795 2.162 0 3.924-.434 5.301-1.295 1.377-.86 2.293-2.12 2.768-3.765h5.184c-.71 3.063-2.217 5.438-4.537 7.125-2.313 1.694-5.267 2.533-8.84 2.533v-.006ZM277.79 178.251c-3.071 0-5.473-.806-7.222-2.417-1.742-1.611-2.616-3.71-2.616-6.299 0-2.588.943-4.743 2.83-6.333 1.879-1.591 4.509-2.52 7.889-2.802l9.067-.709v-.827c0-1.61-.297-2.898-.882-3.855a4.922 4.922 0 0 0-2.416-2.058c-1.026-.413-2.182-.62-3.477-.62-2.326 0-4.116.482-5.39 1.446s-1.921 2.327-1.921 4.096h-4.826c0-2.003.51-3.752 1.536-5.239 1.012-1.494 2.457-2.65 4.323-3.476 1.866-.826 4.041-1.24 6.512-1.24 2.472 0 4.482.427 6.272 1.267a9.352 9.352 0 0 1 4.179 3.835c.998 1.707 1.501 3.855 1.501 6.45v18.085h-4.716l-.585-4.654c-.744 1.653-2.031 2.954-3.856 3.918-1.824.963-3.896 1.445-6.209 1.445l.007-.013Zm1.583-4.303c2.63 0 4.695-.792 6.189-2.382 1.487-1.59 2.231-3.738 2.231-6.451v-1.535l-7.36.592c-2.437.234-4.185.806-5.273 1.707-1.081.909-1.618 2.066-1.618 3.477 0 1.528.516 2.678 1.556 3.442 1.046.764 2.465 1.15 4.268 1.15h.007ZM296.522 148.738h16.846v4.654h-16.846v-4.654Zm11.194 28.804h-5.535v-40.707h5.535v40.707ZM329.766 178.251c-2.788 0-5.267-.641-7.421-1.914-2.162-1.274-3.842-3.043-5.06-5.301-1.219-2.258-1.825-4.874-1.825-7.862 0-2.988.599-5.673 1.797-7.951 1.198-2.279 2.843-4.062 4.95-5.363 2.1-1.294 4.544-1.942 7.332-1.942 2.788 0 5.135.593 7.159 1.77 2.017 1.184 3.587 2.829 4.709 4.95 1.122 2.12 1.68 4.619 1.68 7.483v2.058l-24.673.062.11-3.711h19.028c0-2.395-.73-4.323-2.182-5.769-1.453-1.452-3.394-2.182-5.831-2.182-1.852 0-3.429.399-4.743 1.205-1.315.805-2.314 1.983-3.002 3.531-.682 1.556-1.033 3.408-1.033 5.563 0 3.463.785 6.12 2.355 7.986 1.569 1.865 3.827 2.795 6.774 2.795 2.162 0 3.924-.434 5.301-1.295 1.377-.86 2.292-2.12 2.767-3.765h5.184c-.709 3.063-2.217 5.438-4.537 7.125-2.313 1.694-5.266 2.533-8.839 2.533v-.006ZM364.779 148.497v5.067h-2.472c-2.629 0-4.708.757-6.216 2.265-1.515 1.514-2.265 3.662-2.265 6.45v15.256h-5.535v-28.749h5.184l.475 5.776h-.537c.392-1.886 1.329-3.428 2.829-4.626 1.487-1.198 3.353-1.797 5.597-1.797.51 0 .992.028 1.446.09.454.055.957.144 1.501.261l-.007.007ZM380.091 162.403c0-2.712.551-5.156 1.645-7.332a12.97 12.97 0 0 1 4.716-5.218c2.038-1.294 4.454-1.941 7.242-1.941 2.596 0 4.812.619 6.657 1.858 1.852 1.24 3.16 2.954 3.952 5.157l-.709.764.585-6.946h4.95v27.626c0 3.022-.585 5.645-1.77 7.862-1.17 2.217-2.843 3.938-5.011 5.156-2.162 1.212-4.709 1.825-7.656 1.825-3.924 0-7.145-1.04-9.658-3.119-2.513-2.086-4.048-4.95-4.592-8.598h5.535c.351 2.12 1.294 3.772 2.829 4.949 1.536 1.178 3.498 1.77 5.886 1.77 2.713 0 4.881-.82 6.513-2.444 1.625-1.632 2.444-3.821 2.444-6.568v-8.13l.709.764c-.744 2.162-2.107 3.855-4.069 5.094-1.962 1.24-4.24 1.852-6.829 1.852-2.754 0-5.129-.633-7.132-1.914-2.003-1.273-3.545-2.994-4.626-5.149-1.074-2.162-1.618-4.592-1.618-7.304l.007-.014Zm5.535-.117c0 1.804.358 3.435 1.088 4.888.729 1.452 1.741 2.616 3.063 3.476 1.315.868 2.857 1.295 4.626 1.295 1.887 0 3.497-.413 4.826-1.24 1.336-.826 2.368-1.962 3.098-3.421.723-1.453 1.081-3.119 1.081-5.005 0-1.886-.351-3.532-1.06-4.95a8.103 8.103 0 0 0-3.064-3.359c-1.328-.826-2.939-1.239-4.826-1.239-1.886 0-3.428.433-4.743 1.294a8.518 8.518 0 0 0-3.029 3.442c-.702 1.432-1.06 3.036-1.06 4.805v.014ZM414.25 163.112c0-2.946.647-5.555 1.941-7.834a14.198 14.198 0 0 1 5.335-5.363c2.258-1.294 4.847-1.941 7.745-1.941 2.898 0 5.48.647 7.717 1.941 2.245 1.294 4.007 3.084 5.301 5.363 1.301 2.272 1.948 4.888 1.948 7.834 0 2.947-.647 5.556-1.948 7.834-1.294 2.272-3.063 4.062-5.301 5.356-2.23 1.295-4.805 1.942-7.717 1.942s-5.487-.647-7.745-1.942c-2.258-1.294-4.034-3.084-5.335-5.356-1.294-2.278-1.941-4.894-1.941-7.834Zm5.596 0c0 2.003.407 3.773 1.212 5.301.806 1.528 1.907 2.733 3.325 3.594 1.411.867 3.043 1.294 4.888 1.294 1.845 0 3.477-.434 4.888-1.294 1.411-.861 2.526-2.059 3.332-3.594.805-1.528 1.205-3.298 1.205-5.301s-.4-3.814-1.205-5.335c-.806-1.515-1.921-2.699-3.332-3.559-1.411-.868-3.036-1.295-4.888-1.295-1.852 0-3.477.434-4.888 1.295-1.411.86-2.519 2.051-3.325 3.559-.805 1.514-1.212 3.291-1.212 5.335ZM447.473 163.112c0-2.946.647-5.555 1.941-7.834a14.198 14.198 0 0 1 5.335-5.363c2.258-1.294 4.847-1.941 7.745-1.941 2.898 0 5.48.647 7.717 1.941 2.245 1.294 4.007 3.084 5.301 5.363 1.301 2.272 1.949 4.888 1.949 7.834 0 2.947-.648 5.556-1.949 7.834-1.294 2.272-3.063 4.062-5.301 5.356-2.23 1.295-4.805 1.942-7.717 1.942s-5.487-.647-7.745-1.942c-2.258-1.294-4.034-3.084-5.335-5.356-1.294-2.278-1.941-4.894-1.941-7.834Zm5.597 0c0 2.003.406 3.773 1.211 5.301.806 1.528 1.907 2.733 3.325 3.594 1.412.867 3.043 1.294 4.888 1.294 1.845 0 3.477-.434 4.888-1.294 1.411-.861 2.526-2.059 3.332-3.594.805-1.528 1.205-3.298 1.205-5.301s-.4-3.814-1.205-5.335c-.806-1.515-1.921-2.699-3.332-3.559-1.411-.868-3.036-1.295-4.888-1.295-1.852 0-3.476.434-4.888 1.295-1.411.86-2.519 2.051-3.325 3.559-.805 1.514-1.211 3.291-1.211 5.335ZM494.217 178.251c-2.788 0-5.184-.641-7.187-1.914-2.003-1.274-3.545-3.057-4.626-5.335-1.074-2.272-1.618-4.868-1.618-7.78s.551-5.562 1.645-7.861c1.095-2.3 2.672-4.117 4.716-5.446 2.038-1.335 4.475-2.003 7.304-2.003 2.245 0 4.234.461 5.976 1.39 1.742.923 3.112 2.286 4.089 4.09v-16.557h5.48v40.707h-4.95l-.475-5.239c-.943 1.927-2.327 3.394-4.151 4.419-1.824 1.019-3.896 1.529-6.21 1.529h.007Zm1.116-5.012c1.879 0 3.504-.427 4.86-1.294 1.356-.868 2.409-2.059 3.153-3.594.743-1.528 1.122-3.297 1.122-5.301 0-2.003-.379-3.759-1.122-5.273-.744-1.515-1.797-2.699-3.153-3.559-1.356-.868-2.981-1.295-4.86-1.295-1.88 0-3.498.441-4.833 1.322-1.329.881-2.355 2.086-3.064 3.594-.709 1.514-1.06 3.249-1.06 5.211 0 1.962.351 3.773 1.06 5.301.709 1.535 1.728 2.733 3.064 3.594 1.335.867 2.946 1.294 4.833 1.294ZM3.66 144.011c-.985 0-1.839-.365-2.568-1.088-.723-.723-1.088-1.576-1.088-2.568 0-.991.372-1.886 1.088-2.588.73-.709 1.576-1.06 2.567-1.06.992 0 1.887.351 2.596 1.06.709.709 1.06 1.569 1.06 2.588 0 1.019-.351 1.838-1.06 2.568-.71.73-1.57 1.088-2.596 1.088ZM98.278 34.02c-15.173-.413-23.702 3.566-30.91 11.937l-.097.117c-1.493-2.161-3.208-4.158-5.3-5.858-5.074-4.13-11.456-6.196-19.132-6.196-.447 0-.847.062-1.287.076l.027-.076c-12.729-.227-19.696 2.781-25.423 7.834l-.771-5.356H.508v86.611h16.646l.585-50.785c0-4.606.888-8.592 2.664-11.958 1.77-3.367 3.635-6.54 6.768-8.371 3.125-1.831 6.76-2.747 10.897-2.747 5.907 0 10.568 1.803 13.99 5.397 3.42 3.607 5.135 8.826 5.135 15.676v52.781h16.48l.586-50.785c0-4.606.881-8.62 2.657-12.047 1.77-3.429 3.635-6.637 6.767-8.468 3.126-1.831 6.76-2.747 10.898-2.747 5.907 0 10.595 1.859 14.079 5.576 3.483 3.718 5.225 9.005 5.225 15.855v52.609h16.295V66.417c0-10.037-2.837-17.947-8.509-23.737-5.673-5.782-13.459-8.68-23.38-8.68l-.013.02ZM199.022 107.523c-4.137 2.596-9.452 3.897-15.944 3.897-8.853 0-15.647-2.802-20.363-8.413-4.076-4.833-6.279-11.559-6.843-19.944l66.887-.158V76.71c0-8.619-1.686-16.123-5.046-22.49-3.366-6.375-8.089-11.339-14.175-14.877-6.078-3.546-13.252-5.315-21.513-5.315-8.261 0-15.737 1.948-22.05 5.845-6.327 3.896-11.283 9.273-14.884 16.123-3.6 6.85-5.397 14.821-5.397 23.909 0 9.087 1.824 16.86 5.487 23.647 3.655 6.788 8.736 12.103 15.228 15.937 6.498 3.835 13.933 5.755 22.318 5.755 10.747 0 19.6-2.54 26.574-7.614 6.966-5.073 11.517-12.219 13.637-21.43h-15.579c-1.418 4.956-4.199 8.736-8.323 11.338l-.014-.014Zm-40.293-45.25c2.058-4.66 5.074-8.206 9.032-10.63 3.958-2.423 8.709-3.634 14.257-3.634 7.318 0 13.163 2.182 17.528 6.554 4.364 4.371 6.56 10.154 6.56 17.355h-49.869c.489-3.518 1.232-6.809 2.492-9.652v.007ZM256.589.535h-16.653v33.712h-17.004v13.989h17.004v74.873h16.653V48.236h16.997v-13.99h-16.997V.536ZM493.517.535v41.96c-10.292-8.2-26.263-10.244-38.462-7.697-5.094.901-9.727 2.588-13.789 5.245a40.286 40.286 0 0 0-4.385 3.326 54.648 54.648 0 0 1 8.935 14.684 25.295 25.295 0 0 1 5.549-4.991c4.014-2.658 8.86-3.98 14.519-3.98 5.659 0 10.547 1.295 14.615 3.897 4.076 2.595 7.236 6.168 9.473 10.719 2.244 4.543 3.366 9.83 3.366 15.847 0 6.017-1.129 11.339-3.366 15.944-2.244 4.606-5.397 8.206-9.473 10.802-4.068 2.595-8.942 3.896-14.615 3.896s-10.505-1.294-14.519-3.896a24.37 24.37 0 0 1-6.148-5.7 54.623 54.623 0 0 1-9.617 14.753 36.65 36.65 0 0 0 5.308 4.137c3.442 2.196 7.318 3.683 11.531 4.626 12.584 3.532 29.52 2.967 41.147-6.526v5.535h16.399V.535h-16.474.006Z" fill="#fff"/><path d="M442.285 78.617c0-3.966-.495-7.814-1.425-11.497a46.78 46.78 0 0 0-9.169-18.202c-8.613-10.533-21.707-17.259-36.37-17.259-12.757 0-24.322 5.095-32.783 13.356 3.814 6.932 5.748 15.352 5.748 25.141v46.847a46.725 46.725 0 0 0 27.035 8.578c14.064 0 26.676-6.189 35.282-15.985a46.942 46.942 0 0 0 9.961-18.381 46.852 46.852 0 0 0 1.721-12.591v-.007ZM355.261 47.533a30.774 30.774 0 0 0-2.265-3.242c-.145-.179-.276-.358-.42-.53-4.317-5.15-10.444-8.172-18.244-9.239l.069-.062c-3.559-.633-7.132-.998-10.705-.998-8.357 0-16.742 1.983-25.148 7.07V.535h-16.646v122.574h16.646V74.885c0-4.957.95-9.446 2.836-13.459 1.887-4.014 4.695-6.272 8.413-8.633 3.717-2.361 8.233-3.545 13.555-3.545 4.131 0 7.759.826 10.891 2.478 3.125 1.652 5.549 4.282 7.263 7.883.564 1.197 1.032 2.533 1.411 3.985.764 2.913 1.15 6.327 1.15 10.272v49.243h16.653v-52.96c0-7.298-1.184-13.597-3.532-18.912a32.87 32.87 0 0 0-1.921-3.71l-.006.006Z" fill="#fff"/></svg>