<svg width="510" height="192" viewBox="0 0 510 192" fill="none" xmlns="http://www.w3.org/2000/svg">
<path d="M0.953125 177.543V148.739H6.48807V177.543H0.953125Z" fill="white"/>
<path d="M19.0252 177.541H13.4902V148.738H18.4882L19.0803 153.157C19.9821 151.505 21.2832 150.218 22.9974 149.302C24.7047 148.38 26.5772 147.912 28.6218 147.912C32.3875 147.912 35.1825 148.992 36.9862 151.154C38.7899 153.316 39.6917 156.242 39.6917 159.932V177.541H34.1568V161.164C34.1568 158.259 33.5234 156.166 32.2705 154.892C31.0176 153.619 29.3309 152.978 27.2106 152.978C24.6152 152.978 22.5981 153.818 21.1731 155.512C19.7343 157.198 19.0252 159.463 19.0252 162.286V177.541Z" fill="white"/>
<path d="M44.1856 169.178H49.4865C49.4865 170.631 50.0234 171.78 51.0836 172.62C52.1438 173.467 53.5757 173.887 55.3794 173.887C57.3483 173.887 58.8628 173.501 59.923 172.737C60.9832 171.973 61.5064 170.94 61.5064 169.646C61.5064 168.703 61.2173 167.918 60.6459 167.292C60.0814 166.665 59.0487 166.156 57.5548 165.763L52.4949 164.586C49.9408 163.96 48.0408 162.996 46.8085 161.702C45.5693 160.407 44.9498 158.7 44.9498 156.58C44.9498 154.811 45.411 153.282 46.3335 151.988C47.256 150.694 48.5365 149.689 50.1611 148.986C51.7927 148.277 53.6652 147.926 55.7856 147.926C57.9059 147.926 59.744 148.305 61.2999 149.048C62.8488 149.799 64.0673 150.831 64.9485 152.167C65.8366 153.503 66.2978 155.093 66.3323 156.938H61.0314C60.997 155.444 60.5082 154.287 59.565 153.461C58.615 152.635 57.3001 152.222 55.6135 152.222C53.9268 152.222 52.55 152.594 51.6068 153.344C50.6637 154.088 50.1956 155.113 50.1956 156.408C50.1956 158.335 51.6068 159.65 54.4363 160.359L59.5031 161.598C61.9332 162.149 63.7576 163.044 64.9761 164.276C66.1946 165.516 66.8004 167.188 66.8004 169.309C66.8004 171.112 66.3116 172.696 65.3272 174.052C64.3496 175.408 63.0003 176.448 61.293 177.171C59.5857 177.893 57.5686 178.258 55.2555 178.258C51.8822 178.258 49.1836 177.432 47.1871 175.787C45.1769 174.135 44.1787 171.939 44.1787 169.192L44.1856 169.178Z" fill="white"/>
<path d="M72.2671 190.443V148.738H77.2651L77.6781 153.922C78.6281 151.918 80.0257 150.417 81.8913 149.419C83.7569 148.421 85.8291 147.918 88.1078 147.918C90.8546 147.918 93.2297 148.559 95.233 149.839C97.2432 151.113 98.7784 152.882 99.8592 155.14C100.94 157.398 101.484 160 101.484 162.947C101.484 165.893 100.961 168.523 99.9212 170.843C98.8817 173.163 97.3671 174.987 95.3844 176.323C93.4018 177.658 90.9785 178.326 88.1147 178.326C85.7878 178.326 83.7294 177.851 81.9257 176.915C80.122 175.972 78.7452 174.616 77.802 172.853V190.463H72.2671V190.443ZM77.864 163.167C77.864 165.095 78.222 166.83 78.9517 168.378C79.6746 169.934 80.721 171.139 82.0703 172C83.4265 172.867 85.0374 173.294 86.9306 173.294C88.8237 173.294 90.4278 172.853 91.7564 171.972C93.092 171.091 94.1246 169.879 94.8475 168.344C95.5772 166.816 95.9352 165.088 95.9352 163.16C95.9352 161.233 95.5772 159.388 94.8475 157.859C94.1246 156.331 93.092 155.126 91.7564 154.266C90.4278 153.405 88.8169 152.972 86.9306 152.972C85.0443 152.972 83.4265 153.405 82.0703 154.266C80.7141 155.133 79.6746 156.331 78.9517 157.859C78.222 159.388 77.864 161.157 77.864 163.16V163.167Z" fill="white"/>
<path d="M109.331 144.009C108.347 144.009 107.493 143.644 106.763 142.921C106.041 142.198 105.676 141.345 105.676 140.353C105.676 139.362 106.048 138.467 106.763 137.765C107.493 137.056 108.34 136.705 109.331 136.705C110.323 136.705 111.218 137.056 111.927 137.765C112.636 138.474 112.987 139.334 112.987 140.353C112.987 141.372 112.636 142.191 111.927 142.921C111.218 143.644 110.357 144.009 109.331 144.009ZM106.619 177.542V148.738H112.154V177.542H106.619Z" fill="white"/>
<path d="M135.665 148.497V153.564H133.193C130.563 153.564 128.484 154.321 126.977 155.829C125.462 157.343 124.712 159.491 124.712 162.279V177.535H119.177V148.786H124.361L124.836 154.562H124.299C124.691 152.676 125.627 151.134 127.128 149.936C128.615 148.738 130.481 148.139 132.725 148.139C133.234 148.139 133.716 148.167 134.171 148.229C134.625 148.284 135.128 148.373 135.671 148.49L135.665 148.497Z" fill="white"/>
<path d="M152.214 178.251C149.426 178.251 146.947 177.61 144.792 176.337C142.631 175.063 140.951 173.294 139.733 171.036C138.514 168.778 137.908 166.162 137.908 163.174C137.908 160.186 138.507 157.501 139.705 155.223C140.903 152.944 142.548 151.161 144.655 149.86C146.754 148.566 149.198 147.918 151.987 147.918C154.775 147.918 157.122 148.511 159.146 149.688C161.163 150.872 162.733 152.517 163.855 154.638C164.977 156.758 165.535 159.257 165.535 162.121V164.179L140.862 164.241L140.972 160.53H160C160 158.135 159.27 156.207 157.817 154.761C156.365 153.309 154.424 152.579 151.987 152.579C150.135 152.579 148.558 152.978 147.243 153.784C145.928 154.589 144.93 155.767 144.242 157.315C143.56 158.871 143.209 160.723 143.209 162.878C143.209 166.341 143.994 168.998 145.564 170.864C147.133 172.729 149.391 173.659 152.338 173.659C154.499 173.659 156.262 173.225 157.638 172.364C159.015 171.504 159.931 170.244 160.406 168.599H165.59C164.881 171.662 163.373 174.037 161.053 175.724C158.74 177.418 155.787 178.257 152.214 178.257V178.251Z" fill="white"/>
<path d="M181.844 162.403C181.844 159.691 182.395 157.247 183.489 155.071C184.584 152.889 186.16 151.154 188.205 149.853C190.243 148.559 192.659 147.912 195.447 147.912C198.042 147.912 200.259 148.531 202.104 149.77C203.956 151.01 205.264 152.724 206.056 154.927L205.347 155.691L205.932 148.745H210.882V176.371C210.882 179.393 210.296 182.016 209.112 184.233C207.942 186.45 206.269 188.171 204.101 189.389C201.939 190.601 199.392 191.214 196.445 191.214C192.521 191.214 189.299 190.174 186.787 188.095C184.274 186.009 182.739 183.145 182.195 179.497H187.73C188.081 181.617 189.024 183.269 190.559 184.446C192.094 185.624 194.056 186.216 196.445 186.216C199.158 186.216 201.326 185.396 202.958 183.772C204.583 182.14 205.402 179.951 205.402 177.204V169.074L206.111 169.838C205.367 172 204.004 173.693 202.042 174.932C200.08 176.172 197.802 176.784 195.213 176.784C192.459 176.784 190.084 176.151 188.081 174.87C186.078 173.597 184.536 171.876 183.455 169.721C182.381 167.559 181.837 165.129 181.837 162.417L181.844 162.403ZM187.379 162.286C187.379 164.09 187.737 165.721 188.466 167.174C189.196 168.626 190.208 169.79 191.53 170.65C192.845 171.518 194.387 171.945 196.156 171.945C198.042 171.945 199.653 171.532 200.982 170.705C202.318 169.879 203.35 168.743 204.08 167.284C204.803 165.831 205.161 164.165 205.161 162.279C205.161 160.393 204.81 158.747 204.101 157.329C203.398 155.918 202.38 154.796 201.037 153.97C199.708 153.144 198.098 152.731 196.211 152.731C194.325 152.731 192.783 153.164 191.468 154.025C190.153 154.885 189.141 156.035 188.439 157.467C187.73 158.899 187.379 160.503 187.379 162.272V162.286Z" fill="white"/>
<path d="M234.344 148.497V153.564H231.872C229.243 153.564 227.163 154.321 225.656 155.829C224.141 157.343 223.391 159.491 223.391 162.279V177.535H217.856V148.786H223.04L223.515 154.562H222.978C223.37 152.676 224.307 151.134 225.807 149.936C227.294 148.738 229.16 148.139 231.404 148.139C231.914 148.139 232.396 148.167 232.85 148.229C233.304 148.284 233.807 148.373 234.351 148.49L234.344 148.497Z" fill="white"/>
<path d="M250.914 178.251C248.126 178.251 245.648 177.61 243.493 176.337C241.331 175.063 239.652 173.294 238.433 171.036C237.215 168.778 236.609 166.162 236.609 163.174C236.609 160.186 237.208 157.501 238.406 155.223C239.604 152.944 241.249 151.161 243.355 149.86C245.455 148.566 247.899 147.918 250.687 147.918C253.475 147.918 255.823 148.511 257.847 149.688C259.864 150.872 261.434 152.517 262.556 154.638C263.678 156.758 264.235 159.257 264.235 162.121V164.179L239.562 164.241L239.672 160.53H258.7C258.7 158.135 257.971 156.207 256.518 154.761C255.066 153.309 253.124 152.579 250.687 152.579C248.835 152.579 247.259 152.978 245.944 153.784C244.629 154.589 243.631 155.767 242.942 157.315C242.261 158.871 241.91 160.723 241.91 162.878C241.91 166.341 242.695 168.998 244.264 170.864C245.834 172.729 248.092 173.659 251.038 173.659C253.2 173.659 254.962 173.225 256.339 172.364C257.716 171.504 258.632 170.244 259.107 168.599H264.291C263.581 171.662 262.074 174.037 259.754 175.724C257.441 177.418 254.487 178.257 250.914 178.257V178.251Z" fill="white"/>
<path d="M277.79 178.251C274.719 178.251 272.317 177.445 270.568 175.834C268.826 174.223 267.952 172.124 267.952 169.535C267.952 166.947 268.895 164.792 270.782 163.202C272.661 161.611 275.291 160.682 278.671 160.4L287.738 159.691V158.864C287.738 157.254 287.441 155.966 286.856 155.009C286.271 154.045 285.459 153.364 284.44 152.951C283.414 152.538 282.258 152.331 280.963 152.331C278.637 152.331 276.847 152.813 275.573 153.777C274.299 154.741 273.652 156.104 273.652 157.873H268.826C268.826 155.87 269.336 154.121 270.362 152.634C271.374 151.14 272.819 149.984 274.685 149.158C276.551 148.332 278.726 147.918 281.197 147.918C283.669 147.918 285.679 148.345 287.469 149.185C289.259 150.032 290.65 151.306 291.648 153.02C292.646 154.727 293.149 156.875 293.149 159.47V177.555H288.433L287.848 172.901C287.104 174.554 285.817 175.855 283.992 176.819C282.168 177.782 280.096 178.264 277.783 178.264L277.79 178.251ZM279.373 173.948C282.003 173.948 284.068 173.156 285.562 171.566C287.049 169.976 287.793 167.828 287.793 165.115V163.58L280.433 164.172C277.996 164.406 276.248 164.978 275.16 165.879C274.079 166.788 273.542 167.945 273.542 169.356C273.542 170.884 274.058 172.034 275.098 172.798C276.144 173.562 277.563 173.948 279.366 173.948H279.373Z" fill="white"/>
<path d="M296.522 148.738H313.368V153.392H296.522V148.738ZM307.716 177.542H302.181V136.835H307.716V177.542Z" fill="white"/>
<path d="M329.766 178.251C326.978 178.251 324.499 177.61 322.345 176.337C320.183 175.063 318.503 173.294 317.285 171.036C316.066 168.778 315.46 166.162 315.46 163.174C315.46 160.186 316.059 157.501 317.257 155.223C318.455 152.944 320.1 151.161 322.207 149.86C324.307 148.566 326.751 147.918 329.539 147.918C332.327 147.918 334.674 148.511 336.698 149.688C338.715 150.872 340.285 152.517 341.407 154.638C342.529 156.758 343.087 159.257 343.087 162.121V164.179L318.414 164.241L318.524 160.53H337.552C337.552 158.135 336.822 156.207 335.37 154.761C333.917 153.309 331.976 152.579 329.539 152.579C327.687 152.579 326.11 152.978 324.796 153.784C323.481 154.589 322.482 155.767 321.794 157.315C321.112 158.871 320.761 160.723 320.761 162.878C320.761 166.341 321.546 168.998 323.116 170.864C324.685 172.729 326.943 173.659 329.89 173.659C332.052 173.659 333.814 173.225 335.191 172.364C336.568 171.504 337.483 170.244 337.958 168.599H343.142C342.433 171.662 340.925 174.037 338.605 175.724C336.292 177.418 333.339 178.257 329.766 178.257V178.251Z" fill="white"/>
<path d="M364.779 148.497V153.564H362.307C359.678 153.564 357.599 154.321 356.091 155.829C354.576 157.343 353.826 159.491 353.826 162.279V177.535H348.291V148.786H353.475L353.95 154.562H353.413C353.805 152.676 354.742 151.134 356.242 149.936C357.729 148.738 359.595 148.139 361.839 148.139C362.349 148.139 362.831 148.167 363.285 148.229C363.739 148.284 364.242 148.373 364.786 148.49L364.779 148.497Z" fill="white"/>
<path d="M380.091 162.403C380.091 159.691 380.642 157.247 381.736 155.071C382.831 152.889 384.407 151.154 386.452 149.853C388.49 148.559 390.906 147.912 393.694 147.912C396.29 147.912 398.506 148.531 400.351 149.77C402.203 151.01 403.511 152.724 404.303 154.927L403.594 155.691L404.179 148.745H409.129V176.371C409.129 179.393 408.544 182.016 407.359 184.233C406.189 186.45 404.516 188.171 402.348 189.389C400.186 190.601 397.639 191.214 394.692 191.214C390.768 191.214 387.547 190.174 385.034 188.095C382.521 186.009 380.986 183.145 380.442 179.497H385.977C386.328 181.617 387.271 183.269 388.806 184.446C390.342 185.624 392.304 186.216 394.692 186.216C397.405 186.216 399.573 185.396 401.205 183.772C402.83 182.14 403.649 179.951 403.649 177.204V169.074L404.358 169.838C403.614 172 402.251 173.693 400.289 174.932C398.327 176.172 396.049 176.784 393.46 176.784C390.706 176.784 388.331 176.151 386.328 174.87C384.325 173.597 382.783 171.876 381.702 169.721C380.628 167.559 380.084 165.129 380.084 162.417L380.091 162.403ZM385.626 162.286C385.626 164.09 385.984 165.721 386.714 167.174C387.443 168.626 388.455 169.79 389.777 170.65C391.092 171.518 392.634 171.945 394.403 171.945C396.29 171.945 397.9 171.532 399.229 170.705C400.565 169.879 401.597 168.743 402.327 167.284C403.05 165.831 403.408 164.165 403.408 162.279C403.408 160.393 403.057 158.747 402.348 157.329C401.646 155.918 400.627 154.796 399.284 153.97C397.956 153.144 396.345 152.731 394.458 152.731C392.572 152.731 391.03 153.164 389.715 154.025C388.4 154.885 387.388 156.035 386.686 157.467C385.984 158.899 385.626 160.503 385.626 162.272V162.286Z" fill="white"/>
<path d="M414.25 163.112C414.25 160.166 414.897 157.557 416.191 155.278C417.492 152.999 419.268 151.216 421.526 149.915C423.784 148.621 426.373 147.974 429.271 147.974C432.169 147.974 434.751 148.621 436.988 149.915C439.233 151.209 440.995 152.999 442.289 155.278C443.59 157.55 444.237 160.166 444.237 163.112C444.237 166.059 443.59 168.668 442.289 170.946C440.995 173.218 439.226 175.008 436.988 176.302C434.758 177.597 432.183 178.244 429.271 178.244C426.359 178.244 423.784 177.597 421.526 176.302C419.268 175.008 417.492 173.218 416.191 170.946C414.897 168.668 414.25 166.052 414.25 163.112ZM419.846 163.112C419.846 165.115 420.253 166.885 421.058 168.413C421.864 169.941 422.965 171.146 424.383 172.007C425.794 172.874 427.426 173.301 429.271 173.301C431.116 173.301 432.748 172.867 434.159 172.007C435.57 171.146 436.685 169.948 437.491 168.413C438.296 166.885 438.696 165.115 438.696 163.112C438.696 161.109 438.296 159.298 437.491 157.777C436.685 156.262 435.57 155.078 434.159 154.218C432.748 153.35 431.123 152.923 429.271 152.923C427.419 152.923 425.794 153.357 424.383 154.218C422.972 155.078 421.864 156.269 421.058 157.777C420.253 159.291 419.846 161.068 419.846 163.112Z" fill="white"/>
<path d="M447.473 163.112C447.473 160.166 448.12 157.557 449.414 155.278C450.715 152.999 452.491 151.216 454.749 149.915C457.007 148.621 459.596 147.974 462.494 147.974C465.392 147.974 467.974 148.621 470.211 149.915C472.456 151.209 474.218 152.999 475.512 155.278C476.813 157.55 477.461 160.166 477.461 163.112C477.461 166.059 476.813 168.668 475.512 170.946C474.218 173.218 472.449 175.008 470.211 176.302C467.981 177.597 465.406 178.244 462.494 178.244C459.582 178.244 457.007 177.597 454.749 176.302C452.491 175.008 450.715 173.218 449.414 170.946C448.12 168.668 447.473 166.052 447.473 163.112ZM453.07 163.112C453.07 165.115 453.476 166.885 454.281 168.413C455.087 169.941 456.188 171.146 457.606 172.007C459.018 172.874 460.649 173.301 462.494 173.301C464.339 173.301 465.971 172.867 467.382 172.007C468.793 171.146 469.908 169.948 470.714 168.413C471.519 166.885 471.919 165.115 471.919 163.112C471.919 161.109 471.519 159.298 470.714 157.777C469.908 156.262 468.793 155.078 467.382 154.218C465.971 153.35 464.346 152.923 462.494 152.923C460.642 152.923 459.018 153.357 457.606 154.218C456.195 155.078 455.087 156.269 454.281 157.777C453.476 159.291 453.07 161.068 453.07 163.112Z" fill="white"/>
<path d="M494.217 178.251C491.429 178.251 489.033 177.61 487.03 176.337C485.027 175.063 483.485 173.28 482.404 171.002C481.33 168.73 480.786 166.134 480.786 163.222C480.786 160.31 481.337 157.66 482.431 155.361C483.526 153.061 485.103 151.244 487.147 149.915C489.185 148.58 491.622 147.912 494.451 147.912C496.696 147.912 498.685 148.373 500.427 149.302C502.169 150.225 503.539 151.588 504.516 153.392V136.835H509.996V177.542H505.046L504.571 172.303C503.628 174.23 502.244 175.697 500.42 176.722C498.596 177.741 496.524 178.251 494.21 178.251H494.217ZM495.333 173.239C497.212 173.239 498.837 172.812 500.193 171.945C501.549 171.077 502.602 169.886 503.346 168.351C504.089 166.823 504.468 165.054 504.468 163.05C504.468 161.047 504.089 159.291 503.346 157.777C502.602 156.262 501.549 155.078 500.193 154.218C498.837 153.35 497.212 152.923 495.333 152.923C493.453 152.923 491.835 153.364 490.5 154.245C489.171 155.126 488.145 156.331 487.436 157.839C486.727 159.353 486.376 161.088 486.376 163.05C486.376 165.012 486.727 166.823 487.436 168.351C488.145 169.886 489.164 171.084 490.5 171.945C491.835 172.812 493.446 173.239 495.333 173.239Z" fill="white"/>
<path d="M3.65945 144.011C2.675 144.011 1.82135 143.646 1.09162 142.923C0.368772 142.2 0.00390625 141.347 0.00390625 140.355C0.00390625 139.364 0.375657 138.469 1.09162 137.767C1.82135 137.058 2.66812 136.707 3.65945 136.707C4.65078 136.707 5.54574 137.058 6.25482 137.767C6.9639 138.476 7.31499 139.336 7.31499 140.355C7.31499 141.374 6.9639 142.193 6.25482 142.923C5.54574 143.653 4.6852 144.011 3.65945 144.011Z" fill="white"/>
<path d="M98.2781 34.0199C83.1052 33.6068 74.5756 37.5859 67.3678 45.9572C67.3334 45.9985 67.2989 46.0398 67.2714 46.0742C65.7775 43.9125 64.0633 41.9161 61.9705 40.2157C56.8968 36.0851 50.5151 34.0199 42.8391 34.0199C42.3917 34.0199 41.9924 34.0818 41.5518 34.0956L41.5793 34.0199C28.8503 33.7927 21.8834 36.8011 16.1557 41.8541L15.3847 36.4982H0.507812V123.109H17.154L17.7391 72.3239C17.7391 67.7183 18.6272 63.7323 20.4033 60.3659C22.1726 56.9995 24.0382 53.8259 27.1706 51.9947C30.296 50.1635 33.9309 49.2479 38.0684 49.2479C43.9751 49.2479 48.6357 51.0515 52.0572 54.6451C55.4787 58.2525 57.1928 63.4707 57.1928 70.3206V123.102H73.6738L74.2589 72.317C74.2589 67.7114 75.1401 63.6979 76.9162 60.2696C78.6855 56.8412 80.5511 53.6331 83.6835 51.8019C86.8089 49.9707 90.4438 49.0551 94.5813 49.0551C100.488 49.0551 105.176 50.9138 108.66 54.6313C112.143 58.3488 113.885 63.636 113.885 70.4858V123.095H130.18V66.4172C130.18 56.3799 127.343 48.4699 121.671 42.6803C115.998 36.8975 108.212 33.9992 98.2919 33.9992L98.2781 34.0199Z" fill="white"/>
<path d="M199.022 107.523C194.885 110.119 189.57 111.42 183.078 111.42C174.225 111.42 167.431 108.618 162.715 103.007C158.639 98.1744 156.436 91.4485 155.872 83.0635L222.759 82.9051V76.7093C222.759 68.0902 221.073 60.5863 217.713 54.2184C214.347 47.8436 209.624 42.88 203.538 39.3415C197.46 35.7961 190.286 34.0269 182.025 34.0269C173.764 34.0269 166.288 35.9751 159.975 39.8716C153.648 43.7681 148.692 49.1447 145.091 55.9945C141.491 62.8444 139.694 70.8164 139.694 79.9036C139.694 88.9908 141.518 96.7631 145.181 103.551C148.836 110.339 153.917 115.654 160.409 119.488C166.907 123.323 174.342 125.243 182.727 125.243C193.474 125.243 202.327 122.703 209.301 117.629C216.267 112.556 220.818 105.41 222.938 96.1986H207.359C205.941 101.155 203.16 104.935 199.036 107.537L199.022 107.523ZM158.729 62.273C160.787 57.6123 163.803 54.0669 167.761 51.6437C171.719 49.2204 176.47 48.0088 182.018 48.0088C189.336 48.0088 195.181 50.1911 199.546 54.5626C203.91 58.9341 206.106 64.7169 206.106 71.9178H156.237C156.726 68.4 157.469 65.1093 158.729 62.2661V62.273Z" fill="white"/>
<path d="M256.589 0.534668H239.936V34.2469H222.932V48.2357H239.936V123.109H256.589V48.2357H273.586V34.2469H256.589V0.534668Z" fill="white"/>
<path d="M493.517 0.534668V42.4943C483.225 34.2951 467.254 32.2505 455.055 34.7976C449.961 35.6995 445.328 37.3861 441.266 40.0435C439.717 41.0623 438.251 42.1707 436.881 43.3686C440.584 47.7332 443.62 52.6761 445.816 58.0527C447.407 56.132 449.252 54.4591 451.365 53.0616C455.379 50.4043 460.225 49.0825 465.884 49.0825C471.543 49.0825 476.431 50.3767 480.499 52.979C484.575 55.5744 487.735 59.1473 489.972 63.6978C492.216 68.2414 493.338 73.5285 493.338 79.5454C493.338 85.5622 492.209 90.8837 489.972 95.4893C487.728 100.095 484.575 103.695 480.499 106.291C476.431 108.886 471.557 110.187 465.884 110.187C460.211 110.187 455.379 108.893 451.365 106.291C448.983 104.749 446.939 102.842 445.217 100.591C442.815 106.029 439.559 111.006 435.6 115.344C437.239 116.872 438.994 118.262 440.908 119.481C444.35 121.677 448.226 123.164 452.439 124.107C465.023 127.639 481.959 127.074 493.586 117.581V123.116H509.985V0.534668H493.511H493.517Z" fill="white"/>
<path d="M442.285 78.6167C442.285 74.6514 441.79 70.8031 440.86 67.12C439.153 60.3459 435.979 54.157 431.691 48.918C423.078 38.3851 409.984 31.6592 395.321 31.6592C382.564 31.6592 370.999 36.7535 362.538 45.0147C366.352 51.9471 368.286 60.3666 368.286 70.156V117.003C375.935 122.401 385.256 125.581 395.321 125.581C409.385 125.581 421.997 119.392 430.603 109.596C435.195 104.364 438.644 98.113 440.564 91.2149C441.68 87.2083 442.285 82.9882 442.285 78.6236V78.6167Z" fill="white"/>
<path d="M355.261 47.5335C354.572 46.3976 353.815 45.3168 352.996 44.291C352.851 44.1121 352.72 43.9331 352.576 43.761C348.259 38.6115 342.132 35.5893 334.332 34.5223L334.401 34.4603C330.842 33.827 327.269 33.4621 323.696 33.4621C315.339 33.4621 306.954 35.4448 298.548 40.5322V0.534668H281.902V123.109H298.548V74.8847C298.548 69.928 299.498 65.4395 301.384 61.426C303.271 57.4124 306.079 55.1544 309.797 52.7931C313.514 50.4318 318.03 49.2477 323.352 49.2477C327.483 49.2477 331.111 50.0738 334.243 51.726C337.368 53.3783 339.792 56.0081 341.506 59.6085C342.07 60.8064 342.538 62.1419 342.917 63.5945C343.681 66.5066 344.067 69.9212 344.067 73.8658V123.109H360.72V70.1483C360.72 62.851 359.536 56.5519 357.188 51.2373C356.617 49.943 355.977 48.7039 355.267 47.5266L355.261 47.5335Z" fill="white"/>
</svg>
