<svg width="103" height="86" fill="none" xmlns="http://www.w3.org/2000/svg"><g clip-path="url(#a)" fill="#1F305E"><path d="M-.001 65.034s15.523.732 28.773.609l-.672 7.13 21.066-2.01v14.808h5.19V70.886l21.372 1.767-.978-7.007s20.373.243 28.249-.671c0 0-31.668-.428-48.948-.67-17.28-.244-54.052.731-54.052.731v-.002ZM89.628 42.248l4.764-10.358-13.312 4.631-6.29-8.53-11.295 13.041 7.999-27.788-12.64 4.45L51.648.569 44.26 17.753l-12.762-4.509 8.06 27.727-11.48-12.857-5.985 8.226L8.72 31.83l4.518 10.115-13.189.669s21.983.73 44.961.753l.185-6.55-.297-.409.326-8.175.008-.23.016-.008.132-.067.13.433.504-.061-.045-1.6-.14-.084.03-.294c.094-.075.185-.155.276-.235l.032-.032c.088-.083.177-.166.262-.251l.07-.072c.126-.129.246-.26.359-.39.04-.046.075-.091.115-.137.043-.05.088-.104.128-.155l.105-.133c.056-.07.107-.14.16-.209.033-.045.068-.088.1-.133l.163-.23.088-.129c.051-.075.1-.15.145-.219.027-.043.053-.085.08-.125a9.554 9.554 0 0 0 .244-.407l.043-.074c.078-.137.118-.217.118-.217l-.308-.444.22-.205.01-.011.123-.115.292.126v-.096l-.037-1.794-.25-.4s.017-.02.025-.027c2.584-2.892 2.554-5.848 2.554-5.848l-.367-.366.431-.43v-.214l-.133.128s.013.027.013.043a.083.083 0 0 1-.083.083.083.083 0 0 1-.083-.083c0-.043.032-.077.075-.083l.107-.176-.136-.094-.1.067s.006.022.006.032a.083.083 0 0 1-.083.083.083.083 0 0 1-.083-.083c0-.045.037-.083.083-.083.013 0 .027.006.04.011l.378-.43v-.203a.143.143 0 0 1 0-.278v-.246h.072v.243a.144.144 0 0 1 .112.142c0 .07-.048.125-.112.142v.203l.377.43s.024-.01.04-.01c.046 0 .084.037.084.082a.083.083 0 0 1-.083.083.083.083 0 0 1-.083-.083c0-.01 0-.021.005-.032l-.1-.067-.136.094.107.176c.04.005.075.04.075.083a.083.083 0 0 1-.083.083.083.083 0 0 1-.083-.083c0-.016.006-.03.014-.043l-.134-.128v.24l.39.39-.3.3c.006.144.017.288.03.433l.011.12c.005.059.013.118.022.176l.013.113v.016c.383 2.8 1.965 5.465 1.965 5.465v2.416l.137-.022.083-.013.303-.045v.582l-.335.206.894 1.97.26.037.187.893 1.15 1.146.005.005-.006.006-.292.254.15.78.415-.126.22 1.39.16 7.627-.181.27-.094.14.04 3.602.019 1.598c23.099-.203 46.589-.706 46.589-.706l-13.32-.366v-.003Z"/><path d="M55.668 31.163c-.49-1.082-1.253-1.56-1.706-1.066-.453.492-.423 1.769.067 2.851.49 1.083 1.253 1.561 1.706 1.067.452-.492.423-1.77-.067-2.852Zm-.573 2.844-.035.016a.088.088 0 0 1-.046.01.118.118 0 0 1-.112-.102l-.1-1.07-.018.109a.115.115 0 0 1-.075.088.157.157 0 0 1-.035.005.122.122 0 0 1-.077-.03l-.03-.029a.112.112 0 0 1-.035-.098l.142-.869a.418.418 0 0 1 0-.163c.022-.099.07-.168.137-.195a.155.155 0 0 1 .145.016c.093.064.11.216.088.329a.31.31 0 0 1-.054.12l.169 1.75a.11.11 0 0 1-.064.113ZM50.055 28.91c-.8-.622-2.11-.286-2.924.757-.814 1.042-.825 2.391-.024 3.014.8.623 2.11.286 2.924-.756.814-1.042.825-2.392.024-3.015Zm-1.277 2.037a.313.313 0 0 1-.129.093l-.321 1.79a.112.112 0 0 1-.11.092h-.062a.11.11 0 0 1-.085-.04.114.114 0 0 1-.024-.091l.27-1.467-.308.44a.112.112 0 0 1-.083.049h-.01a.113.113 0 0 1-.08-.032l-.044-.043a.113.113 0 0 1-.013-.142l.538-.788a.313.313 0 0 1 .27-.291.226.226 0 0 1 .257.2.319.319 0 0 1-.069.232l.003-.002ZM5.252 55.346H3.801v3.167c0 .436-.308.759-.76.759-.453 0-.745-.326-.745-.759v-9.046c0-.436.29-.76.744-.76.456 0 .76.327.76.76v3.167h1.452V49.61c0-1.267-.851-2.135-2.14-2.135-1.413 0-2.265.868-2.265 2.135v8.739c0 1.285.852 2.154 2.121 2.154 1.433 0 2.284-.868 2.284-2.154v-3.004ZM7.502 60.322l.289-3.22h1.668l.308 3.22h1.452L9.987 47.655H6.74v.58l.418.288L6.034 60.32h1.468v.003Zm1.033-11.435h.145l.672 6.986H7.901l.634-6.986ZM13.722 60.322v-8.648h.107l1.596 8.648h1.995V47.655H15.97v8.832h-.073l-1.687-8.832H11.8v.58l.472.326v11.761h1.451ZM19.852 60.322l.289-3.22h1.668l.308 3.22h1.452l-1.232-12.667H19.09v.58l.418.288-1.125 11.796h1.468v.003Zm1.033-11.435h.145l.672 6.986h-1.451l.634-6.986ZM26.76 60.322c1.36 0 2.266-.906 2.266-2.28v-8.105c0-1.392-.908-2.28-2.266-2.28h-2.61v.58l.47.326v11.762h2.14v-.003Zm-.688-11.435h.635c.508 0 .87.344.87.887v8.432c0 .542-.362.887-.87.887h-.635V48.887ZM31.278 60.322l.29-3.22h1.668l.307 3.22h1.452l-1.232-12.667h-3.245v.58l.417.288-1.124 11.796h1.467v.003Zm1.034-11.435h.144l.672 6.986h-1.451l.635-6.986ZM43.963 58.043v-8.106c0-1.392-.908-2.28-2.266-2.28h-2.61v.58l.47.326v11.762h2.14c1.36 0 2.266-.906 2.266-2.28v-.002Zm-2.957-9.156h.635c.509 0 .87.344.87.887v8.432c0 .542-.361.887-.87.887h-.635V48.887ZM67.514 47.847v.583l.474.326v11.839h3.65v-1.237h-2.19v-11.51h-1.934ZM74.924 47.666c-1.425 0-2.281.873-2.281 2.148v8.798c0 1.293.856 2.167 2.134 2.167 1.44 0 2.3-.874 2.3-2.167v-8.798c0-1.275-.857-2.148-2.153-2.148Zm-.822 11.109v-9.108c0-.438.292-.764.747-.764s.766.329.766.764v9.108c0 .438-.33.764-.766.764s-.747-.328-.747-.764ZM83.718 60.595V47.847h-1.46v8.889h-.072l-1.697-8.889h-2.427v.583l.475.326v11.839h1.459v-8.704h.11l1.606 8.704h2.006ZM89.797 58.302v-8.159c0-1.403-.913-2.296-2.282-2.296h-2.627v.583l.474.329v11.839h2.153c1.368 0 2.282-.912 2.282-2.296Zm-1.46.163c0 .545-.364.893-.875.893h-.64V49.085h.64c.511 0 .875.344.875.892v8.488ZM93.208 60.78c1.44 0 2.3-.875 2.3-2.168v-8.798c0-1.275-.857-2.148-2.153-2.148-1.424 0-2.281.873-2.281 2.148v8.798c0 1.293.857 2.167 2.134 2.167Zm-.675-11.113c0-.438.292-.764.747-.764.456 0 .766.329.766.764v9.108c0 .438-.33.764-.766.764s-.747-.328-.747-.764v-9.108ZM100.692 47.847v8.889h-.074l-1.696-8.889h-2.428v.583l.474.326v11.839h1.462v-8.704h.107l1.607 8.704h2.008V47.847h-1.46ZM45.54 47.655v.58l.418.288-1.125 11.796h1.468l.289-3.22h1.668l.308 3.22h1.451l-1.232-12.667H45.54v.003Zm1.16 8.215.634-6.986h.145l.672 6.986h-1.452ZM53.086 53.537h-.09l-1.107-5.882h-1.797v.58l.563.345.07.301 1.58 6.882v4.56h1.45v-4.56l1.85-8.108h-1.45l-1.069 5.882ZM61.128 56.172c.37 0 .715-.11 1.004-.3a1.832 1.832 0 0 0-.038-3.1 1.838 1.838 0 0 0-2.806 1.56 1.84 1.84 0 0 0 1.84 1.837v.003Z"/></g><defs><clipPath id="a"><path fill="#fff" transform="translate(-.001 .569)" d="M0 0h103v85H0z"/></clipPath></defs></svg>