<svg width="222" height="199" viewBox="0 0 222 199" fill="none" xmlns="http://www.w3.org/2000/svg">
<path d="M19.8168 130.811L36.7854 127.042V76.2585H55.1744V68.7278H0.00244141L1.88522 76.2585H19.8168V130.811Z" fill="#1F305E"/>
<path fill-rule="evenodd" clip-rule="evenodd" d="M110.985 68.7379C106.895 79.4939 102.916 90.3747 97.7774 100.078C93.2982 89.7166 89.2455 78.9236 84.5856 68.7379H66.4522V128.922H76.0852V89.0296L93.7185 128.279L110.98 89.8913V90.7006C110.985 90.6926 110.985 90.6845 110.985 90.674V128.921H127.959V68.7373L110.985 68.7379Z" fill="#1F305E"/>
<path d="M221.8 51.7504H199.108C203.145 35.4908 205.289 18.4799 205.289 0.977051L191.065 6.65228C188.469 98.1707 123.155 174.041 36.4607 193.031L34.6578 198.505C73.0363 190.691 107.452 172.025 134.565 145.858H151.049L172.756 114.812L194.442 145.858H221.8L185.66 98.8281L221.8 51.7504Z" fill="#1F305E"/>
<path d="M166.829 83.6566L155.59 68.7278H136.734L159.212 97.9613C162.137 93.6564 164.931 88.5343 166.829 83.6566Z" fill="#1F305E"/>
</svg>
