<svg width="224" height="70" fill="none" xmlns="http://www.w3.org/2000/svg"><path d="M77.258 30.409c0-5.951 5.379-8.166 11.355-8.166 5.976 0 11.308 2.215 11.308 8.166v29.894c0 5.997-5.378 8.166-11.308 8.166s-11.355-2.215-11.355-8.166V30.409Zm13.056 1.153c0-1.245 0-2.953-1.701-2.953-1.7 0-1.7 1.707-1.7 2.953v27.31c0 1.246 0 2.953 1.7 2.953s1.7-1.707 1.7-2.952v-27.31Zm13.239 36.03V23.12h11.355c5.93 0 11.354 2.214 11.354 9.226v3.506a6.941 6.941 0 0 1-2.07 5.347 6.876 6.876 0 0 1-5.377 1.943c6.068.322 7.447 2.444 7.447 7.565v8.858a20.736 20.736 0 0 0 1.425 7.935h-9.791a10.74 10.74 0 0 1-1.288-5.767V51.538c0-2.768 0-4.983-3.401-4.983V67.5l-9.654.092Zm9.47-26.111h1.149c1.563 0 2.253-.692 2.253-2.815V32.07c0-2.123-.69-2.815-2.253-2.815h-1.149v12.226Zm16.503-11.072c0-5.951 5.378-8.166 11.354-8.166 5.976 0 11.309 2.215 11.309 8.166v29.894c0 5.997-5.378 8.166-11.309 8.166-5.93 0-11.354-2.215-11.354-8.166V30.409Zm13.193 1.153c0-1.245 0-2.953-1.701-2.953s-1.701 1.707-1.701 2.953v27.31c0 1.246 0 2.953 1.701 2.953s1.701-1.707 1.701-2.952v-27.31Zm13.01 36.03V23.12h12.733l4.367 28.325.046 1.062h.138V23.12h7.677v44.472h-11.906l-5.241-33.954-.046-1.245h-.091v35.199h-7.677Zm45.464-37.183c0-5.951 5.378-8.166 11.354-8.166 5.976 0 11.309 2.215 11.309 8.166v29.894c0 5.997-5.379 8.166-11.309 8.166s-11.354-2.215-11.354-8.166V30.409Zm13.055 1.153c0-1.245 0-2.953-1.701-2.953s-1.701 1.707-1.701 2.953v27.31c0 1.246 0 2.953 1.701 2.953s1.701-1.707 1.701-2.952v-27.31Zm-14.664-8.442h-17.009v6.689h3.677v37.783h9.654V29.809h3.678v-6.69ZM81.028 12.232H56.894v7.15h7.125v48.21h9.838v-48.21h7.171v-7.15Zm-24.87 56.975v-.277a43.947 43.947 0 0 0-20.18-3.552H.213v2.445h48.268c2.617.18 5.198.708 7.677 1.568M41.908 2.13 40.483.791a1.696 1.696 0 0 0-1.333 0l-2.16 1.2v10.564a17.124 17.124 0 0 1-6.85 6.32 1.611 1.611 0 0 0-.966 1.661v39.352c-1.425 0-3.723.323-3.723.323V26.903c0-1.246-.552-1.615-1.701-1.892a66.131 66.131 0 0 1-12.504-4.244v-6.828l-1.839-.922a2.382 2.382 0 0 0-1.563 0c-.781.373-1.534.805-2.252 1.291a10.682 10.682 0 0 0-3.83 3.732 10.73 10.73 0 0 0-1.549 5.126v40.69h3.632v-40.69a6.847 6.847 0 0 1 .887-3.522 6.815 6.815 0 0 1 2.56-2.568h.277v46.78h3.585V24.641c2.85 1.061 4.597 1.8 7.677 2.768l2.942.784v32.57a43.556 43.556 0 0 0-10.067 3.137H18.6a42.303 42.303 0 0 1 17.33-3.69l-3.309-.277V21.55h.368a18.908 18.908 0 0 0 4-3.275v45.58h3.723V6.326a17.57 17.57 0 0 1 3.54 10.288v47.61c1.102 0 2.482.276 3.63.599V16.523a21.768 21.768 0 0 0-5.975-14.394Z" fill="#1F305E"/></svg>