<svg width="321" height="59" fill="none" xmlns="http://www.w3.org/2000/svg"><path d="m39.272 32.407-3.274 1.965v3.926l-16.36-9.817L3.27 38.298v-3.926L.002 32.407l19.635-11.783 19.635 11.783ZM39.272 12.772l-3.274 1.966v3.925l-16.36-9.817L3.27 18.663v-3.925L.002 12.772 19.637.989l19.635 11.783Z" fill="#1F305E"/><path d="m39.272 22.59-3.274 1.965v3.926l-16.36-9.818L3.27 28.481v-3.926L.002 22.589l19.635-11.783L39.272 22.59ZM39.272 42.224l-3.274 1.966v14.4H3.271v-14.4L.002 42.224l19.635-11.783 19.635 11.783ZM69.606 57.543c-.572 0-1.116-.47-1.116-.972v-36.85H57.305c-.69 0-1.117-.502-1.117-.972v-7.457c0-.464.428-.972 1.117-.972H91.02c.689 0 1.116.502 1.116.972v7.457c0 .465-.427.972-1.116.972H79.835v36.856c0 .496-.54.972-1.117.972h-9.112v-.006ZM130.156 57.543c-1.223 0-1.731-.33-2.366-1.533l-2.82-5.581h-21.062l-2.825 5.656c-.257.55-.903 1.458-2.441 1.458h-8.354c-.46 0-.823-.17-1.004-.464-.15-.24-.145-.54.005-.839l23.764-46.032c.181-.326.609-.577.999-.577h.758c.39 0 .817.251 1.004.582l23.759 46.027c.149.3.155.593.005.839-.181.293-.545.464-1.004.464h-8.429.011Zm-22.023-15.757h12.617l-6.036-11.81a.252.252 0 0 0-.219-.133h-.176a.25.25 0 0 0-.225.139l-5.955 11.81-.006-.006ZM174.153 57.543c-.513 0-.844-.299-.929-.448L163.032 38.8h-5.763v17.771c0 .497-.54.972-1.116.972h-9.038c-.689 0-1.111-.502-1.111-.972V11.292c0-.464.427-.972 1.111-.972h22.701c8.947 0 16.222 6.48 16.222 14.443 0 5.828-4.225 10.977-11.02 13.44l-.374.133 10.608 17.717c.193.32.209.684.043.978-.181.325-.566.512-1.052.512h-10.101.011Zm-16.879-26.77h11.57c3.247 0 6.1-2.714 6.1-5.801 0-3.088-2.794-5.529-6.1-5.529h-11.57v11.33ZM196.469 57.543c-.571 0-1.111-.47-1.111-.972V11.292c0-.496.54-.972 1.111-.972h9.113c.571 0 1.116.47 1.116.972v45.285c0 .496-.539.972-1.116.972h-9.113v-.006ZM241.177 58.232c-7.265 0-14.048-2.51-19.101-7.06-5.048-4.546-7.825-10.641-7.825-17.163s2.777-12.648 7.825-17.231c5.064-4.599 11.847-7.13 19.101-7.13 7.253 0 14.053 2.531 19.143 7.13 5.069 4.588 7.863 10.704 7.863 17.231 0 6.527-2.794 12.611-7.863 17.162-5.074 4.556-11.874 7.061-19.143 7.061Zm0-38.303c-8.514 0-15.437 6.314-15.437 14.08 0 7.767 6.928 13.941 15.437 13.941s15.516-6.255 15.516-13.94c0-7.687-6.959-14.08-15.516-14.08ZM317.494 58.232c-.315 0-.576-.112-.769-.256l-29.132-26.504a.493.493 0 0 0-.822.369v24.74c0 .466-.427.973-1.117.973h-9.037c-.572 0-1.111-.47-1.111-.972l-.075-46.038c0-.48.518-.902 1.116-.902h2.094c.641 0 1.261.235 1.742.662l27.94 24.891a.493.493 0 0 0 .818-.374V11.292c0-.464.427-.972 1.116-.972h9.112c.572 0 1.117.47 1.117.972v46.032c0 .481-.518.903-1.117.903h-1.875v.005Z" fill="#1F305E"/></svg>