<svg width="406" height="46" fill="none" xmlns="http://www.w3.org/2000/svg"><path d="M151.948 23.163c0 8.057-6.673 14.742-14.746 14.765-8.256 0-14.93-6.616-14.93-14.811 0-8.127 6.674-14.788 14.815-14.788 8.211 0 14.838 6.638 14.838 14.857l.023-.023ZM133.739 15.7c-.436 2.29-.619 4.578-.665 6.913h8.073c-.046-2.335-.207-4.624-.665-6.913h-6.743Zm6.743 14.81c.435-2.311.619-4.6.665-6.912h-8.073c.069 2.335.206 4.646.665 6.913h6.743Zm-7.775-14.833h-3.371c-.275 0-.39.092-.505.343a18.104 18.104 0 0 0-1.215 4.785c-.069.595-.092 1.213-.138 1.808h4.587c.206-2.312.413-4.6.619-6.936h.023Zm8.83 14.834h3.371c.298 0 .413-.115.527-.366A18.416 18.416 0 0 0 146.559 26c.115-.801.161-1.602.229-2.45h-4.609l-.62 6.914-.022.046Zm-14.036-6.913v.297c.069 2.06.459 4.029 1.193 5.952.252.664.252.664.986.664h3.004c-.206-2.335-.413-4.601-.619-6.936h-4.564v.023Zm19.196-.985s.045-.068.045-.091c-.023-2.312-.504-4.51-1.398-6.639-.046-.091-.253-.183-.367-.183h-3.44c.206 2.335.412 4.624.619 6.936h4.518l.023-.023Zm-12.751 8.882c.16.595.275 1.122.458 1.648.39 1.168.78 2.312 1.606 3.25.711.802 1.513.825 2.201 0 .413-.503.757-1.098 1.055-1.693.482-1.007.78-2.083 1.032-3.205h-6.352Zm6.329-16.78c-.092-.388-.16-.732-.275-1.075-.252-.733-.459-1.488-.803-2.175a9.413 9.413 0 0 0-1.169-1.808c-.528-.618-1.262-.573-1.858 0-.137.137-.298.274-.413.435-.986 1.373-1.422 2.976-1.834 4.624h6.352Zm5.986.962c.917 2.244 1.33 4.556 1.422 6.936h3.325a17.223 17.223 0 0 0-.092-1.167c-.229-1.992-.894-3.846-1.949-5.563-.046-.091-.183-.183-.275-.183h-2.454l.023-.023Zm-19.7 6.936c.069-2.403.505-4.692 1.422-6.936h-2.225c-.275 0-.435.069-.573.32-.78 1.351-1.353 2.77-1.674 4.281-.161.756-.23 1.557-.321 2.358h3.371v-.023Zm21.122.985c-.092 2.403-.505 4.692-1.422 6.936h2.431c.114 0 .275-.138.344-.275a13.61 13.61 0 0 0 1.697-4.28c.16-.779.229-1.58.344-2.381h-3.394Zm-19.7 6.936c-.917-2.244-1.33-4.556-1.422-6.936h-3.302v.183c.114 2.358.802 4.555 2.018 6.57a.58.58 0 0 0 .229.183h2.477Zm1.468-15.818h3.508c.276-.893.482-1.809.826-2.656.321-.847.757-1.648 1.147-2.472-2.523.916-4.174 2.77-5.481 5.128Zm11.787 0h3.555c-1.307-2.358-2.958-4.235-5.619-5.174 1.124 1.626 1.629 3.365 2.064 5.174Zm-11.787 16.78c1.307 2.357 2.958 4.234 5.618 5.173-1.146-1.626-1.628-3.388-2.064-5.174h-3.554Zm11.787 0c-.435 1.785-.94 3.547-2.064 5.173 2.661-.962 4.312-2.839 5.619-5.174h-3.555Zm6.972-.024c-.665 0-1.261.023-1.834 0-.39-.023-.597.092-.757.458-.551 1.122-1.285 2.129-2.133 3.045-.275.297-.551.595-.78.87 2.179-.94 4.014-2.381 5.55-4.35l-.046-.023Zm-16.604-21.06c-2.224.939-4.059 2.358-5.572 4.327h2.155a.377.377 0 0 0 .298-.184c.803-1.556 1.812-2.93 3.119-4.12v-.023Zm16.535 4.327c-.733-1.42-4.265-4.167-5.55-4.327 1.583 1.511 2.11 2.22 3.142 4.098.046.091.184.229.276.229h2.132Zm-16.489 21.037s-.183-.16-.252-.23c-.963-.892-1.835-1.876-2.408-3.044-.413-.87-.94-1.19-1.835-1.03-.344.046-.688 0-1.123 0 1.536 1.969 3.371 3.411 5.618 4.304Z" fill="#1F305E"/><path d="M137.202 38.202c-4.059 0-7.889-1.556-10.756-4.418a14.944 14.944 0 0 1-4.449-10.69c0-4.006 1.583-7.783 4.449-10.645 2.867-2.86 6.651-4.44 10.664-4.44 8.348 0 15.136 6.798 15.136 15.154 0 8.149-6.88 15.04-15.021 15.04h-.023Zm-.092-29.621a14.45 14.45 0 0 0-10.274 4.258c-2.752 2.747-4.265 6.386-4.265 10.255 0 3.891 1.513 7.554 4.288 10.278 2.752 2.747 6.444 4.235 10.343 4.235 7.843 0 14.471-6.638 14.448-14.467 0-8.035-6.536-14.582-14.563-14.582l.023.023Zm.023 28.706c-.458 0-.917-.252-1.33-.71-.894-1.007-1.33-2.312-1.674-3.342-.115-.366-.206-.733-.321-1.122l-.229-.893h7.063l-.069.344c-.206.915-.504 2.129-1.055 3.273-.344.733-.711 1.305-1.1 1.763-.39.458-.803.687-1.262.71l-.023-.023Zm-2.821-5.517.046.183c.092.39.184.732.299 1.099.412 1.259.802 2.289 1.559 3.159.206.229.55.526.917.526.276 0 .574-.183.849-.503.344-.412.688-.962 1.009-1.626.459-.961.734-1.968.94-2.792h-5.619v-.046Zm4.129 5.47.504-.732c1.101-1.602 1.582-3.319 2.018-5.082l.046-.228h4.266l-.23.434c-1.513 2.747-3.348 4.441-5.756 5.311l-.848.298Zm3.027-5.47c-.344 1.42-.78 2.884-1.56 4.28 1.789-.846 3.165-2.197 4.403-4.28h-2.843Zm-5.665 5.47-.848-.297c-2.431-.87-4.22-2.495-5.78-5.31l-.229-.435h4.266l.046.228c.458 1.855.917 3.526 2.018 5.082l.527.733Zm-5.871-5.47c1.239 2.106 2.638 3.456 4.403 4.28-.779-1.35-1.192-2.815-1.559-4.28h-2.844Zm3.096 4.853-1.49-.595c-2.248-.893-4.106-2.312-5.734-4.395l-.367-.458h1.674c1.032-.184 1.675.206 2.156 1.19.459.984 1.193 1.923 2.339 2.953l1.445 1.305h-.023Zm-6.375-4.853c1.078 1.259 2.247 2.266 3.577 2.999-.665-.733-1.146-1.42-1.49-2.152-.367-.756-.78-1.007-1.537-.87-.183.023-.367.023-.55.023Zm14.906 4.853 1.078-1.19c.184-.207.39-.435.597-.664.894-.962 1.582-1.923 2.087-2.976.229-.458.527-.641 1.055-.618.389.023.779 0 1.215 0h1.17l-.344.457c-1.56 2.015-3.395 3.457-5.665 4.441l-1.215.527.022.023Zm4.725-4.876c-.207 0-.298.069-.413.297-.482 1.008-1.124 1.923-1.949 2.839a13.33 13.33 0 0 0 3.692-3.136H146.284Zm-1.376-.916H141.307l-.046-.32.642-7.165h5.183v.32a8.839 8.839 0 0 0-.091.756c-.046.55-.092 1.121-.184 1.694a18.033 18.033 0 0 1-1.146 4.189c-.115.274-.276.55-.757.55v-.024Zm-1.353-.595h1.353c.16 0 .183 0 .252-.183a18.51 18.51 0 0 0 1.101-4.075c.069-.55.115-1.076.16-1.648 0-.16.023-.297.046-.458h-4.036l-.573 6.364H143.578h-.023Zm3.967.572h-1.674l.161-.389c.848-2.106 1.307-4.35 1.399-6.844V23.3h3.99l-.046.32a8.459 8.459 0 0 0-.092.756c-.068.55-.137 1.099-.252 1.648a13.368 13.368 0 0 1-1.72 4.372c-.092.138-.321.39-.573.412h-1.193Zm-.825-.572h1.995s.069-.069.114-.137a13.18 13.18 0 0 0 1.652-4.166c.114-.527.16-1.053.229-1.603 0-.137.046-.297.046-.435h-2.775c-.115 2.29-.528 4.372-1.284 6.364l.023-.023Zm-13.692.572h-3.325c-.849 0-.963-.068-1.261-.847-.757-1.922-1.147-3.96-1.216-6.043v-.595h5.114l.665 7.508.023-.023Zm-5.206-6.913a18.013 18.013 0 0 0 1.17 5.86c.122.32.359.481.711.481h2.706l-.573-6.364h-4.014v.023Zm-.963 6.913h-1.33c-.206 0-.39-.16-.482-.32a14.177 14.177 0 0 1-2.064-6.707V23.369l.299-.069h3.577v.275c.115 2.54.574 4.761 1.422 6.821l.161.39h-1.56l-.023.022Zm-3.302-6.913c.114 2.266.779 4.372 1.972 6.318.619.046 1.216.046 1.881.046h.16c-.734-1.946-1.169-4.029-1.284-6.364h-2.729Zm17.2 6.913h-7.201l-.046-.229c-.505-2.472-.619-4.921-.688-6.959v-.297h8.646v.297c-.046 2.633-.252 4.853-.665 6.96l-.046.228Zm-6.743-.572h6.261c.367-1.946.551-3.96.597-6.34h-7.477c.046 1.9.184 4.097.619 6.34Zm12.706-7.325h-4.794l-.665-7.509h3.739c.183 0 .527.115.619.367a17.747 17.747 0 0 1 1.422 6.753v.068l-.138.275-.206.046h.023Zm-4.266-.572h4.013a16.937 16.937 0 0 0-1.376-6.341h-3.21l.573 6.363v-.022Zm-15.595.572h-3.967l.046-.32c.022-.252.068-.504.091-.733.069-.527.138-1.076.23-1.625.298-1.488.871-2.953 1.697-4.373.183-.32.435-.457.825-.457h2.638l-.161.389c-.848 2.129-1.307 4.372-1.399 6.844v.275Zm-3.325-.572h2.775c.092-2.29.527-4.373 1.261-6.364h-1.812c-.16 0-.229.023-.321.183-.802 1.373-1.353 2.77-1.628 4.189-.092.504-.161 1.03-.229 1.58 0 .137-.046.274-.046.434v-.022Zm27.818.549h-3.921v-.275c-.092-2.495-.551-4.738-1.399-6.821l-.161-.39h2.867c.206 0 .413.16.504.32a13.678 13.678 0 0 1 1.973 5.678c.022.275.045.527.068.824l.046.687.023-.023Zm-3.371-.572h2.752v-.069l-.069-.801a13.24 13.24 0 0 0-1.903-5.448s-.046-.046-.069-.046h-1.972c.756 1.969 1.169 4.052 1.284 6.364h-.023Zm-15.618.572h-5.16v-.298c.023-.183.046-.389.046-.572 0-.412.046-.847.092-1.259.206-1.694.619-3.32 1.238-4.853.138-.366.367-.526.757-.526h3.692l-.688 7.485.023.023Zm-4.541-.572h4.014l.573-6.341h-3.05c-.138 0-.161 0-.229.16a17.627 17.627 0 0 0-1.193 4.693c-.046.412-.069.824-.092 1.236v.275l-.023-.023Zm13.646.572h-8.646v-.298c.046-2.632.275-4.853.665-6.959l.046-.229h7.224l.046.23c.39 1.99.596 4.143.665 6.958v.298Zm-8.05-.572h7.476c-.068-2.518-.252-4.51-.619-6.341h-6.261c-.344 1.923-.55 3.96-.596 6.34Zm-6.284-7.303h-1.651l.344-.457c1.537-2.015 3.417-3.457 5.688-4.419l1.536-.64-1.215 1.121c-1.216 1.099-2.225 2.427-3.05 4.052a.69.69 0 0 1-.551.343h-1.101Zm-.481-.572h1.559s.046-.023.046-.046c.573-1.121 1.239-2.129 2.018-2.998-1.376.778-2.568 1.785-3.623 3.067v-.023Zm20.479.572h-1.1c-.253 0-.459-.252-.528-.366-1.009-1.854-1.536-2.518-3.073-4.029l-.619-.595.871.114c1.376.184 4.977 2.976 5.757 4.487l.229.412h-1.537v-.023Zm-3.279-3.777c.871.939 1.376 1.694 2.156 3.114 0 .045.068.068.091.091h1.56c-.757-1.007-2.477-2.427-3.784-3.205h-.023Zm-2.798 3.777-.046-.229c-.413-1.694-.894-3.48-2.018-5.081l-.505-.733.849.298c2.431.87 4.22 2.518 5.779 5.31l.23.435h-4.289Zm.436-.572h2.843c-1.238-2.106-2.637-3.457-4.403-4.28.803 1.396 1.216 2.86 1.56 4.28Zm-8.302.572h-4.22l.229-.435c1.537-2.747 3.326-4.418 5.642-5.265l.642-.229-.298.619c-.115.251-.252.503-.367.755-.275.55-.55 1.122-.78 1.694-.229.572-.39 1.167-.573 1.808-.069.275-.161.573-.252.847l-.069.206h.046Zm-3.234-.572h2.798c.069-.206.115-.412.184-.64.183-.619.344-1.237.573-1.855.229-.595.504-1.19.803-1.74 0-.023.022-.046.045-.069-1.743.802-3.164 2.198-4.403 4.304Zm10.733.55h-7.063l.091-.367c.436-1.763.895-3.342 1.881-4.715.137-.184.298-.367.436-.481.367-.344.802-.527 1.215-.504.39 0 .734.206 1.032.55a8.367 8.367 0 0 1 1.216 1.854c.275.55.458 1.144.642 1.717l.16.48c.092.23.138.481.207.733.023.114.045.229.091.343l.092.366v.023Zm-6.353-.573h5.596a7.579 7.579 0 0 0-.183-.687l-.161-.503c-.183-.55-.367-1.122-.619-1.648a8.119 8.119 0 0 0-1.124-1.74c-.183-.23-.412-.344-.642-.344-.229 0-.55.115-.803.344-.114.114-.252.252-.366.412-.849 1.213-1.285 2.61-1.698 4.166ZM333.008 22.247h18.714c-6.009-6.066-11.971-12.064-17.934-18.084-1.147-1.168-2.248-2.404-3.371-3.594h-18.943c3.875 3.914 7.751 7.852 11.65 11.766 3.211 3.228 6.444 6.478 9.907 9.912h-.023ZM333.536 22.247c-.597.412-1.17.824-1.675 1.328-6.811 6.707-13.599 13.46-20.387 20.19-.298.297-.574.664-.872.984h18.943c2.867-2.907 5.688-5.837 8.577-8.721 4.541-4.533 9.105-9.043 13.646-13.552.091-.069.16-.16.229-.229h-18.484.023ZM386.397 22.247h19.058L383.668.569h-18.622c1.95 2.014 3.876 4.052 5.825 6.043a5002.846 5002.846 0 0 0 15.526 15.635Z" fill="#1F305E"/><path d="M386.879 22.247a96.085 96.085 0 0 0-2.798 2.587c-6.284 6.203-12.567 12.453-18.851 18.68-.39.388-.688.823-1.055 1.235h18.943c.917-1.007 1.789-2.06 2.752-3.021 6.536-6.502 13.095-13.003 19.654-19.504h-18.668l.023.023ZM306.222 22.247h18.943c-7.178-7.142-14.494-14.399-21.81-21.678h-18.622c.367.458.688.961 1.101 1.373a8512.61 8512.61 0 0 0 20.388 20.305ZM306.176 22.247c-2.477 2.495-4.839 4.876-7.224 7.257l-14.104 14.01c-.367.365-.665.823-1.009 1.258h18.622c7.361-7.462 14.7-14.925 22.199-22.502h-18.484v-.023ZM359.405 22.247c-7.408 7.508-14.838 14.994-22.269 22.502h18.943c7.339-7.302 14.655-14.605 21.993-21.884.253-.252.551-.435.849-.618h-19.539.023Z" fill="#1F305E"/><path d="m378.6 22.247-10.068-10.05c-3.876-3.868-7.728-7.76-11.581-11.628h-18.943c7.224 7.234 14.448 14.49 21.626 21.678H378.6ZM192.747 1.507a.748.748 0 0 1 .527-.229h7.316c.207 0 .39.07.528.23.137.137.206.32.206.526V44.2c0 .206-.069.389-.206.526a.728.728 0 0 1-.528.206h-7.063c-.413 0-.711-.16-.872-.503l-16.191-26.692c-.092-.114-.16-.183-.252-.16-.092 0-.138.115-.138.275l.138 26.325c0 .206-.069.39-.229.526a.767.767 0 0 1-.528.206h-7.316a.742.742 0 0 1-.756-.733V2.057a.66.66 0 0 1 .229-.526c.16-.137.321-.229.527-.229h7.064c.413 0 .711.16.871.504l16.123 26.577c.091.114.16.183.252.16.092 0 .115-.114.115-.275l-.069-26.187c0-.206.069-.39.229-.527l.023-.046ZM239.692 1.507c.137.138.206.32.206.527v6.112c0 .206-.069.389-.206.526a.728.728 0 0 1-.528.206h-11.191c-.207 0-.321.092-.321.32V44.2c0 .206-.069.389-.207.526a.726.726 0 0 1-.527.206h-7.316a.743.743 0 0 1-.757-.732V9.222c0-.206-.091-.32-.298-.32h-10.87a.747.747 0 0 1-.757-.733V2.057c0-.206.069-.39.229-.527a.748.748 0 0 1 .528-.229h31.487c.207 0 .39.07.528.23v-.024ZM245.746 44.75a.727.727 0 0 1-.206-.527V2.057c0-.206.069-.39.206-.527a.748.748 0 0 1 .528-.229h15.617c3.119 0 5.871.55 8.211 1.649 2.362 1.098 4.174 2.655 5.458 4.646 1.284 1.992 1.949 4.304 1.949 6.937v17.214c0 2.632-.642 4.922-1.949 6.936-1.284 1.992-3.119 3.548-5.458 4.647-2.362 1.099-5.092 1.648-8.211 1.648h-15.617a.728.728 0 0 1-.528-.206v-.023Zm8.898-7.326h7.569c1.926 0 3.462-.641 4.655-1.923s1.812-3.022 1.835-5.173V15.975c0-2.152-.597-3.892-1.789-5.174-1.193-1.282-2.775-1.945-4.77-1.945h-7.5c-.206 0-.298.091-.298.32v27.95c0 .206.092.32.298.32v-.022ZM7.811 43.72c-2.316-1.191-4.105-2.862-5.366-5.06C1.161 36.485.542 33.967.542 31.152V14.99c0-2.815.642-5.31 1.903-7.462 1.261-2.152 3.05-3.8 5.366-4.99C10.105 1.348 12.765.775 15.77.775c3.005 0 5.642.572 7.935 1.717 2.294 1.144 4.06 2.747 5.344 4.83 1.261 2.083 1.903 4.487 1.903 7.234v.068a.753.753 0 0 1-.183.504.574.574 0 0 1-.436.183l-4.747.252c-.413 0-.62-.183-.62-.573v-.183c0-2.655-.825-4.807-2.5-6.432-1.673-1.625-3.898-2.427-6.696-2.427-2.797 0-5.022.802-6.72 2.427C7.354 10 6.528 12.129 6.528 14.807v16.597c0 2.655.849 4.807 2.523 6.432 1.697 1.625 3.921 2.427 6.72 2.427 2.797 0 5.022-.825 6.696-2.427 1.674-1.625 2.5-3.754 2.5-6.432v-.115c0-.366.206-.572.619-.572l4.747.252c.413 0 .62.206.62.618 0 2.747-.643 5.173-1.904 7.256-1.284 2.106-3.05 3.731-5.344 4.899-2.293 1.168-4.93 1.74-7.935 1.74-3.004 0-5.664-.595-7.958-1.786v.023ZM45.835 43.627c-2.34-1.236-4.15-2.998-5.435-5.265-1.284-2.266-1.926-4.875-1.926-7.828V15.677c0-2.953.642-5.54 1.926-7.806 1.284-2.243 3.096-3.983 5.435-5.242C48.175 1.37 50.858.752 53.908.752c3.05 0 5.779.618 8.118 1.877 2.34 1.26 4.151 2.999 5.435 5.242 1.285 2.244 1.927 4.853 1.927 7.806v14.857c0 2.953-.642 5.562-1.927 7.828-1.284 2.267-3.096 4.03-5.435 5.265-2.34 1.26-5.045 1.878-8.118 1.878-3.073 0-5.734-.618-8.073-1.878Zm14.93-5.928c1.743-1.74 2.614-4.052 2.614-6.936V15.608c0-2.907-.871-5.242-2.614-7.004-1.743-1.763-4.037-2.656-6.88-2.656-2.844 0-5.114.87-6.834 2.656-1.72 1.762-2.592 4.097-2.592 7.005v15.154c0 2.861.872 5.173 2.592 6.936 1.72 1.762 4.013 2.61 6.834 2.61 2.82 0 5.114-.87 6.88-2.61ZM102.756 44.497l-8.76-18.656c-.046-.137-.138-.183-.253-.183h-8.99c-.16 0-.252.091-.252.252v18.404c0 .412-.206.618-.62.618h-4.746c-.413 0-.62-.206-.62-.618V1.897c0-.413.207-.619.62-.619h16.81c2.5 0 4.701.527 6.582 1.557 1.88 1.03 3.371 2.495 4.403 4.372 1.032 1.877 1.559 4.03 1.559 6.479 0 2.907-.756 5.38-2.27 7.393-1.514 2.015-3.624 3.389-6.353 4.075-.16.092-.206.183-.114.32L108.81 44.2s.069.183.069.297c0 .298-.16.435-.504.435h-4.931c-.321 0-.573-.137-.688-.435ZM84.501 6.681v13.964c0 .16.092.251.252.251h10.435c2.202 0 3.968-.663 5.321-1.968 1.353-1.305 1.995-3.045 1.995-5.197 0-2.151-.665-3.983-1.995-5.31-1.33-1.328-3.097-1.992-5.321-1.992H84.753c-.16 0-.252.092-.252.252Z" fill="#1F305E"/></svg>