<svg width="309" height="47" fill="none" xmlns="http://www.w3.org/2000/svg"><path d="M14.065 46.659C7.79 46.659.006 43.274.006 30.519s7.784-16.08 14.059-16.08c4.343 0 7.602 1.33 10.377 4.232l-5.31 5.32c-1.629-1.754-3.016-2.479-5.07-2.479-1.869 0-3.318.665-4.464 2.055-1.206 1.512-1.75 3.627-1.75 6.952s.544 5.5 1.75 7.011c1.146 1.39 2.595 2.055 4.465 2.055 2.051 0 3.438-.725 5.069-2.478l5.31 5.26c-2.775 2.902-6.034 4.292-10.377 4.292ZM49.842 42.788c-1.931 2.056-5.129 3.869-9.775 3.869-4.646 0-7.784-1.813-9.715-3.868-2.837-2.962-3.56-6.529-3.56-12.272 0-5.744.723-9.248 3.56-12.212 1.931-2.055 5.069-3.868 9.715-3.868s7.844 1.813 9.775 3.868c2.837 2.962 3.56 6.528 3.56 12.212 0 5.683-.724 9.308-3.56 12.271Zm-6.095-19.886c-.905-.906-2.111-1.39-3.68-1.39s-2.715.484-3.62 1.39c-1.628 1.632-1.81 4.352-1.81 7.617 0 3.265.182 6.045 1.81 7.676.905.907 2.051 1.39 3.62 1.39s2.775-.483 3.68-1.39c1.628-1.631 1.81-4.413 1.81-7.676s-.182-5.985-1.81-7.617ZM68.427 46.295c-6.456 0-9.17-4.533-9.17-9.006V3.256H67.1v33.55c0 1.873.783 2.841 2.775 2.841h3.017v6.65h-4.465v-.002ZM86.712 46.295c-6.457 0-9.171-4.533-9.171-9.006V3.256h7.843v33.55c0 1.873.784 2.841 2.775 2.841h3.017v6.65h-4.464v-.002ZM100.762 32.997c0 4.05 2.474 7.012 6.877 7.012 3.44 0 5.129-.967 7.12-2.962l4.766 4.655c-3.197 3.203-6.275 4.957-11.946 4.957-7.421 0-14.54-3.385-14.54-16.14 0-10.277 5.55-16.08 13.695-16.08 8.748 0 13.696 6.408 13.696 15.051v3.507h-19.67.002Zm11.222-8.765c-.845-1.873-2.595-3.265-5.248-3.265s-4.405 1.39-5.248 3.265c-.483 1.149-.664 1.995-.724 3.385h11.946c-.06-1.39-.241-2.236-.724-3.385h-.002ZM138.836 46.659c-6.275 0-14.059-3.385-14.059-16.14s7.784-16.08 14.059-16.08c4.343 0 7.602 1.33 10.377 4.232l-5.308 5.32c-1.629-1.754-3.018-2.479-5.069-2.479-1.87 0-3.319.665-4.465 2.055-1.208 1.512-1.75 3.627-1.75 6.952s.542 5.5 1.75 7.011c1.146 1.39 2.595 2.055 4.465 2.055 2.051 0 3.44-.725 5.069-2.478l5.308 5.26c-2.775 2.902-6.034 4.292-10.377 4.292ZM163.817 46.295c-6.394 0-9.111-4.533-9.111-9.006V21.692h-3.319v-5.985h3.319V6.4h7.844v9.308h5.551v5.985h-5.551v15.111c0 1.814.845 2.842 2.716 2.842h2.837v6.65h-4.286ZM173.774 9.42V3.014h8.025V9.42h-8.025Zm.121 36.875V14.802h7.844v31.493h-7.844ZM202.736 46.295h-6.155l-11.585-31.493h8.266l6.394 19.465 6.335-19.465h8.266l-11.525 31.493h.004ZM225.182 18.489v27.838h-4.61V18.49h-4.033v-3.527h4.033V8.997c0-4.683 2.625-8.467 8.003-8.467h3.328v3.978h-2.497c-2.944 0-4.226 1.731-4.226 4.619v5.837h6.723v3.527h-6.723l.002-.002ZM237.987 5.788V.592h5.184v5.196h-5.184Zm.257 40.54v-31.56h4.61v31.56h-4.61ZM270.97 46.327v-3.784c-2.562 3.335-5.506 4.17-8.962 4.17-3.201 0-6.018-1.09-7.684-2.758-3.201-3.207-3.841-8.468-3.841-13.406 0-4.939.64-10.199 3.841-13.406 1.664-1.668 4.481-2.758 7.684-2.758 3.456 0 6.336.77 8.898 4.042V.66h4.61v45.67h-4.544l-.002-.003Zm-7.94-27.838c-6.851 0-7.939 5.901-7.939 12.06 0 6.159 1.088 12.058 7.939 12.058s7.874-5.901 7.874-12.058-1.025-12.06-7.874-12.06ZM287.627 31.765c0 6.928 3.265 10.904 9.283 10.904 3.65 0 5.763-1.09 8.26-3.593l3.137 2.758c-3.201 3.207-6.145 4.875-11.523 4.875-8.323 0-13.765-5.003-13.765-16.164 0-10.199 4.931-16.164 12.932-16.164 8.001 0 12.933 5.901 12.933 15.267v2.117h-21.257Zm15.685-8.723c-1.216-2.886-4.034-4.747-7.363-4.747-3.329 0-6.145 1.86-7.363 4.747-.704 1.731-.831 2.694-.961 5.26h16.646c-.127-2.566-.257-3.529-.961-5.26h.002Z" fill="#1F305E"/></svg>