<svg width="222" height="199" fill="none" xmlns="http://www.w3.org/2000/svg"><path d="m19.817 130.811 16.968-3.769V76.258h18.39v-7.53H.001l1.883 7.53h17.932v54.553Z" fill="#1F305E"/><path fill-rule="evenodd" clip-rule="evenodd" d="M110.985 68.738c-4.09 10.756-8.069 21.637-13.208 31.34-4.479-10.361-8.531-21.154-13.191-31.34H66.452v60.184h9.633V89.03l17.634 39.249 17.261-38.388v.81c.005-.008.005-.016.005-.027v38.247h16.974V68.737h-16.974Z" fill="#1F305E"/><path d="M221.8 51.75h-22.692c4.037-16.26 6.181-33.27 6.181-50.773l-14.224 5.675c-2.596 91.519-67.91 167.389-154.604 186.379l-1.803 5.474c38.378-7.814 72.794-26.48 99.907-52.647h16.484l21.707-31.046 21.686 31.046H221.8l-36.14-47.03L221.8 51.75Z" fill="#1F305E"/><path d="m166.829 83.657-11.239-14.93h-18.856l22.478 29.234c2.925-4.305 5.719-9.427 7.617-14.304Z" fill="#1F305E"/></svg>