<svg width="270" height="72" viewBox="0 0 270 72" fill="none" xmlns="http://www.w3.org/2000/svg">
<path d="M242.775 0.851196C242.66 1.34243 242.545 1.78195 242.43 2.27319C242.404 2.40246 242.353 2.57051 242.302 2.69979C242.11 3.10053 241.982 3.61762 241.816 3.87616C241.752 3.99251 241.675 4.28983 241.611 4.43203C241.189 5.25937 240.869 5.78939 240.433 6.38404C240.242 6.65551 239.947 6.90113 239.717 7.13382C239.461 7.40529 239.256 7.75432 238.975 7.99994C238.667 8.25848 238.322 8.42654 238.028 8.69801C237.848 8.90484 237.58 9.0729 237.362 9.17632C236.837 9.56413 236.198 9.82267 235.442 9.74511C235.135 9.71926 234.79 9.44778 234.649 9.30559C234.47 9.1246 234.24 8.91777 234.112 8.73679C234.099 8.73679 234.086 8.73679 234.073 8.73679C234.048 9.61584 234.137 9.80975 234.048 10.3139C233.996 10.5725 233.702 11.3093 233.638 11.5032C233.548 11.7618 233.51 11.8393 233.382 12.0591C233.152 12.4598 232.934 12.8347 232.653 13.1579C232.371 13.4681 231.987 13.7008 231.693 13.9206C231.514 14.0628 231.45 14.0499 231.386 14.0369C231.347 14.0369 231.296 14.0369 231.232 14.0369C231.104 14.0628 230.874 14.2309 230.72 14.205C230.528 14.1791 229.812 13.856 229.658 13.7913C229.236 13.6233 228.801 13.1967 228.276 12.7054C227.854 12.3176 227.534 11.9169 227.38 11.5937C227.265 11.361 227.06 11.2576 226.919 10.9215C226.907 10.9086 226.894 10.8956 226.868 10.8956C226.971 11.3739 227.099 11.7618 227.163 12.3306C227.188 12.5503 227.239 12.7701 227.239 12.9898C227.239 13.0803 227.188 13.2096 227.201 13.3647C227.201 13.494 227.265 13.6103 227.252 13.7784C227.252 13.9982 227.227 14.2308 227.175 14.4765C227.111 14.8255 227.111 15.0323 227.099 15.265C227.06 15.5236 226.945 15.8468 226.945 15.9372C226.945 16.1311 226.945 16.3897 226.919 16.5965C226.881 16.7775 226.817 17.0102 226.817 17.1395C226.817 17.3592 226.817 17.6436 226.779 17.8505C226.74 18.0056 226.74 18.1219 226.715 18.2641C226.715 18.29 226.715 18.458 226.715 18.4968C226.702 18.5615 226.651 18.7037 226.638 18.82C226.612 19.0139 226.523 19.2725 226.51 19.5051C226.484 19.9576 226.459 20.6169 226.28 21.1598C226.113 21.6769 225.921 21.9355 225.742 22.3362C225.665 22.5301 225.576 22.724 225.512 22.9309C225.371 23.5384 225.166 23.9909 225.102 24.1589C225.038 24.2624 224.974 24.3529 224.897 24.4433C224.757 24.5985 224.577 24.7536 224.449 24.8829C224.334 24.9863 224.27 24.9863 224.194 24.9863C224.155 24.9863 224.117 24.9863 224.078 24.9863C223.989 25.0121 223.95 25.0768 223.835 25.0768C223.733 25.0509 223.528 25.0121 223.49 25.0121C223.323 25.0121 223.055 24.9475 222.85 24.8699C222.811 24.857 222.709 24.7924 222.619 24.7924C222.351 24.7924 221.647 24.6372 221.391 24.4692C221.225 24.3658 221.109 24.2494 220.789 24.0685C220.482 23.9004 220.226 23.7582 220.034 23.6289C219.868 23.5126 219.676 23.4221 219.497 23.3316C219.318 23.2282 219.254 23.0989 219.126 23.0084C218.972 22.8792 218.78 22.8145 218.652 22.6723C218.524 22.543 218.307 22.3362 218.166 22.2199C217.82 21.9613 217.539 21.8191 217.219 21.5347C216.976 21.315 216.771 21.0564 216.553 20.8237C216.451 20.7074 216.336 20.6169 216.246 20.5005C216.157 20.3454 216.042 20.1903 215.952 20.0352C215.798 19.8413 215.619 19.6344 215.53 19.4017C215.53 19.4017 215.53 19.3888 215.504 19.3759C215.478 19.7249 215.568 20.3454 215.351 20.6298C215.21 20.8108 214.89 20.9788 214.544 21.121C214.237 21.2503 213.943 21.3537 213.7 21.3667C213.367 21.3796 212.983 21.2374 212.599 21.121C212.382 21.0693 212.177 21.0047 211.959 20.953C211.754 20.8496 211.23 20.7979 210.807 20.6945C210.641 20.6427 210.462 20.6169 210.334 20.5781C210.168 20.5523 209.937 20.4876 209.771 20.4359C209.464 20.3325 208.939 20.2032 208.76 20.1257C208.491 19.9964 208.274 19.9447 207.954 19.7895C207.851 19.7378 207.621 19.6861 207.518 19.6344C207.327 19.5827 207.135 19.4922 206.955 19.4147C206.175 19.0786 205.266 18.7295 204.895 18.5098C204.869 18.4968 204.831 18.458 204.805 18.4322C204.716 18.4063 204.613 18.3676 204.549 18.3288C204.332 18.1995 203.846 17.9668 203.474 17.7858C203.244 17.6695 202.963 17.5014 202.745 17.3851C202.489 17.2429 202.195 17.049 202.092 16.9714C202.08 16.9585 202.054 16.9585 202.041 16.9456C202.182 17.1912 202.297 17.3205 202.387 17.4885C202.809 18.2254 203.129 18.8071 203.922 19.7378C204.114 19.9576 204.294 20.1515 204.473 20.3842C204.652 20.6169 204.805 20.8754 204.933 21.1469C205.164 21.5994 205.228 21.5347 205.305 21.7416C205.42 22.0647 205.548 22.375 205.688 22.6982C205.714 22.7628 205.791 22.8533 205.816 22.9179C205.88 23.0601 205.906 23.2411 205.932 23.4092C206.008 23.8487 206.072 24.2365 206.111 24.6114C206.124 24.857 206.252 25.206 206.2 25.4C206.149 25.6326 206.136 25.9041 205.944 26.0851C205.752 26.2661 205.381 26.5117 205.113 26.5505C204.946 26.5763 204.793 26.5505 204.639 26.5505C204.498 26.5505 204.358 26.5246 204.23 26.5505C204.23 26.5505 204.204 26.5505 204.191 26.5634C204.562 26.6797 204.524 26.7702 204.741 26.9254C204.908 27.0417 205.087 27.1322 205.279 27.2356C205.445 27.3132 205.932 27.7527 206.111 27.9466C206.316 28.2181 206.52 28.5671 206.699 28.8515C206.853 29.1101 207.237 29.6272 207.288 29.8211C207.518 30.545 207.288 30.7518 207.608 31.2818C207.698 31.3335 207.621 31.3852 207.557 31.4628C207.48 31.4499 207.416 31.4628 207.365 31.4887C207.237 31.5404 207.122 31.6696 206.917 31.8118C206.674 31.9928 206.418 32.0704 206.2 32.1997C206.111 32.2514 206.047 32.3806 205.906 32.4194C205.804 32.4453 205.676 32.4194 205.548 32.4065C205.458 32.3936 205.356 32.3677 205.266 32.3806C205.177 32.3806 205.01 32.4324 204.908 32.4453C204.69 32.4711 204.575 32.4324 204.473 32.3936C204.383 32.3677 204.306 32.3289 204.191 32.3289C204.025 32.3289 203.833 32.3806 203.628 32.3548C203.551 32.3419 203.385 32.2772 203.244 32.2643C203.167 32.2643 203.116 32.2643 203.052 32.2772C202.988 32.2902 202.911 32.3031 202.809 32.2902C202.899 32.3806 203.103 32.316 203.27 32.4194C203.359 32.4711 203.538 32.6004 203.73 32.6521C203.782 32.6521 203.833 32.6521 203.897 32.6521C203.986 32.6521 204.089 32.6521 204.153 32.6909C204.358 32.8202 204.575 33.0141 204.844 33.1563C205.138 33.3114 205.42 33.3631 205.65 33.5699C205.714 33.6346 205.804 33.7639 205.88 33.8285C206.021 33.919 206.226 34.0095 206.354 34.1129C206.456 34.1905 206.546 34.2809 206.661 34.3714C207.071 34.6688 207.045 34.7722 207.263 34.9532C207.467 35.1212 207.672 35.2117 207.877 35.4056C207.928 35.4573 208.03 35.5866 208.094 35.6383C208.184 35.7029 208.376 35.8064 208.427 35.8322C208.606 35.9873 208.721 36.1554 208.862 36.3234C208.99 36.4786 209.144 36.582 209.285 36.75C209.4 36.8922 209.566 36.9957 209.707 37.1249C210.142 37.5257 210.692 38.0298 210.859 38.5857C210.961 38.883 210.91 39.064 210.91 39.2321C210.923 39.3096 210.974 39.426 210.974 39.5035C210.974 39.6199 210.923 39.7491 210.82 39.8138C210.782 39.9689 210.667 40.0853 210.615 40.137C210.385 40.3826 210.027 40.6541 209.848 40.7704C209.732 40.848 209.464 40.9514 209.349 41.0289C209.169 41.1582 208.926 41.365 208.721 41.4297C208.619 41.4685 208.389 41.5073 208.274 41.5848C207.826 41.7399 207.621 41.8304 207.147 42.1536C207.032 42.2312 206.866 42.3475 206.738 42.4251C206.495 42.5673 206.213 42.8129 205.983 42.9034C205.599 43.0585 205.253 43.2266 204.869 43.3688C204.562 43.4851 204.204 43.6661 203.858 43.7049C203.564 43.7437 203.308 43.7049 203.065 43.7049C202.899 43.7049 202.502 43.7178 202.31 43.7178C201.977 43.7049 201.619 43.6273 201.427 43.6015C201.312 43.5756 200.877 43.4722 200.672 43.4205C200.403 43.3558 200.058 43.2654 199.763 43.1361C199.558 43.0585 199.379 42.9551 199.264 42.8775C199.149 42.8 199.008 42.7483 198.931 42.6448C198.906 42.6319 198.88 42.619 198.855 42.6061C199.072 42.9163 199.226 43.1231 199.584 43.4076C199.827 43.6015 200.147 43.8471 200.505 44.0151C200.595 44.0539 200.659 44.1315 200.749 44.1703C200.941 44.2607 201.248 44.3642 201.478 44.4805C201.977 44.7261 202.272 44.8942 202.681 45.0364C202.988 45.1398 203.462 45.4113 203.782 45.5405C204.012 45.631 204.255 45.7086 204.358 45.7862C204.562 45.9801 204.754 46.1093 204.997 46.2386C205.087 46.2903 205.369 46.3808 205.458 46.3937C205.548 46.4454 205.624 46.5101 205.765 46.5747C205.893 46.6394 206.392 46.7298 206.507 46.9237C206.84 47.1047 207.288 47.4021 207.378 47.4796C207.454 47.5443 207.557 47.5701 207.8 47.7252C207.902 47.7899 208.03 47.8933 208.133 47.9579C208.222 48.0096 208.286 48.0355 208.376 48.0872C208.593 48.2423 208.849 48.307 209.029 48.4362C209.515 48.7723 209.937 49.0567 210.308 49.3282C210.411 49.4187 210.5 49.4704 210.628 49.548C210.833 49.6772 210.999 49.8582 211.102 50.0521C211.14 50.1297 211.153 50.1426 211.051 50.3107C211.012 50.4787 210.961 50.6597 210.91 50.7761C210.743 51.0863 210.372 51.5775 210.065 51.6939C210.001 51.7715 209.924 51.849 209.809 51.8878C209.809 51.8878 209.784 51.9137 209.771 51.9266C210.5 51.9783 210.884 51.7456 211.678 51.6034C211.895 51.5646 212.126 51.5517 212.33 51.5258C212.471 51.5258 212.535 51.5129 212.65 51.487C212.791 51.4612 212.932 51.4741 213.098 51.4483C213.546 51.3319 214.02 51.3061 214.314 51.3707C214.787 51.3319 215.363 51.3061 215.926 51.3578C216.054 51.3966 216.246 51.4353 216.374 51.4483C216.669 51.487 217.219 51.6292 217.411 51.681C217.718 51.7585 218.012 51.9266 218.294 52.0429C218.614 52.1851 218.908 52.2756 219.1 52.3661C219.279 52.4566 219.689 52.6246 219.855 52.8961C220.214 53.4391 220.303 53.801 220.38 54.2276C220.444 54.6025 220.508 54.861 220.597 54.9774C220.649 55.042 220.623 55.1972 220.649 55.2618C220.7 55.4298 220.777 55.6755 220.777 55.8564C220.777 56.1279 220.802 56.3994 220.802 56.5287C220.789 56.6709 220.777 56.8518 220.751 56.9682C220.738 57.0457 220.751 57.1362 220.738 57.2267C220.738 57.5241 220.687 57.9894 220.495 58.3385C220.444 58.416 220.38 58.5582 220.316 58.6746C220.201 58.8814 220.098 59.0882 219.983 59.1658C219.881 59.2304 219.945 59.3339 219.791 59.4373C219.702 59.5019 219.599 59.5536 219.51 59.6053C219.535 59.6053 219.702 59.6441 219.766 59.6441C219.945 59.657 220.15 59.5666 220.303 59.4761C220.777 59.2046 221.161 58.8426 221.519 58.3902C221.685 58.1833 221.775 57.9765 221.941 57.7697C222.082 57.5887 222.325 57.4336 222.581 57.2655C222.824 57.0975 223.042 56.9682 223.336 56.8648C223.566 56.7872 223.81 56.5545 224.002 56.4252C224.398 56.1538 224.821 55.9082 225.141 55.7013C225.205 55.6496 225.358 55.572 225.409 55.5591C225.55 55.4816 225.678 55.3652 225.832 55.3135C225.972 55.2618 226.164 55.1713 226.292 55.0808C226.817 54.6801 227.111 54.3957 227.457 53.9432C227.61 53.7364 227.726 53.5813 227.918 53.3744C228.25 53.0125 228.711 52.6505 228.813 52.5729C228.839 52.5471 228.941 52.4954 228.954 52.4824C228.967 52.4824 228.954 52.5083 228.954 52.5341C228.852 52.909 228.685 53.3098 228.596 53.5683C228.481 53.8915 228.327 54.3827 228.174 54.693C228.11 54.8998 228.033 55.0679 227.969 55.2747C227.866 55.5591 227.7 55.9857 227.598 56.1796C227.508 56.4123 227.419 56.6579 227.329 56.8777C226.983 57.6145 226.484 59.0753 226.382 59.2951C226.152 59.7992 225.934 60.3163 225.729 60.7817C225.55 61.1824 225.384 61.5832 225.205 62.0227C224.974 62.5786 224.757 63.0181 224.475 63.6645C224.194 64.2979 223.912 64.9443 223.592 65.5131C223.451 65.8362 223.311 66.1336 223.17 66.4309C222.696 67.2712 222.287 68.1632 221.813 68.9905C221.621 69.3137 221.404 70.1669 221.173 70.3737C220.994 70.9813 221.864 71.0201 222.044 71.3174C222.133 71.3174 222.223 71.2915 222.274 71.2527C222.338 71.1493 222.517 70.671 222.658 70.322C222.709 70.1798 222.773 69.9342 222.824 69.7273C222.965 69.249 223.144 68.6673 223.311 68.2536C223.541 67.7236 223.835 66.9997 224.181 66.2758C224.539 65.5131 224.859 64.6469 224.897 64.5823C224.987 64.4142 225.32 63.5481 225.448 63.3025C225.486 63.225 225.588 63.0052 225.64 62.863C225.844 62.3847 226.088 61.7383 226.254 61.3634C226.305 61.2083 226.433 60.8851 226.51 60.7171C226.574 60.5749 226.894 59.8122 227.188 59.0753C227.38 58.5841 227.572 58.1575 227.623 57.9636C227.7 57.6921 227.828 57.4723 227.969 57.0975C228.071 56.8389 228.199 56.5416 228.314 56.2055C228.468 55.8047 228.634 55.404 228.775 55.0162C228.993 54.4474 229.185 53.9949 229.236 53.8657C229.287 53.7493 229.313 53.62 229.364 53.4908C229.441 53.2969 229.53 53.1159 229.607 52.8961C229.671 52.741 229.748 52.5212 229.812 52.4049C229.837 52.3661 229.863 52.2756 229.888 52.2368C229.94 52.2885 229.965 52.4178 229.965 52.8573C230.004 53.0512 230.029 53.2064 230.042 53.2839C230.08 53.5813 230.196 53.801 230.272 54.0466C230.362 54.3181 230.375 54.5379 230.413 54.8481C230.439 55.0291 230.503 55.2359 230.567 55.4169C230.605 55.5333 230.631 55.766 230.707 55.8564C230.746 55.9082 230.835 56.1796 230.951 56.4382C231.04 56.645 231.155 56.8389 231.258 57.007C231.322 57.1362 231.322 57.2138 231.386 57.3431C231.411 57.4077 231.488 57.4982 231.514 57.5628C231.565 57.6921 231.629 57.8214 231.693 57.9507C231.808 58.2092 232.026 58.5195 232.141 58.7392C232.205 58.8556 232.179 58.9461 232.23 59.0624C232.282 59.127 232.32 59.2434 232.358 59.308C232.499 59.7605 232.678 60.1095 232.781 60.5102C232.947 61.1566 233.088 61.79 233.165 62.4493C233.203 62.7596 233.331 62.9405 233.318 63.0698C233.318 63.4706 233.395 63.8713 233.421 64.0911C233.421 64.1557 233.446 64.2462 233.459 64.2979C233.459 64.2979 233.484 64.3367 233.497 64.3755C233.574 63.9618 233.689 63.5352 233.779 63.1345C233.843 62.9276 233.881 62.7466 233.945 62.5527C233.971 62.3588 234.022 61.9193 234.112 61.8159C234.227 61.6737 234.316 61.2988 234.508 61.092C234.559 61.0273 234.649 60.9498 234.7 60.8981C234.751 60.8593 234.79 60.8205 234.828 60.7559C234.879 60.7171 235.007 60.6007 235.071 60.5361C235.263 60.3293 235.417 60.2258 235.583 60.0061C235.647 59.9544 235.698 59.9027 235.762 59.8639C235.814 59.8122 235.916 59.6829 235.967 59.6312C236.402 59.2175 236.927 58.8814 237.413 58.7263C237.477 58.7004 237.695 58.6229 237.759 58.6099C237.964 58.5453 238.143 58.6099 238.36 58.6358C238.488 58.6616 238.77 58.6358 239.051 58.7004C239.167 58.7263 239.269 58.7392 239.371 58.7651C239.41 58.7651 239.55 58.7651 239.602 58.7909C239.858 58.8814 240.254 59.0495 240.459 59.0753C240.92 59.1529 241.304 59.2822 241.816 59.4373C242.238 59.5666 242.43 59.6312 242.596 59.6958C242.763 59.7605 243.236 59.8897 243.582 60.0061C243.914 60.1224 244.196 60.2517 244.49 60.4068C244.887 60.6136 245.309 60.8851 245.655 61.0403C245.808 61.1437 246.064 61.2342 246.141 61.2859C246.397 61.5186 246.704 61.7383 246.96 61.9839C247.075 62.1003 247.293 62.152 247.382 62.2683C247.421 62.2683 247.459 62.2683 247.485 62.2683C247.382 62.0874 247.357 61.9193 247.344 61.7383C247.331 61.5832 247.293 61.4151 247.28 61.2471C247.28 61.1049 247.319 60.9627 247.331 60.8722C247.357 60.7688 247.382 60.6783 247.434 60.5878C247.498 60.4715 247.754 60.3293 247.894 60.2258C248.022 60.1224 248.138 60.1224 248.253 60.0578C248.406 59.9544 248.573 59.9156 248.765 59.9027C248.944 59.8768 249.149 59.9027 249.341 59.9156C249.545 59.9156 249.724 59.9414 249.916 59.9931C250.339 59.9802 250.697 60.019 251.055 60.019C251.119 60.0449 251.273 60.0707 251.35 60.0707C251.439 60.0707 251.542 60.0707 251.657 60.0707C251.874 60.0707 252.092 60.0707 252.182 60.0966C252.31 60.0966 252.399 60.0578 252.514 60.0707C252.604 60.0836 252.655 60.0707 252.706 60.0707C252.745 60.0707 252.77 60.0449 252.796 60.0578C253.013 60.0966 253.321 60.1483 253.474 60.1871C253.615 60.2258 253.704 60.2258 253.807 60.2258C253.922 60.2258 254.05 60.2258 254.293 60.2775C254.344 60.2775 254.395 60.2775 254.447 60.2775C254.511 60.2775 254.562 60.2775 254.639 60.2775C254.779 60.3034 254.882 60.3293 255.01 60.368C255.125 60.3939 255.291 60.368 255.432 60.3939C255.675 60.4197 255.97 60.4973 256.187 60.549C256.469 60.6136 256.648 60.6654 256.917 60.7559C257.249 60.7817 257.723 60.9627 258.056 61.0661C258.158 61.092 258.593 61.1566 258.759 61.2083C259.438 61.4022 259.694 61.5186 260.116 61.6608C260.385 61.7642 260.717 61.8159 260.999 61.9193C261.178 61.9839 261.447 62.0486 261.613 62.0874C261.882 62.1391 262.048 62.1261 262.317 62.1778C262.394 62.1908 262.522 62.1908 262.599 62.1778C262.778 62.2037 262.867 62.1908 262.944 62.1778C263.021 62.1778 263.098 62.1649 263.239 62.1778C263.29 62.1778 263.405 62.1908 263.405 62.1778C263.072 62.0744 262.739 61.971 262.586 61.8547C262.407 61.803 262.061 61.6737 261.933 61.5961C261.792 61.4927 261.562 61.3376 261.421 61.2729C261.165 61.1566 261.012 60.9627 260.833 60.8463C260.372 60.5619 260.206 60.3422 259.988 60.1871C259.732 59.9931 259.476 59.8639 259.22 59.67C259.079 59.5536 258.964 59.4244 258.823 59.3209C258.67 59.1917 258.478 59.0753 258.35 58.959C258.171 58.7909 258.043 58.5453 257.889 58.3514C257.736 58.1575 257.544 58.0153 257.365 57.7438C257.301 57.6533 257.313 57.5887 257.249 57.4982C256.929 57.0716 256.699 56.645 256.43 56.2184C256.072 55.6367 255.714 55.055 255.215 54.5379C255.099 54.4215 254.959 54.331 254.856 54.2276C254.651 54.0079 254.178 53.4003 254.063 53.1288C254.012 52.9995 253.973 52.909 253.896 52.7927C253.845 52.7022 253.768 52.6505 253.704 52.56C253.576 52.379 253.448 52.0041 253.384 51.7844C253.244 51.3449 253.039 51.0863 253.269 50.8407C253.423 50.6726 253.602 50.6856 253.692 50.5434C253.781 50.3882 253.858 50.3495 253.884 50.2848C253.922 50.1297 253.999 49.9099 254.05 49.897C254.127 49.8582 254.357 49.6902 254.511 49.548C254.626 49.4575 254.779 49.3541 254.895 49.2636C255.01 49.1989 255.099 49.1343 255.215 49.0697C255.253 49.0438 255.279 48.9792 255.317 48.9662C255.598 48.9016 255.906 48.7853 256.213 48.656C256.366 48.5914 256.571 48.4879 256.737 48.4362C256.84 48.4362 257.006 48.3845 257.096 48.3587C257.185 48.3328 257.173 48.294 257.288 48.2294C257.339 48.2035 257.659 48.1518 257.761 48.1518C257.992 48.0872 258.286 47.9838 258.516 47.9321C258.785 47.8674 258.99 47.8674 259.246 47.8028C259.438 47.764 259.604 47.6865 259.77 47.6218C259.834 47.6089 259.95 47.6089 260.026 47.596C260.231 47.5572 260.513 47.4925 260.769 47.415C260.948 47.3633 261.153 47.3633 261.332 47.3116C261.472 47.2728 261.664 47.2081 261.818 47.1952C262.01 47.1952 262.496 47.1694 262.855 47.2211C263.354 47.2986 263.878 47.3503 264.39 47.3503C264.569 47.3503 264.723 47.3503 264.864 47.3633C265.081 47.3762 265.26 47.3891 265.388 47.3633C265.44 47.3633 265.555 47.3633 265.568 47.3633C265.568 47.3633 265.619 47.3633 265.619 47.3503C265.133 47.2211 264.39 46.9625 263.968 46.8203C263.75 46.7428 263.571 46.6264 263.405 46.5489C263.175 46.4325 262.957 46.342 262.829 46.2515C262.65 46.1223 262.445 45.7991 262.292 45.6569C262.048 45.4371 261.895 45.2691 261.677 44.9976C261.613 44.92 261.485 44.7261 261.434 44.6227C261.383 44.5451 261.332 44.5451 261.293 44.4676C261.255 44.3512 261.217 44.1961 261.153 44.0927C261.037 43.86 260.935 43.5756 260.833 43.2654C260.769 43.0973 260.871 42.7741 260.935 42.5673C261.076 42.1148 261.306 41.8563 261.498 41.5848C261.652 41.3651 261.78 41.1841 261.959 41.0031C262.023 40.9384 262.112 40.848 262.176 40.7704C262.355 40.5377 262.266 40.4601 262.624 40.1499C262.791 39.9948 262.995 39.8784 263.175 39.7233C263.251 39.6587 263.302 39.5811 263.443 39.5035C263.571 39.4389 263.763 39.3484 263.878 39.2708C264.109 39.1157 264.365 38.9477 264.557 38.8184C264.595 38.7667 264.608 38.7408 264.595 38.702C264.569 38.5728 264.454 38.534 264.378 38.4306C264.326 38.3659 264.25 38.1462 264.237 37.8747C264.237 37.6937 264.288 37.474 264.326 37.3447C264.403 37.0991 264.505 36.6725 264.544 36.5949C264.749 36.22 264.8 35.9873 265.017 35.6383C265.094 35.4961 265.222 35.1212 265.248 35.0695C265.376 34.8885 265.529 34.6041 265.644 34.3326C265.708 34.1517 265.772 34.0095 265.862 33.8673C266.182 33.4019 266.476 33.0529 266.796 32.678C266.911 32.5487 267.001 32.3548 267.129 32.2514C267.449 31.967 267.756 31.5404 268.102 31.2172C268.345 30.9845 268.613 30.8035 268.882 30.6225C269.138 30.4545 269.368 30.1572 269.56 29.9374C269.676 29.8081 269.714 29.7047 269.842 29.6142C269.855 29.5754 269.868 29.5367 269.893 29.485C269.624 29.6401 269.292 29.7435 268.895 29.9115C268.114 30.2347 267.449 30.4157 266.694 30.7001C266.438 30.8035 266.105 30.9974 265.849 31.0879C265.388 31.256 264.979 31.3335 264.48 31.3723C263.994 31.4111 263.738 31.6438 263.149 31.605C262.97 31.605 262.739 31.5533 262.522 31.4887C262.215 31.3982 261.908 31.3077 261.575 31.3077C261.46 31.2818 261.165 31.2689 261.05 31.256C260.513 31.256 260.487 31.3594 259.425 31.0879C259.207 31.0362 259.028 30.9587 258.849 30.8552C258.747 30.7906 258.631 30.7777 258.542 30.713C258.388 30.5838 258.286 30.364 258.209 30.183C258.107 29.9115 258.043 29.6918 258.235 29.2006C257.595 29.3945 257.365 29.7306 256.584 29.9633C255.957 30.2218 255.227 30.4933 254.523 30.6743C254.101 30.7777 253.628 30.8423 253.346 30.8682C252.962 30.9199 252.54 31.1267 252.335 31.2043C252.156 31.2689 251.913 31.2043 251.708 31.1655C251.606 31.1396 251.35 31.1267 251.209 31.0621C250.774 30.894 250.044 30.6613 249.622 30.3381C249.52 30.2606 249.468 30.1184 249.392 30.0279C249.174 29.7823 249.149 29.3686 249.059 28.8644C249.033 28.7481 248.995 28.6059 248.969 28.4766C248.931 28.2827 248.969 28.2569 248.969 28.1534C248.944 28.0242 248.893 27.8303 248.867 27.701C248.867 27.5976 248.867 27.4683 248.867 27.3649C248.829 27.1581 248.829 26.8995 248.803 26.6797C248.79 26.6022 248.816 26.3824 248.829 26.2531C248.867 25.9688 248.829 25.4258 248.944 24.8053C248.982 24.5468 249.072 24.3529 249.136 24.2107C249.187 24.0685 249.264 23.7453 249.341 23.6031C249.507 23.3057 249.571 23.0213 249.699 22.6852C249.737 22.6077 249.788 22.4396 249.814 22.3362C249.891 22.0647 249.865 21.9742 249.968 21.5864C249.993 21.483 250.057 21.2632 250.096 21.1469C250.16 20.953 250.288 20.7849 250.39 20.604C250.441 20.5135 250.428 20.4101 250.467 20.3325C250.531 20.2161 250.62 20.1257 250.646 20.0739C250.774 19.7895 250.812 19.6474 250.876 19.4793C250.979 19.2466 251.03 18.9881 251.119 18.82C251.235 18.6002 251.362 18.4322 251.452 18.2771C251.593 18.0314 251.721 17.941 251.772 17.8246C251.913 17.5661 252.143 17.2687 252.348 17.0102C252.604 16.6999 252.809 16.4155 253.026 16.0148C253.116 15.8468 253.129 15.627 253.231 15.5236C253.244 15.4589 253.269 15.4202 253.282 15.3684C253.282 15.3684 253.269 15.3684 253.257 15.3684C252.975 15.7046 252.681 16.0407 252.399 16.2346C252.156 16.3768 251.926 16.519 251.682 16.6353C251.388 16.7775 251.158 16.9585 251.03 16.9843C250.799 17.0231 250.403 17.1007 250.032 17.1007C249.955 17.0748 249.673 17.0619 249.596 17.0361C249.251 17.0361 248.726 16.9714 248.266 16.6999C247.523 16.2604 247.242 15.3814 247.191 15.084C246.973 14.6187 246.858 14.2179 246.819 13.8689C246.819 13.7913 246.768 13.6879 246.743 13.6103C246.704 13.4552 246.704 13.3001 246.704 13.1837C246.602 13.0028 246.666 12.7959 246.679 12.4598C246.691 12.0074 246.743 11.5678 246.871 11.1412C247.037 10.5466 247.063 10.2751 247.127 10.1717C247.127 10.1588 247.152 10.1459 247.152 10.12C246.871 10.2363 246.768 10.4303 246.154 10.4561C245.847 10.4561 245.424 10.2622 245.245 10.1459C244.708 9.75804 244.695 9.46071 244.081 8.73679C243.697 8.28434 243.543 7.74139 243.428 7.10796C243.377 6.83649 243.326 6.56502 243.339 6.28062C243.351 6.02208 243.402 5.81524 243.402 5.56962C243.39 5.25937 243.351 4.94912 243.326 4.63887C243.287 4.01836 243.428 3.52713 243.351 2.97126C243.339 2.88077 243.3 2.77735 243.287 2.69979C243.236 2.45417 243.236 2.1827 243.172 1.95001C243.121 1.76903 243.057 1.58805 243.031 1.39414C242.993 1.12267 242.967 1.00632 242.942 0.463379C242.891 0.631433 242.852 0.69607 242.775 0.838269" fill="#1F305E"/>
<path d="M42.7904 20.6266H37.0316L24.0294 55.0259H6.63766V20.911H0.584473V60.0675H28.1757L31.9894 49.6223H47.6022L51.4799 60.0675H57.6994M33.8706 44.5807L39.7958 28.37L45.785 44.5807" fill="#1F305E"/>
<path d="M58.2106 20.9145H64.2638V44.8687C64.2638 52.5603 68.6021 55.6112 74.4122 55.6112C80.2222 55.6112 84.5093 52.263 84.5093 45.166V20.9145H90.4985V44.9204C90.4985 55.2492 83.2168 60.7691 74.361 60.7691C65.5051 60.7691 58.2234 56.6066 58.2234 45.7348" fill="#1F305E"/>
<path d="M96.6427 20.9145H108.148C118.245 20.9145 122.353 26.1371 122.353 32.0707C122.353 37.4097 118.769 41.1068 114.841 42.9296L126.346 60.071H119.179L108.723 44.3386H102.683V60.071H96.6427M108.032 39.297C112.435 39.297 115.954 36.8279 115.954 32.4844C115.954 28.9682 113.663 25.9691 107.149 25.9691H102.683V39.297" fill="#1F305E"/>
<path d="M135.509 20.9145H129.468V60.071H135.509V20.9145Z" fill="#1F305E"/>
<path d="M142.853 20.9145H166.682V25.9691H148.907V37.5906H162.933V42.6969H148.907V55.0294H166.861V60.084H142.853" fill="#1F305E"/>
<path d="M172.032 20.9145H183.537C193.635 20.9145 197.742 26.1371 197.742 32.0707C197.742 37.4097 194.159 41.1068 190.23 42.9296L201.735 60.071H194.569L184.113 44.3386H178.073V60.071H172.032M183.422 39.297C187.825 39.297 191.344 36.8279 191.344 32.4844C191.344 28.9682 189.053 25.9691 182.539 25.9691H178.073V39.297" fill="#1F305E"/>
</svg>
