<svg width="327" height="61" fill="none" xmlns="http://www.w3.org/2000/svg"><path d="M324.198 41.192c-1.867-1.944-4.588-3.397-8.158-4.354l-5.36-1.36c-3.201-.852-4.8-2.341-4.8-4.474 0-1.333.52-2.424 1.56-3.277 1.039-.852 2.413-1.277 4.12-1.277 1.707 0 3.041.415 4.159 1.238 1.122.827 1.786 1.957 2.001 3.398h8.774s-.098-6.184-5.213-9.51c-2.812-1.829-6.039-2.717-10.038-2.717-2.24 0-4.268.307-6.079.918-1.815.614-3.349 1.466-4.601 2.557a10.96 10.96 0 0 0-2.881 3.917c-.667 1.519-1 3.155-1 4.916 0 2.718.866 5.047 2.599 6.994s4.601 3.45 8.6 4.514l5.441 1.437c2.826.748 4.107 2.163 4.241 4.237.128 1.996-1.53 4.557-5.568 4.557-2.08 0-3.735-.438-4.961-1.317-1.226-.878-1.919-2.09-2.08-3.635h-8.835s0 5.997 4.954 9.55c2.724 1.954 6.36 2.996 11 2.996 4.961 0 7.828-1.038 10.807-3.276 2.806-2.107 4.12-5.115 4.12-8.79 0-2.878-.935-5.289-2.799-7.232l-.003-.01ZM81.362 45.23c-.693 2.025-2.976 6.63-10 6.63-3.361 0-6.013-1.068-7.958-3.207-1.95-2.137-2.92-5.132-2.92-8.98 0-3.848.97-6.735 2.92-8.98 1.945-2.244 4.6-3.367 7.958-3.367 6.894 0 9.225 4.743 9.922 6.872h8.995s-.582-7.803-7.825-12.34c-2.74-1.715-6.268-3.006-11.248-3.006-3.041 0-5.798.507-8.273 1.52-2.476 1.012-4.601 2.426-6.373 4.236-1.773 1.813-3.133 3.995-4.088 6.553-.952 2.557-1.429 5.409-1.429 8.551 0 3.143.487 5.913 1.468 8.47.978 2.558 2.341 4.743 4.084 6.553 1.747 1.813 3.856 3.224 6.334 4.236 2.476 1.013 5.21 1.614 8.195 1.52 17.592-.553 19.155-15.265 19.155-15.265h-8.914l-.003.003ZM39.807 24.445l-7.949 5.618 3.702 10.554-9.297-6.601-9.339 6.601 9.32-26.556 3.636 10.37h9.924L31.361 1.116H13.592l5.997 4.237L.002 59.455h10.242l4.8-13.589h22.24l4.718 13.589h10.48l-12.675-35.01ZM131.101 35.479v23.976h-9.44v-21.95c0-1.922-.229-3.538-.68-4.845-.455-1.31-1.079-2.349-1.881-3.126a7.13 7.13 0 0 0-2.799-1.682 11.089 11.089 0 0 0-3.44-.52c-1.118 0-2.253.2-3.4.601a9.724 9.724 0 0 0-3.159 1.843c-.961.83-1.733 1.897-2.318 3.204-.589 1.31-.88 2.871-.88 4.687v21.791h-9.44V.077h9.44v24.005c1.226-1.584 2.864-2.848 4.921-3.799 2.054-.95 4.307-1.427 6.759-1.427 5.173 0 9.185 1.41 12.04 4.236 2.851 2.826 4.28 6.952 4.28 12.387h-.003ZM135.238 6.39c0-1.704.585-3.129 1.759-4.275 1.174-1.147 2.586-1.718 4.241-1.718 1.655 0 3.051.588 4.199 1.757 1.147 1.173 1.72 2.587 1.72 4.237s-.573 3.064-1.72 4.236c-1.148 1.173-2.548 1.758-4.199 1.758-1.651 0-3.067-.585-4.241-1.758-1.174-1.172-1.759-2.583-1.759-4.236Zm10.719 13.665v39.397h-9.441V20.055h9.441ZM229.16 20.055l-16.48 39.397h-9.362l-15.761-39.397h10.241l10.399 28.209 11.118-28.21h9.845ZM289.72 19.496c1.759 0 3.306.186 4.64.559v8.711a17.519 17.519 0 0 0-4.401-.558c-3.359 0-5.962 1.038-7.799 3.116-1.838 2.077-2.76 4.955-2.76 8.63v19.5h-9.601v-39.4h8.8l.559 4.636c.801-1.705 2.161-2.996 4.081-3.874 1.919-.88 4.081-1.32 6.481-1.32ZM189.159 39.715c0-3.142-.467-5.994-1.399-8.551-.936-2.558-2.24-4.74-3.921-6.553-1.681-1.81-3.721-3.224-6.118-4.236-2.4-1.013-5.039-1.52-7.92-1.52-2.881 0-5.628.507-8.08 1.52-2.456 1.012-4.549 2.436-6.282 4.276-1.733 1.838-3.08 4.05-4.041 6.634-.962 2.583-1.439 5.422-1.439 8.512 0 3.09.481 5.913 1.439 8.47.961 2.558 2.305 4.743 4.041 6.553 1.733 1.813 3.813 3.21 6.239 4.194 2.427.983 5.082 1.48 7.96 1.48 4.159 0 7.857-.905 11-2.878 7.275-4.57 8.093-11.27 8.093-11.27h-9.012c-.906 1.918-2.214 3.398-3.921 4.436-1.707 1.04-3.76 1.559-6.16 1.559-2.881 0-5.308-.758-7.279-2.277-1.972-1.52-3.12-3.796-3.44-6.834h30.24v-3.514Zm-30.08-3.197c.373-3.172 1.481-5.59 3.319-7.252 1.841-1.666 4.228-2.499 7.161-2.499s5.281.82 7.04 2.457c1.759 1.636 2.747 4.07 2.96 7.294h-20.48ZM266.287 39.715c0-3.142-.467-5.994-1.399-8.551-.935-2.558-2.24-4.74-3.921-6.553-1.681-1.81-3.721-3.224-6.118-4.236-2.4-1.013-5.039-1.52-7.92-1.52-2.881 0-5.627.507-8.08 1.52-2.455 1.012-4.548 2.436-6.281 4.276-1.733 1.838-3.081 4.05-4.042 6.634-.961 2.583-1.439 5.422-1.439 8.512 0 3.09.481 5.913 1.439 8.47.958 2.558 2.305 4.743 4.042 6.553 1.733 1.813 3.812 3.21 6.239 4.194 2.426.983 5.081 1.48 7.959 1.48 4.159 0 7.857-.905 11-2.878 7.276-4.57 8.093-11.27 8.093-11.27h-9.012c-.906 1.918-2.214 3.398-3.921 4.436-1.707 1.04-3.76 1.559-6.16 1.559-2.881 0-5.307-.758-7.279-2.277-1.972-1.52-3.12-3.796-3.44-6.834h30.24v-3.514Zm-30.08-3.197c.373-3.172 1.481-5.59 3.319-7.252 1.841-1.666 4.228-2.499 7.161-2.499s5.281.82 7.04 2.457c1.76 1.636 2.747 4.07 2.96 7.294h-20.48Z" fill="#1F305E"/></svg>