<svg width="270" height="72" fill="none" xmlns="http://www.w3.org/2000/svg"><path d="M242.775.851c-.115.491-.23.93-.345 1.422-.026.13-.077.298-.128.427-.192.4-.32.918-.486 1.176-.064.117-.141.414-.205.556-.422.827-.742 1.357-1.178 1.952-.191.272-.486.517-.716.75-.256.271-.461.62-.742.866-.308.258-.653.427-.947.698a2.13 2.13 0 0 1-.666.478c-.525.388-1.164.647-1.92.57-.307-.027-.652-.298-.793-.44-.179-.181-.409-.388-.537-.57h-.039c-.025.88.064 1.074-.025 1.578-.052.258-.346.995-.41 1.19-.09.258-.128.335-.256.555-.23.4-.448.776-.729 1.099-.282.31-.666.543-.96.763-.179.142-.243.129-.307.116h-.154c-.128.026-.358.194-.512.168-.192-.026-.908-.349-1.062-.414-.422-.168-.857-.594-1.382-1.086-.422-.387-.742-.788-.896-1.111-.115-.233-.32-.336-.461-.672-.012-.013-.025-.026-.051-.026.103.478.231.866.295 1.435.025.22.076.44.076.659 0 .09-.051.22-.038.375 0 .129.064.245.051.413 0 .22-.025.453-.077.698-.064.35-.064.556-.076.789-.039.259-.154.582-.154.672 0 .194 0 .453-.026.66-.038.18-.102.413-.102.543 0 .22 0 .504-.038.71-.039.156-.039.272-.064.414v.233c-.013.064-.064.207-.077.323-.026.194-.115.453-.128.685-.026.453-.051 1.112-.23 1.655-.167.517-.359.776-.538 1.176-.077.194-.166.388-.23.595-.141.607-.346 1.06-.41 1.228a2.254 2.254 0 0 1-.205.284c-.14.155-.32.31-.448.44-.115.103-.179.103-.255.103h-.116c-.089.026-.128.09-.243.09a2.947 2.947 0 0 0-.345-.064c-.167 0-.435-.064-.64-.142-.039-.013-.141-.078-.231-.078-.268 0-.972-.155-1.228-.323-.166-.103-.282-.22-.602-.4-.307-.169-.563-.31-.755-.44-.166-.116-.358-.207-.537-.297-.179-.104-.243-.233-.371-.324-.154-.129-.346-.194-.474-.336a8.002 8.002 0 0 0-.486-.452c-.346-.259-.627-.4-.947-.685-.243-.22-.448-.479-.666-.711-.102-.117-.217-.207-.307-.324-.089-.155-.204-.31-.294-.465-.154-.194-.333-.4-.422-.633 0 0 0-.013-.026-.026-.026.349.064.97-.153 1.254-.141.18-.461.349-.807.491-.307.13-.601.233-.844.246-.333.013-.717-.13-1.101-.246-.217-.052-.422-.116-.64-.168-.205-.103-.729-.155-1.152-.258-.166-.052-.345-.078-.473-.117a4.48 4.48 0 0 1-.563-.142c-.307-.104-.832-.233-1.011-.31-.269-.13-.486-.181-.806-.337-.103-.051-.333-.103-.436-.155-.191-.051-.383-.142-.563-.22-.78-.335-1.689-.684-2.06-.904-.026-.013-.064-.052-.09-.078a1.193 1.193 0 0 1-.256-.103c-.217-.13-.703-.362-1.075-.543-.23-.117-.511-.285-.729-.4a7.114 7.114 0 0 1-.653-.415c-.012-.012-.038-.012-.051-.025.141.245.256.374.346.542.422.737.742 1.32 1.535 2.25.192.22.372.413.551.646.179.233.332.491.46.763.231.452.295.388.372.595.115.323.243.633.383.956.026.065.103.155.128.22.064.142.09.323.116.491.076.44.14.828.179 1.202.013.246.141.595.089.789-.051.233-.064.504-.256.685-.192.181-.563.427-.831.465-.167.026-.32 0-.474 0-.141 0-.281-.025-.409 0 0 0-.026 0-.039.013.371.117.333.207.55.362.167.117.346.207.538.31.166.078.653.518.832.712.205.271.409.62.588.905.154.258.538.775.589.97.23.723 0 .93.32 1.46.09.052.013.103-.051.18a.304.304 0 0 0-.192.027c-.128.051-.243.18-.448.323-.243.18-.499.258-.717.388-.089.051-.153.18-.294.22-.102.025-.23 0-.358-.014-.09-.012-.192-.038-.282-.025-.089 0-.256.051-.358.064a.81.81 0 0 1-.435-.051c-.09-.026-.167-.065-.282-.065-.166 0-.358.052-.563.026-.077-.013-.243-.078-.384-.09-.077 0-.128 0-.192.012-.064.013-.141.026-.243.013.09.09.294.026.461.13.089.051.268.18.46.232h.167c.089 0 .192 0 .256.039.205.13.422.323.691.465.294.155.576.207.806.414.064.065.154.194.23.258.141.091.346.181.474.285.102.078.192.168.307.258.41.298.384.401.602.582.204.168.409.259.614.453.051.051.153.18.217.232.09.065.282.168.333.194.179.155.294.323.435.491.128.156.282.259.423.427.115.142.281.246.422.375.435.4.985.905 1.152 1.46.102.298.051.479.051.647.013.078.064.194.064.272 0 .116-.051.245-.154.31a.722.722 0 0 1-.205.323c-.23.246-.588.517-.767.633-.116.078-.384.181-.499.259-.18.13-.423.336-.628.4-.102.04-.332.078-.447.156-.448.155-.653.245-1.127.569-.115.077-.281.193-.409.271-.243.142-.525.388-.755.478-.384.156-.73.324-1.114.466-.307.116-.665.297-1.011.336-.294.039-.55 0-.793 0-.166 0-.563.013-.755.013-.333-.013-.691-.09-.883-.117a48.52 48.52 0 0 1-.755-.18 5.615 5.615 0 0 1-.909-.285 2.522 2.522 0 0 1-.499-.259c-.115-.077-.256-.129-.333-.232l-.076-.039c.217.31.371.517.729.802.243.194.563.44.921.607.09.039.154.117.244.155.192.09.499.194.729.31.499.246.794.414 1.203.556.307.104.781.375 1.101.505.23.09.473.168.576.245.204.194.396.323.639.453.09.051.372.142.461.155.09.051.166.116.307.18.128.065.627.156.742.35a7.9 7.9 0 0 1 .871.556c.076.064.179.09.422.245.102.065.23.168.333.233.089.052.153.078.243.13.217.154.473.219.653.348.486.336.908.62 1.279.892.103.09.192.142.32.22.205.13.371.31.474.504.038.078.051.09-.051.259a2.97 2.97 0 0 1-.141.465c-.167.31-.538.801-.845.918a.568.568 0 0 1-.256.194l-.038.039c.729.051 1.113-.181 1.907-.324.217-.038.448-.051.652-.077.141 0 .205-.013.32-.039.141-.026.282-.013.448-.039.448-.116.922-.142 1.216-.077a9.497 9.497 0 0 1 1.612-.013c.128.039.32.077.448.09.295.039.845.181 1.037.233.307.078.601.246.883.362.32.142.614.233.806.323.179.09.589.259.755.53.359.543.448.905.525 1.332.064.374.128.633.217.75.052.064.026.22.052.284.051.168.128.413.128.594 0 .272.025.543.025.673-.013.142-.025.323-.051.44-.013.077 0 .167-.013.258 0 .297-.051.762-.243 1.112-.051.077-.115.22-.179.336-.115.206-.218.413-.333.49-.102.065-.038.169-.192.272-.089.065-.192.117-.281.168.025 0 .192.04.256.04.179.012.384-.078.537-.169.474-.271.858-.633 1.216-1.086.166-.207.256-.413.422-.62.141-.181.384-.336.64-.505.243-.168.461-.297.755-.4.23-.078.474-.31.666-.44.396-.271.819-.517 1.139-.724.064-.051.217-.129.268-.142.141-.077.269-.194.423-.245a2.22 2.22 0 0 0 .46-.233c.525-.4.819-.685 1.165-1.138.153-.207.269-.362.461-.569a7.84 7.84 0 0 1 .895-.801c.026-.026.128-.078.141-.09.013 0 0 .025 0 .051-.102.375-.269.776-.358 1.034-.115.324-.269.815-.422 1.125-.064.207-.141.375-.205.582a9.51 9.51 0 0 1-.371.905c-.09.232-.179.478-.269.698-.346.736-.845 2.197-.947 2.417-.23.504-.448 1.021-.653 1.487-.179.4-.345.801-.524 1.24-.231.557-.448.996-.73 1.642-.281.634-.563 1.28-.883 1.85-.141.322-.281.62-.422.917-.474.84-.883 1.732-1.357 2.56-.192.323-.409 1.176-.64 1.383-.179.607.691.646.871.943a.406.406 0 0 0 .23-.064c.064-.104.243-.582.384-.931.051-.142.115-.388.166-.595.141-.478.32-1.06.487-1.473.23-.53.524-1.254.87-1.978.358-.763.678-1.63.716-1.694.09-.168.423-1.034.551-1.28.038-.077.14-.297.192-.439.204-.478.448-1.125.614-1.5.051-.155.179-.478.256-.646.064-.142.384-.905.678-1.642.192-.49.384-.918.435-1.111.077-.272.205-.492.346-.867.102-.258.23-.555.345-.892.154-.4.32-.801.461-1.189.218-.569.41-1.021.461-1.15.051-.117.077-.246.128-.375.077-.194.166-.375.243-.595.064-.155.141-.375.205-.491.025-.039.051-.13.076-.168.052.051.077.18.077.62.039.194.064.35.077.427.038.297.154.517.23.763.09.271.103.49.141.801.026.181.09.388.154.569.038.116.064.349.14.44.039.051.128.323.244.581.089.207.204.4.307.569.064.13.064.207.128.336.025.065.102.155.128.22.051.13.115.258.179.388.115.258.333.569.448.788.064.117.038.207.089.323.052.065.09.181.128.246.141.453.32.801.423 1.202.166.647.307 1.28.384 1.94.038.31.166.49.153.62 0 .4.077.801.103 1.021 0 .065.025.155.038.207 0 0 .025.039.038.078.077-.414.192-.84.282-1.242.064-.206.102-.387.166-.581.026-.194.077-.634.167-.737.115-.142.204-.517.396-.724.051-.065.141-.142.192-.194a.458.458 0 0 0 .128-.142c.051-.039.179-.155.243-.22.192-.207.346-.31.512-.53.064-.052.115-.103.179-.142.052-.052.154-.181.205-.233.435-.413.96-.75 1.446-.905.064-.026.282-.103.346-.116.205-.065.384 0 .601.026.128.026.41 0 .691.064.116.026.218.04.32.065.039 0 .179 0 .231.026.256.09.652.259.857.284.461.078.845.207 1.357.362.422.13.614.194.78.259.167.065.64.194.986.31.332.116.614.246.908.4.397.208.819.48 1.165.634.153.104.409.194.486.246.256.233.563.452.819.698.115.116.333.168.422.284h.103a1.168 1.168 0 0 1-.141-.53c-.013-.155-.051-.323-.064-.49 0-.143.039-.285.051-.376.026-.103.051-.194.103-.284.064-.117.32-.259.46-.362.128-.104.244-.104.359-.168a.992.992 0 0 1 .512-.155c.179-.026.384 0 .576.013.204 0 .383.025.575.077.423-.013.781.026 1.139.026.064.026.218.052.295.052h.307c.217 0 .435 0 .525.026.128 0 .217-.04.332-.026.09.013.141 0 .192 0 .039 0 .064-.026.09-.013.217.039.525.09.678.13.141.038.23.038.333.038.115 0 .243 0 .486.052h.346c.14.025.243.051.371.09.115.026.281 0 .422.026.243.026.538.103.755.155.282.065.461.116.73.207.332.026.806.207 1.139.31.102.026.537.09.703.142.679.194.935.31 1.357.453.269.103.601.155.883.258.179.065.448.13.614.168.269.052.435.04.704.09.077.014.205.014.282 0a.978.978 0 0 0 .345 0c.077 0 .154-.012.295 0 .051 0 .166.014.166 0-.333-.103-.666-.206-.819-.322a3.838 3.838 0 0 1-.653-.259 3.738 3.738 0 0 0-.512-.323c-.256-.116-.409-.31-.588-.427-.461-.284-.627-.504-.845-.659-.256-.194-.512-.323-.768-.517-.141-.116-.256-.246-.397-.35-.153-.128-.345-.245-.473-.361-.179-.168-.307-.414-.461-.608-.153-.194-.345-.336-.524-.607-.064-.09-.052-.155-.116-.246-.32-.426-.55-.853-.819-1.28-.358-.581-.716-1.163-1.215-1.68-.116-.116-.256-.207-.359-.31-.205-.22-.678-.828-.793-1.1a1.62 1.62 0 0 0-.167-.335c-.051-.09-.128-.142-.192-.233-.128-.181-.256-.556-.32-.776-.14-.44-.345-.698-.115-.943.154-.168.333-.155.423-.298.089-.155.166-.194.192-.258.038-.155.115-.375.166-.388.077-.039.307-.207.461-.349.115-.09.268-.194.384-.284.115-.065.204-.13.32-.194.038-.026.064-.09.102-.104.281-.064.589-.18.896-.31.153-.065.358-.168.524-.22.103 0 .269-.051.359-.077.089-.026.077-.065.192-.13a2.26 2.26 0 0 1 .473-.077c.231-.065.525-.168.755-.22.269-.065.474-.065.73-.13.192-.038.358-.115.524-.18.064-.013.18-.013.256-.026.205-.039.487-.103.743-.181.179-.052.384-.052.563-.103.14-.04.332-.104.486-.117.192 0 .678-.026 1.037.026.499.078 1.023.13 1.535.13.179 0 .333 0 .474.012.217.013.396.026.524 0h.18s.051 0 .051-.013c-.486-.129-1.229-.388-1.651-.53-.218-.077-.397-.194-.563-.271-.23-.117-.448-.207-.576-.297-.179-.13-.384-.453-.537-.595a5.001 5.001 0 0 1-.615-.66 2.67 2.67 0 0 1-.243-.374c-.051-.078-.102-.078-.141-.155-.038-.117-.076-.272-.14-.375a6.382 6.382 0 0 1-.32-.828c-.064-.168.038-.49.102-.698.141-.452.371-.71.563-.982.154-.22.282-.4.461-.582.064-.065.153-.155.217-.233.179-.232.09-.31.448-.62.167-.155.371-.272.551-.427.076-.064.127-.142.268-.22.128-.064.32-.155.435-.232.231-.155.487-.323.679-.453.038-.051.051-.077.038-.116-.026-.13-.141-.168-.217-.271-.052-.065-.128-.285-.141-.556 0-.181.051-.401.089-.53.077-.246.179-.672.218-.75.205-.375.256-.608.473-.957.077-.142.205-.517.231-.569.128-.18.281-.465.396-.736.064-.181.128-.323.218-.466.32-.465.614-.814.934-1.189.115-.13.205-.323.333-.427.32-.284.627-.71.973-1.034.243-.232.511-.413.78-.595.256-.168.486-.465.678-.685.116-.129.154-.232.282-.323a.994.994 0 0 1 .051-.129c-.269.155-.601.259-.998.427-.781.323-1.446.504-2.201.788-.256.104-.589.297-.845.388-.461.168-.87.245-1.369.284-.486.04-.742.272-1.331.233-.179 0-.41-.052-.627-.116-.307-.09-.614-.181-.947-.181-.115-.026-.41-.04-.525-.052-.537 0-.563.103-1.625-.168a2.065 2.065 0 0 1-.576-.233c-.102-.064-.218-.077-.307-.142-.154-.13-.256-.349-.333-.53-.102-.271-.166-.491.026-.982-.64.194-.87.53-1.651.762a16.12 16.12 0 0 1-2.061.711 8.761 8.761 0 0 1-1.177.194c-.384.052-.806.259-1.011.336-.179.065-.422 0-.627-.038-.102-.026-.358-.04-.499-.104-.435-.168-1.165-.4-1.587-.724-.102-.077-.154-.22-.23-.31-.218-.246-.243-.66-.333-1.164-.026-.116-.064-.258-.09-.387-.038-.194 0-.22 0-.324-.025-.129-.076-.323-.102-.452v-.336c-.038-.207-.038-.465-.064-.685-.013-.078.013-.298.026-.427.038-.284 0-.827.115-1.448.038-.258.128-.452.192-.594.051-.142.128-.466.205-.608.166-.297.23-.582.358-.918.038-.077.089-.245.115-.349.077-.271.051-.362.154-.75a7.1 7.1 0 0 1 .128-.44c.064-.193.192-.361.294-.542.051-.09.038-.194.077-.271.064-.117.153-.207.179-.26.128-.284.166-.426.23-.594.103-.232.154-.49.243-.659.116-.22.243-.388.333-.543.141-.246.269-.336.32-.452.141-.259.371-.556.576-.815.256-.31.461-.595.678-.995.09-.168.103-.388.205-.491.013-.065.038-.104.051-.156h-.025c-.282.337-.576.673-.858.867-.243.142-.473.284-.717.4-.294.142-.524.323-.652.35-.231.038-.627.116-.998.116-.077-.026-.359-.04-.436-.065-.345 0-.87-.065-1.33-.336-.743-.44-1.024-1.319-1.075-1.616-.218-.465-.333-.866-.372-1.215 0-.078-.051-.181-.076-.259-.039-.155-.039-.31-.039-.426-.102-.181-.038-.388-.025-.724.012-.453.064-.892.192-1.319.166-.594.192-.866.256-.97 0-.012.025-.025.025-.051-.281.116-.384.31-.998.336-.307 0-.73-.194-.909-.31-.537-.388-.55-.685-1.164-1.41-.384-.452-.538-.995-.653-1.628-.051-.272-.102-.543-.089-.827.012-.259.063-.466.063-.711-.012-.31-.051-.62-.076-.931-.039-.62.102-1.112.025-1.668-.012-.09-.051-.194-.064-.271-.051-.246-.051-.517-.115-.75-.051-.181-.115-.362-.141-.556-.038-.271-.064-.388-.089-.93-.051.167-.09.232-.167.374M42.79 20.627h-5.758L24.029 55.026H6.638V20.91H.584v39.157h27.592l3.813-10.446h15.613l3.878 10.446h6.22M33.87 44.58l5.926-16.211 5.989 16.21M58.21 20.915h6.054v23.954c0 7.691 4.338 10.742 10.148 10.742S84.51 52.263 84.51 45.166V20.915h5.99V44.92c0 10.33-7.282 15.85-16.138 15.85-8.856 0-16.138-4.163-16.138-15.035M96.643 20.915h11.505c10.097 0 14.205 5.222 14.205 11.156 0 5.339-3.584 9.036-7.512 10.859l11.505 17.141h-7.167l-10.456-15.732h-6.04V60.07h-6.04m11.389-20.774c4.403 0 7.922-2.47 7.922-6.813 0-3.516-2.291-6.515-8.805-6.515h-4.466v13.328M135.509 20.915h-6.041V60.07h6.041V20.915ZM142.853 20.915h23.829v5.054h-17.775v11.622h14.026v5.106h-14.026v12.332h17.954v5.055h-24.008" fill="#1F305E"/><path d="M172.032 20.915h11.505c10.098 0 14.205 5.222 14.205 11.156 0 5.339-3.583 9.036-7.512 10.859l11.505 17.141h-7.166l-10.456-15.732h-6.04V60.07h-6.041m11.39-20.774c4.403 0 7.922-2.47 7.922-6.813 0-3.516-2.291-6.515-8.805-6.515h-4.466v13.328" fill="#1F305E"/></svg>