<svg width="144" height="61" fill="none" xmlns="http://www.w3.org/2000/svg"><path d="M21.833 59.885h-1.36v-6.914h2.431c1.75 0 2.698.838 2.698 2.107 0 1.268-.556 1.677-1.503 1.984l1.833 2.823h-1.545l-1.545-2.537-1.009.062v2.475Zm1.01-3.56c.844-.04 1.38-.43 1.38-1.166s-.536-1.063-1.525-1.063h-.885v2.25h1.009l.02-.02ZM32.604 52.97h4.737v1.146h-3.398v1.739h2.801v1.146h-2.8v1.759h3.397v1.145h-4.737v-6.934ZM47.72 57.982c0-.572-.514-.777-1.544-1.063-1.009-.287-2.162-.716-2.162-2.087 0-1.37.947-2.046 2.492-2.046 1.544 0 1.73.225 2.389.614l-.33 1.146c-.618-.369-1.4-.594-2.039-.594-.638 0-1.174.348-1.174.819 0 .47.618.777 1.586 1.043 1.05.286 2.122.757 2.122 2.087s-1.01 2.147-2.657 2.147c-1.648 0-1.854-.245-2.513-.634l.31-1.166c.638.389 1.379.655 2.223.655.845 0 1.298-.368 1.298-.92ZM59.151 60.048c-2.06 0-3.583-1.33-3.583-3.6s1.524-3.641 3.583-3.641c2.06 0 3.563 1.33 3.563 3.6s-1.524 3.642-3.583 3.642h.02Zm-.02-6.116c-1.318 0-2.183 1.002-2.183 2.475s.865 2.516 2.224 2.516c1.36 0 2.204-1.002 2.204-2.475s-.886-2.516-2.245-2.516ZM72.517 60.049c-1.791 0-2.904-.982-2.904-2.782V52.97h1.36v4.111c0 1.146.494 1.78 1.585 1.78 1.092 0 1.524-.532 1.524-1.718V52.97h1.34v4.173c0 1.882-1.051 2.905-2.905 2.905ZM84.03 59.885h-1.36v-6.914h2.43c1.752 0 2.699.838 2.699 2.107 0 1.268-.556 1.677-1.504 1.984l1.833 2.823h-1.544l-1.545-2.537-1.009.062v2.475Zm1.01-3.56c.843-.04 1.379-.43 1.379-1.166s-.535-1.063-1.524-1.063h-.886v2.25h1.01l.02-.02ZM99.847 54.525a3.22 3.22 0 0 0-1.833-.552c-1.36 0-2.266.92-2.266 2.434 0 1.514.886 2.496 2.286 2.496s1.4-.266 1.895-.614l.247 1.248c-.556.327-1.42.532-2.224.532-2.142 0-3.604-1.33-3.604-3.6 0-2.271 1.462-3.642 3.625-3.642 2.162 0 1.647.205 2.244.532l-.432 1.166h.062ZM107.076 52.97h4.737v1.146h-3.399v1.739h2.801v1.146h-2.801v1.759h3.399v1.145h-4.737v-6.934ZM122.193 57.982c0-.572-.515-.777-1.545-1.063-1.009-.287-2.162-.716-2.162-2.087 0-1.37.947-2.046 2.492-2.046 1.544 0 1.73.225 2.389.614l-.33 1.146c-.618-.369-1.4-.594-2.039-.594-.638 0-1.174.348-1.174.819 0 .47.618.777 1.586 1.043 1.05.286 2.121.757 2.121 2.087s-1.009 2.147-2.656 2.147c-1.648 0-1.854-.245-2.513-.634l.309-1.166c.638.389 1.38.655 2.224.655.845 0 1.298-.368 1.298-.92ZM90.023 42.251c-14.252-.9-28.565-.634-42.796.43-5.17.409-10.586.88-15.735 1.432-4.345.47-9.165.981-13.49 1.493-5.993.675-11.986 1.391-18 1.964v1.289c19.875-1.842 44.795-4.48 72-4.48 27.206 0 52.147 2.638 72 4.48v-1.29c-18-1.779-35.917-4.357-53.979-5.339v.021ZM122.584 44.051h5.396v-8.94h-17.012v-8.653h13.675V17.6h-13.675V9.008h17.012V.068h-27.701v41.078c7.456.757 14.891 1.76 22.305 2.905ZM72.002 39.612c2.142 0 4.284.04 6.405.082V26.458h13.675V17.6H78.407V9.008H95.42V.068h-27.7v39.564c1.42-.02 2.862-.04 4.283-.04v.02ZM62.282 39.817V.09H51.51V40.45a269.21 269.21 0 0 1 10.772-.634ZM26.796 29.834l2.904-.348 5.993 12.581c3.77-.47 7.538-.88 11.307-1.227l-7.311-14.013c4.88-2.537 7.29-6.69 7.29-12.029C46.98 6.002 40.821.09 29.268.09H16.025v43.982H21.4c1.792-.266 3.605-.532 5.396-.798v-13.44ZM26.59 9.009h1.977c4.737 0 7.23 2.189 7.23 6.198 0 4.01-2.41 6.26-7.085 6.26l-2.122.061V9.008Z" fill="#1F305E"/></svg>