<svg width="237" height="70" fill="none" xmlns="http://www.w3.org/2000/svg"><path d="m137.274 15.338 25.338 53.898h7.555L137.274.848l-32.988 68.394h7.566l25.422-53.898v-.006ZM.002 17.174h.826l26.035 29.519v-29.52H30.8v38.954H29.9L3.94 26.686v29.446H.002V17.173ZM40.175 17.174h22.417v3.832H44.106v12.212H62.39v3.833H44.106v15.231H62.39v3.839H40.174V17.173ZM67.17 17.174h4.088l7.881 28.054 11.032-28.055h1.01l10.982 28.055 7.818-28.055h4.045l-10.858 38.954h-.994L90.648 26.663 79.055 56.126h-.938L67.169 17.173ZM204.199 23.801l-3.022 2.862c-2.179-2.149-4.566-3.782-7.156-4.893-2.595-1.106-5.128-1.667-7.588-1.667-3.067 0-5.982.746-8.751 2.233-2.775 1.488-4.926 3.514-6.443 6.062-1.527 2.553-2.28 5.247-2.28 8.08 0 2.835.781 5.669 2.365 8.29 1.578 2.62 3.757 4.686 6.538 6.184 2.78 1.499 5.836 2.25 9.155 2.25 4.022 0 7.431-1.11 10.212-3.338 2.78-2.223 4.431-5.113 4.948-8.671h-12.525v-3.828h16.867c-.039 6.028-1.831 10.815-5.381 14.356-3.544 3.541-8.285 5.315-14.233 5.315-7.212 0-12.93-2.442-17.137-7.335-3.241-3.766-4.859-8.12-4.859-13.06 0-3.68.927-7.099 2.786-10.264 1.854-3.165 4.404-5.645 7.639-7.43 3.235-1.785 6.898-2.683 10.981-2.683 3.303 0 6.42.6 9.335 1.79 2.921 1.196 5.769 3.11 8.544 5.747h.005ZM213.894 17.174h22.417v3.832h-18.485v12.212h18.283v3.833h-18.283v15.231h18.283v3.839h-22.215V17.173Z" fill="#1F305E"/></svg>