<svg width="406" height="46" viewBox="0 0 406 46" fill="none" xmlns="http://www.w3.org/2000/svg">
<path d="M151.948 23.1626C151.948 31.2204 145.275 37.9047 137.202 37.9276C128.946 37.9276 122.272 31.312 122.272 23.1169C122.272 14.9904 128.946 8.32903 137.087 8.32903C145.298 8.32903 151.925 14.9675 151.925 23.1855L151.948 23.1626ZM133.739 15.7001C133.303 17.9892 133.12 20.2783 133.074 22.6132H141.147C141.101 20.2783 140.94 17.9892 140.482 15.7001H133.739ZM140.482 30.5108C140.917 28.1987 141.101 25.9096 141.147 23.5976H133.074C133.143 25.9325 133.28 28.2445 133.739 30.5108H140.482ZM132.707 15.6772C131.606 15.6772 130.483 15.6772 129.336 15.6772C129.061 15.6772 128.946 15.7687 128.831 16.0205C128.212 17.5543 127.799 19.1567 127.616 20.8048C127.547 21.4 127.524 22.0181 127.478 22.6132H132.065C132.271 20.3012 132.478 18.0121 132.684 15.6772H132.707ZM141.537 30.5108C141.537 30.5108 141.72 30.5108 141.835 30.5108C142.867 30.5108 143.876 30.5108 144.908 30.5108C145.206 30.5108 145.321 30.3963 145.435 30.1445C145.963 28.8168 146.353 27.4204 146.559 26.0012C146.674 25.2 146.72 24.3988 146.788 23.5518H142.179C141.972 25.8638 141.766 28.153 141.559 30.465L141.537 30.5108ZM127.501 23.5976C127.501 23.712 127.501 23.8036 127.501 23.8952C127.57 25.9554 127.96 27.924 128.694 29.8469C128.946 30.5108 128.946 30.5108 129.68 30.5108C130.689 30.5108 131.721 30.5108 132.684 30.5108C132.478 28.1759 132.271 25.9096 132.065 23.5747H127.501V23.5976ZM146.697 22.6132C146.697 22.6132 146.742 22.5446 146.742 22.5217C146.719 20.2097 146.238 18.0121 145.344 15.8832C145.298 15.7916 145.091 15.7001 144.977 15.7001C144.128 15.7001 143.257 15.7001 142.385 15.7001C142.087 15.7001 141.789 15.7001 141.537 15.7001C141.743 18.035 141.949 20.3241 142.156 22.6361H146.674L146.697 22.6132ZM133.946 31.4951C134.106 32.0903 134.221 32.6168 134.404 33.1433C134.794 34.3107 135.184 35.4553 136.01 36.3939C136.721 37.1951 137.523 37.2179 138.211 36.3939C138.624 35.8902 138.968 35.2951 139.266 34.6999C139.748 33.6927 140.046 32.6168 140.298 31.4951H133.946ZM140.275 14.7157C140.183 14.3266 140.115 13.9832 140 13.6398C139.748 12.9073 139.541 12.1519 139.197 11.4651C138.876 10.8242 138.486 10.2061 138.028 9.65673C137.5 9.03866 136.766 9.08444 136.17 9.65673C136.033 9.79408 135.872 9.93142 135.757 10.0917C134.771 11.4651 134.335 13.0675 133.923 14.7157H140.275ZM146.261 15.6772C147.178 17.9205 147.591 20.2325 147.683 22.6132H151.008C150.985 22.2012 150.962 21.812 150.916 21.4458C150.687 19.4542 150.022 17.6 148.967 15.8832C148.921 15.7916 148.784 15.7001 148.692 15.7001C147.912 15.7001 147.109 15.7001 146.238 15.7001L146.261 15.6772ZM126.561 22.6132C126.63 20.2097 127.066 17.9205 127.983 15.6772C127.18 15.6772 126.469 15.6772 125.758 15.6772C125.483 15.6772 125.323 15.7458 125.185 15.9976C124.405 17.3482 123.832 18.7675 123.511 20.2783C123.35 21.0337 123.281 21.8349 123.19 22.6361H126.561V22.6132ZM147.683 23.5976C147.591 26.0012 147.178 28.2903 146.261 30.5337C147.132 30.5337 147.912 30.5337 148.692 30.5337C148.806 30.5337 148.967 30.3963 149.036 30.259C149.838 28.9313 150.412 27.512 150.733 25.9783C150.893 25.2 150.962 24.3988 151.077 23.5976H147.683ZM127.983 30.5337C127.066 28.2903 126.653 25.9783 126.561 23.5976H123.259C123.259 23.5976 123.259 23.7349 123.259 23.7807C123.373 26.1385 124.061 28.3361 125.277 30.3505C125.323 30.4192 125.437 30.5108 125.506 30.5337C126.309 30.5337 127.111 30.5337 127.983 30.5337ZM129.451 14.7157H132.959C133.235 13.823 133.441 12.9073 133.785 12.0603C134.106 11.2133 134.542 10.4121 134.932 9.58805C132.409 10.5037 130.758 12.3579 129.451 14.7157ZM141.238 14.7157H144.793C143.486 12.3579 141.835 10.4808 139.174 9.54227C140.298 11.1676 140.803 12.9073 141.238 14.7157ZM129.451 31.4951C130.758 33.8529 132.409 35.73 135.069 36.6686C133.923 35.0433 133.441 33.2806 133.005 31.4951H129.451ZM141.238 31.4951C140.803 33.2806 140.298 35.0433 139.174 36.6686C141.835 35.7071 143.486 33.83 144.793 31.4951H141.238ZM148.21 31.4722C147.545 31.4722 146.949 31.4951 146.376 31.4722C145.986 31.4493 145.779 31.5638 145.619 31.93C145.068 33.0517 144.334 34.0589 143.486 34.9746C143.211 35.2722 142.935 35.5698 142.706 35.8445C144.885 34.9059 146.72 33.4638 148.256 31.4951L148.21 31.4722ZM131.606 10.4121C129.382 11.3507 127.547 12.77 126.034 14.7386C126.813 14.7386 127.501 14.7386 128.189 14.7386C128.304 14.7386 128.442 14.647 128.487 14.5555C129.29 12.9989 130.299 11.6254 131.606 10.435V10.4121ZM148.141 14.7386C147.408 13.3193 143.876 10.5724 142.591 10.4121C144.174 11.923 144.701 12.6326 145.733 14.5097C145.779 14.6013 145.917 14.7386 146.009 14.7386C146.719 14.7386 147.408 14.7386 148.141 14.7386ZM131.652 35.7758C131.652 35.7758 131.469 35.6156 131.4 35.5469C130.437 34.6541 129.565 33.6698 128.992 32.5023C128.579 31.6325 128.052 31.312 127.157 31.4722C126.813 31.518 126.469 31.4722 126.034 31.4722C127.57 33.4409 129.405 34.883 131.652 35.7758Z" fill="#1F305E"/>
<path d="M137.202 38.2023C133.143 38.2023 129.313 36.6457 126.446 33.7842C123.58 30.9457 121.997 27.1457 121.997 23.094C121.997 19.088 123.58 15.3109 126.446 12.4495C129.313 9.58805 133.097 8.00855 137.11 8.00855C145.458 8.00855 152.246 14.8073 152.246 23.1626C152.246 31.312 145.366 38.2023 137.225 38.2023H137.202ZM137.11 8.58083C133.235 8.58083 129.588 10.0917 126.836 12.8386C124.084 15.5856 122.571 19.2253 122.571 23.094C122.571 26.9855 124.084 30.6481 126.859 33.3722C129.611 36.1192 133.303 37.6071 137.202 37.6071C145.045 37.6071 151.673 30.9686 151.65 23.1397C151.65 15.1049 145.114 8.55794 137.087 8.55794L137.11 8.58083ZM137.133 37.2866C136.675 37.2866 136.216 37.0348 135.803 36.577C134.909 35.5698 134.473 34.265 134.129 33.2348C134.014 32.8686 133.923 32.5023 133.808 32.1132L133.579 31.2204H140.642L140.573 31.5638C140.367 32.4794 140.069 33.6927 139.518 34.8372C139.174 35.5698 138.807 36.1421 138.418 36.5999C138.028 37.0577 137.615 37.2866 137.156 37.3095L137.133 37.2866ZM134.312 31.7698L134.358 31.9529C134.45 32.3421 134.542 32.6855 134.657 33.0517C135.069 34.3107 135.459 35.3409 136.216 36.2107C136.422 36.4396 136.766 36.7372 137.133 36.7372C137.409 36.7372 137.707 36.5541 137.982 36.2336C138.326 35.8216 138.67 35.2722 138.991 34.6083C139.45 33.6469 139.725 32.6397 139.931 31.8156H134.312V31.7698ZM138.441 37.2408L138.945 36.5083C140.046 34.9059 140.527 33.1891 140.963 31.4264L141.009 31.1975H145.275L145.045 31.6325C143.532 34.3794 141.697 36.0734 139.289 36.9433L138.441 37.2408ZM141.468 31.7698C141.124 33.1891 140.688 34.6541 139.908 36.0505C141.697 35.2035 143.073 33.8529 144.311 31.7698H141.468ZM135.803 37.2408L134.955 36.9433C132.524 36.0734 130.735 34.4481 129.175 31.6325L128.946 31.1975H133.212L133.258 31.4264C133.716 33.2806 134.175 34.9517 135.276 36.5083L135.803 37.2408ZM129.932 31.7698C131.171 33.8758 132.57 35.2264 134.335 36.0505C133.556 34.6999 133.143 33.2348 132.776 31.7698H129.932ZM133.028 36.6228L131.538 36.0276C129.29 35.1348 127.432 33.7156 125.804 31.6325L125.437 31.1746H126.034C126.171 31.1746 126.309 31.1746 126.446 31.1746C126.699 31.1746 126.905 31.1746 127.111 31.1746C128.143 30.9915 128.786 31.3806 129.267 32.365C129.726 33.3493 130.46 34.2879 131.606 35.318L133.051 36.6228H133.028ZM126.653 31.7698C127.731 33.0288 128.9 34.036 130.23 34.7686C129.565 34.036 129.084 33.3493 128.74 32.6168C128.373 31.8614 127.96 31.6096 127.203 31.7469C127.02 31.7698 126.836 31.7698 126.653 31.7698ZM141.559 36.6228L142.637 35.4324C142.821 35.2264 143.027 34.9975 143.234 34.7686C144.128 33.8071 144.816 32.8457 145.321 31.7927C145.55 31.3349 145.848 31.1517 146.376 31.1746C146.765 31.1975 147.155 31.1746 147.591 31.1746C147.774 31.1746 147.981 31.1746 148.187 31.1746H148.761L148.417 31.6325C146.857 33.6469 145.022 35.0891 142.752 36.0734L141.537 36.5999L141.559 36.6228ZM146.284 31.7469C146.077 31.7469 145.986 31.8156 145.871 32.0445C145.389 33.0517 144.747 33.9674 143.922 34.883C145.321 34.0818 146.536 33.0517 147.614 31.7469C147.178 31.7469 146.765 31.7469 146.353 31.7469C146.33 31.7469 146.307 31.7469 146.284 31.7469ZM144.908 30.8313H144.885C144.174 30.8313 143.463 30.8313 142.752 30.8313H141.835C141.835 30.8313 141.651 30.8313 141.582 30.8313H141.307L141.261 30.5108L141.903 23.3458H147.086V23.6663C147.041 23.9181 147.018 24.1699 146.995 24.4217C146.949 24.9711 146.903 25.5433 146.811 26.1156C146.605 27.5349 146.215 28.9542 145.665 30.3048C145.55 30.5795 145.389 30.8541 144.908 30.8541V30.8313ZM143.555 30.2361C144.013 30.2361 144.449 30.2361 144.908 30.2361C145.068 30.2361 145.091 30.2361 145.16 30.0529C145.688 28.7252 146.054 27.3518 146.261 25.9783C146.33 25.4289 146.376 24.9024 146.421 24.3301C146.421 24.1699 146.444 24.0325 146.467 23.8723H142.431L141.858 30.2361H142.775C143.05 30.2361 143.302 30.2361 143.578 30.2361H143.555ZM147.522 30.8084C147.339 30.8084 147.132 30.8084 146.926 30.8084H145.848L146.009 30.4192C146.857 28.3132 147.316 26.0698 147.408 23.5747V23.3H151.398L151.352 23.6205C151.306 23.8723 151.283 24.1241 151.26 24.3759C151.192 24.9253 151.123 25.4747 151.008 26.0241C150.71 27.5349 150.137 28.9999 149.288 30.3963C149.196 30.5337 148.967 30.7855 148.715 30.8084C148.325 30.8084 147.935 30.8084 147.522 30.8084ZM146.697 30.2361H146.926C147.545 30.2361 148.118 30.2361 148.692 30.2361C148.692 30.2361 148.761 30.1674 148.806 30.0987C149.609 28.771 150.16 27.3747 150.458 25.9325C150.572 25.406 150.618 24.8795 150.687 24.3301C150.687 24.1928 150.733 24.0325 150.733 23.8952H147.958C147.843 26.1843 147.43 28.2674 146.674 30.259L146.697 30.2361ZM133.005 30.8084H129.68C128.831 30.8084 128.717 30.7397 128.419 29.9614C127.662 28.0385 127.272 26.0012 127.203 23.9181V23.3229H132.317L132.982 30.8313L133.005 30.8084ZM127.799 23.8952C127.868 25.9325 128.258 27.9012 128.969 29.7554C129.091 30.0758 129.328 30.2361 129.68 30.2361H132.386L131.813 23.8723H127.799V23.8952ZM126.836 30.8084C126.378 30.8084 125.942 30.8084 125.506 30.8084C125.3 30.8084 125.116 30.6481 125.024 30.4879C123.763 28.4048 123.075 26.1385 122.96 23.7807C122.96 23.7349 122.96 23.6891 122.96 23.6205V23.3687L123.259 23.3H126.836V23.5747C126.951 26.1156 127.41 28.3361 128.258 30.3963L128.419 30.7855H127.41C127.226 30.7855 127.043 30.7855 126.859 30.7855L126.836 30.8084ZM123.534 23.8952C123.648 26.1614 124.313 28.2674 125.506 30.2132C126.125 30.259 126.722 30.259 127.387 30.259H127.547C126.813 28.3132 126.378 26.2301 126.263 23.8952H123.534ZM140.734 30.8084H133.533L133.487 30.5794C132.982 28.1072 132.868 25.6578 132.799 23.6205V23.3229H141.445V23.6205C141.399 26.253 141.193 28.4734 140.78 30.5794L140.734 30.8084ZM133.991 30.2361H140.252C140.619 28.2903 140.803 26.2759 140.849 23.8952H133.372C133.418 25.7951 133.556 27.9927 133.991 30.2361ZM146.697 22.9108H141.903L141.238 15.4025H143.004C143.646 15.4025 144.311 15.4025 144.977 15.4025C145.16 15.4025 145.504 15.5169 145.596 15.7687C146.513 17.9434 146.995 20.2097 147.018 22.5217V22.5904L146.88 22.8651L146.674 22.9108H146.697ZM142.431 22.3386H146.444C146.398 20.1639 145.94 18.035 145.068 15.9976C145.068 15.9976 144.999 15.9976 144.954 15.9976C144.311 15.9976 143.646 15.9976 143.004 15.9976H141.858L142.431 22.3614V22.3386ZM126.836 22.9108H122.869L122.915 22.5904C122.937 22.3386 122.983 22.0867 123.006 21.8578C123.075 21.3313 123.144 20.7819 123.236 20.2325C123.534 18.7446 124.107 17.2796 124.933 15.8603C125.116 15.5398 125.368 15.4025 125.758 15.4025C126.263 15.4025 126.767 15.4025 127.295 15.4025H128.396L128.235 15.7916C127.387 17.9205 126.928 20.1639 126.836 22.6361V22.9108ZM123.511 22.3386H126.286C126.378 20.0494 126.813 17.9663 127.547 15.9747H127.295C126.744 15.9747 126.24 15.9747 125.735 15.9747C125.575 15.9747 125.506 15.9976 125.414 16.1579C124.612 17.5314 124.061 18.9277 123.786 20.347C123.694 20.8506 123.625 21.3771 123.557 21.9265C123.557 22.0639 123.511 22.2012 123.511 22.3614V22.3386ZM151.329 22.8879H147.408V22.6132C147.316 20.1181 146.857 17.8747 146.009 15.7916L145.848 15.4025H146.834C147.476 15.4025 148.096 15.4025 148.715 15.4025C148.921 15.4025 149.128 15.5627 149.219 15.7229C150.297 17.4627 150.962 19.3856 151.192 21.4C151.214 21.6747 151.237 21.9265 151.26 22.2241L151.306 22.9108L151.329 22.8879ZM147.958 22.3157H150.71V22.247C150.687 21.9723 150.664 21.7205 150.641 21.4458C150.412 19.5 149.77 17.6687 148.738 15.9976C148.738 15.9976 148.692 15.9519 148.669 15.9519C148.096 15.9519 147.476 15.9519 146.834 15.9519H146.697C147.453 17.9205 147.866 20.0036 147.981 22.3157H147.958ZM132.34 22.8879H127.18V22.5904C127.203 22.4072 127.226 22.2012 127.226 22.0181C127.226 21.606 127.272 21.1711 127.318 20.759C127.524 19.0651 127.937 17.4398 128.556 15.9061C128.694 15.5398 128.923 15.3796 129.313 15.3796C130.162 15.3796 130.987 15.3796 131.813 15.3796H133.005L132.317 22.8651L132.34 22.8879ZM127.799 22.3157H131.813L132.386 15.9747H131.836C131.01 15.9747 130.162 15.9747 129.336 15.9747C129.198 15.9747 129.175 15.9747 129.107 16.135C128.51 17.6 128.098 19.1795 127.914 20.8277C127.868 21.2398 127.845 21.6518 127.822 22.0639C127.822 22.1554 127.822 22.247 127.822 22.3386L127.799 22.3157ZM141.445 22.8879H132.799V22.5904C132.845 19.9578 133.074 17.7374 133.464 15.6314L133.51 15.4025H140.734L140.78 15.6314C141.17 17.6229 141.376 19.7747 141.445 22.5904V22.8879ZM133.395 22.3157H140.871C140.803 19.7976 140.619 17.8061 140.252 15.9747H133.991C133.647 17.8976 133.441 19.935 133.395 22.3157ZM127.111 15.0133C126.951 15.0133 126.767 15.0133 126.607 15.0133H125.46L125.804 14.5555C127.341 12.541 129.221 11.0989 131.492 10.1374L133.028 9.49649L131.813 10.6182C130.597 11.7169 129.588 13.0447 128.763 14.6699C128.671 14.8531 128.419 15.0133 128.212 15.0133C127.845 15.0133 127.501 15.0133 127.134 15.0133H127.111ZM126.63 14.441C127.18 14.441 127.685 14.441 128.189 14.441C128.189 14.441 128.235 14.4181 128.235 14.3952C128.808 13.2736 129.474 12.2663 130.253 11.3965C128.877 12.1748 127.685 13.182 126.63 14.4639V14.441ZM147.109 15.0133C146.742 15.0133 146.376 15.0133 146.009 15.0133C145.756 15.0133 145.55 14.7615 145.481 14.647C144.472 12.7928 143.945 12.129 142.408 10.6182L141.789 10.023L142.66 10.1374C144.036 10.3206 147.637 13.1133 148.417 14.6242L148.646 15.0362H147.637C147.453 15.0362 147.293 15.0362 147.109 15.0362V15.0133ZM143.83 11.2362C144.701 12.1748 145.206 12.9302 145.986 14.3495C145.986 14.3952 146.054 14.4181 146.077 14.441C146.559 14.441 147.086 14.441 147.637 14.441C146.88 13.4338 145.16 12.0145 143.853 11.2362H143.83ZM141.032 15.0133L140.986 14.7844C140.573 13.0904 140.092 11.3049 138.968 9.70251L138.463 8.96999L139.312 9.26757C141.743 10.1374 143.532 11.7856 145.091 14.5784L145.321 15.0133H141.032ZM141.468 14.441H144.311C143.073 12.335 141.674 10.9844 139.908 10.1603C140.711 11.5567 141.124 13.0218 141.468 14.441ZM133.166 15.0133H128.946L129.175 14.5784C130.712 11.8314 132.501 10.1603 134.817 9.31335L135.459 9.08444L135.161 9.70251C135.046 9.95431 134.909 10.2061 134.794 10.4579C134.519 11.0073 134.244 11.5796 134.014 12.1519C133.785 12.7242 133.624 13.3193 133.441 13.9603C133.372 14.235 133.28 14.5326 133.189 14.8073L133.12 15.0133H133.166ZM129.932 14.441H132.73C132.799 14.235 132.845 14.029 132.914 13.8001C133.097 13.182 133.258 12.5639 133.487 11.9459C133.716 11.3507 133.991 10.7555 134.29 10.2061C134.29 10.1832 134.312 10.1603 134.335 10.1374C132.592 10.9386 131.171 12.335 129.932 14.441ZM140.665 14.9904H133.602L133.693 14.6242C134.129 12.8615 134.588 11.282 135.574 9.90853C135.711 9.7254 135.872 9.54227 136.01 9.42781C136.377 9.08444 136.812 8.90131 137.225 8.9242C137.615 8.9242 137.959 9.13022 138.257 9.47359C138.716 10.0001 139.129 10.6182 139.473 11.3278C139.748 11.8772 139.931 12.4724 140.115 13.0447L140.275 13.5254C140.367 13.7543 140.413 14.0061 140.482 14.2579C140.505 14.3724 140.527 14.4868 140.573 14.6013L140.665 14.9675V14.9904ZM134.312 14.4181H139.908C139.862 14.1892 139.794 13.9603 139.725 13.7314L139.564 13.2278C139.381 12.6784 139.197 12.1061 138.945 11.5796C138.624 10.9158 138.234 10.3206 137.821 9.83986C137.638 9.61094 137.409 9.49649 137.179 9.49649C136.95 9.49649 136.629 9.61094 136.376 9.83986C136.262 9.95432 136.124 10.0917 136.01 10.2519C135.161 11.4651 134.725 12.8615 134.312 14.4181Z" fill="#1F305E"/>
<path d="M333.008 22.247H351.722C345.713 16.1808 339.751 10.1832 333.788 4.16279C332.641 2.99533 331.54 1.7592 330.417 0.568848H311.474C315.349 4.48327 319.225 8.42059 323.124 12.335C326.335 15.5627 329.568 18.8133 333.031 22.247H333.008Z" fill="#1F305E"/>
<path d="M333.536 22.247C332.939 22.659 332.366 23.0711 331.861 23.5747C325.05 30.2819 318.262 37.0348 311.474 43.7649C311.176 44.0625 310.9 44.4287 310.602 44.7492H329.545C332.412 41.842 335.233 38.9119 338.122 36.0276C342.663 31.4951 347.227 26.9855 351.768 22.4759C351.859 22.4072 351.928 22.3157 351.997 22.247H333.513H333.536Z" fill="#1F305E"/>
<path d="M386.397 22.247H405.455C398.185 15.0133 390.915 7.77963 383.668 0.568848H365.046C366.996 2.58329 368.922 4.62062 370.871 6.61217C375.986 11.7856 381.1 16.9362 386.397 22.247Z" fill="#1F305E"/>
<path d="M386.879 22.247C385.962 23.0711 384.998 23.941 384.081 24.8337C377.797 31.0373 371.514 37.2866 365.23 43.5131C364.84 43.9022 364.542 44.3372 364.175 44.7492H383.118C384.035 43.742 384.907 42.689 385.87 41.7276C392.406 35.2264 398.965 28.7253 405.524 22.2241H386.856L386.879 22.247Z" fill="#1F305E"/>
<path d="M306.222 22.247H325.165C317.987 15.1049 310.671 7.84831 303.355 0.568848H284.733C285.1 1.02668 285.421 1.53029 285.834 1.94233C292.622 8.71818 299.411 15.494 306.222 22.247Z" fill="#1F305E"/>
<path d="M306.176 22.247C303.699 24.7421 301.337 27.1229 298.952 29.5036C294.251 34.1734 289.549 38.8432 284.848 43.5131C284.481 43.8793 284.183 44.3372 283.839 44.7721H302.461C309.822 37.3095 317.161 29.8469 324.66 22.2699H306.176V22.247Z" fill="#1F305E"/>
<path d="M359.405 22.247C351.997 29.7554 344.567 37.2408 337.136 44.7492H356.079C363.418 37.4469 370.734 30.1445 378.072 22.8651C378.325 22.6132 378.623 22.4301 378.921 22.247H359.382H359.405Z" fill="#1F305E"/>
<path d="M378.6 22.247C375.091 18.7446 371.812 15.4711 368.532 12.1977C364.656 8.32903 360.804 4.43749 356.951 0.568848H338.008C345.232 7.80252 352.456 15.0591 359.634 22.247H378.6Z" fill="#1F305E"/>
<path d="M192.747 1.50739C192.885 1.37005 193.068 1.27848 193.274 1.27848H200.59C200.797 1.27848 200.98 1.34715 201.118 1.50739C201.255 1.64474 201.324 1.82787 201.324 2.0339V44.1998C201.324 44.4058 201.255 44.589 201.118 44.7263C200.98 44.8637 200.797 44.9323 200.59 44.9323H193.527C193.114 44.9323 192.816 44.7721 192.655 44.4287L176.464 17.7374C176.372 17.6229 176.304 17.5543 176.212 17.5771C176.12 17.5771 176.074 17.6916 176.074 17.8518L176.212 44.1769C176.212 44.383 176.143 44.5661 175.983 44.7034C175.822 44.8408 175.662 44.9095 175.455 44.9095H168.139C167.933 44.9095 167.75 44.8408 167.612 44.7034C167.474 44.5661 167.383 44.383 167.383 44.1769V2.05679C167.383 1.85076 167.451 1.66763 167.612 1.53029C167.772 1.39294 167.933 1.30137 168.139 1.30137H175.203C175.616 1.30137 175.914 1.46161 176.074 1.80498L192.197 28.3819C192.288 28.4963 192.357 28.565 192.449 28.5421C192.541 28.5421 192.564 28.4277 192.564 28.2674L192.495 2.07968C192.495 1.87366 192.564 1.69053 192.724 1.55318L192.747 1.50739Z" fill="#1F305E"/>
<path d="M239.692 1.50739C239.829 1.64474 239.898 1.82787 239.898 2.0339V8.14589C239.898 8.35192 239.829 8.53505 239.692 8.6724C239.554 8.80975 239.371 8.87842 239.164 8.87842H227.973C227.766 8.87842 227.652 8.96999 227.652 9.1989V44.1998C227.652 44.4058 227.583 44.589 227.445 44.7263C227.308 44.8637 227.124 44.9323 226.918 44.9323H219.602C219.396 44.9323 219.212 44.8637 219.075 44.7263C218.937 44.589 218.845 44.4058 218.845 44.1998V9.22179C218.845 9.01577 218.754 8.90131 218.547 8.90131H207.677C207.47 8.90131 207.287 8.83264 207.149 8.69529C207.012 8.55794 206.92 8.37481 206.92 8.16879V2.05679C206.92 1.85076 206.989 1.66763 207.149 1.53029C207.287 1.39294 207.47 1.30137 207.677 1.30137H239.164C239.371 1.30137 239.554 1.37005 239.692 1.53029V1.50739Z" fill="#1F305E"/>
<path d="M245.746 44.7492C245.609 44.6119 245.54 44.4287 245.54 44.2227V2.05679C245.54 1.85076 245.609 1.66763 245.746 1.53029C245.884 1.39294 246.067 1.30137 246.274 1.30137H261.891C265.01 1.30137 267.762 1.85076 270.102 2.94955C272.464 4.04834 274.276 5.60495 275.56 7.5965C276.844 9.58805 277.509 11.9001 277.509 14.5326V31.7469C277.509 34.3794 276.867 36.6686 275.56 38.683C274.276 40.6745 272.441 42.2312 270.102 43.3299C267.74 44.4287 265.01 44.9781 261.891 44.9781H246.274C246.067 44.9781 245.884 44.9095 245.746 44.7721V44.7492ZM254.644 37.424H262.213C264.139 37.424 265.675 36.783 266.868 35.5011C268.061 34.2192 268.68 32.4794 268.703 30.3276V15.9747C268.703 13.823 268.106 12.0832 266.914 10.8013C265.721 9.51938 264.139 8.85553 262.144 8.85553H254.644C254.438 8.85553 254.346 8.94709 254.346 9.17601V37.1264C254.346 37.3324 254.438 37.4469 254.644 37.4469V37.424Z" fill="#1F305E"/>
<path d="M7.81142 43.7191C5.49514 42.5288 3.70632 40.8577 2.44498 38.6601C1.16071 36.4854 0.541504 33.9674 0.541504 31.1517V14.9904C0.541504 12.1748 1.18364 9.67962 2.44498 7.52783C3.70632 5.37604 5.49514 3.72786 7.81142 2.53751C10.1048 1.34715 12.765 0.77487 15.7693 0.77487C18.7736 0.77487 21.411 1.34715 23.7043 2.49172C25.9977 3.63629 27.7635 5.23869 29.0478 7.32181C30.3092 9.40492 30.9513 11.8085 30.9513 14.5555V14.6242C30.9513 14.8302 30.8825 14.9904 30.7678 15.1278C30.6302 15.2651 30.4926 15.3109 30.3321 15.3109L25.5849 15.5627C25.1721 15.5627 24.9657 15.3796 24.9657 14.9904V14.8073C24.9657 12.1519 24.1401 10.0001 22.4659 8.37481C20.7918 6.74952 18.5672 5.94832 15.7693 5.94832C12.9715 5.94832 10.7469 6.74952 9.04982 8.37481C7.35275 10.0001 6.52714 12.129 6.52714 14.8073V31.4035C6.52714 34.0589 7.37568 36.2107 9.04982 37.836C10.7469 39.4613 12.9715 40.2625 15.7693 40.2625C18.5672 40.2625 20.7918 39.4384 22.4659 37.836C24.1401 36.2107 24.9657 34.0818 24.9657 31.4035V31.2891C24.9657 30.9228 25.1721 30.7168 25.5849 30.7168L30.3321 30.9686C30.7449 30.9686 30.9513 31.1746 30.9513 31.5867C30.9513 34.3336 30.3092 36.7601 29.0478 38.8432C27.7635 40.9492 25.9977 42.5745 23.7043 43.742C21.411 44.9095 18.7736 45.4817 15.7693 45.4817C12.765 45.4817 10.1048 44.8866 7.81142 43.6962V43.7191Z" fill="#1F305E"/>
<path d="M45.8351 43.6275C43.4959 42.3914 41.6842 40.6288 40.3999 38.3625C39.1156 36.0963 38.4735 33.4867 38.4735 30.5337V15.6772C38.4735 12.7242 39.1156 10.1374 40.3999 7.8712C41.6842 5.62784 43.4959 3.8881 45.8351 2.62907C48.1743 1.37005 50.8576 0.751979 53.9077 0.751979C56.9579 0.751979 59.6869 1.37005 62.0262 2.62907C64.3654 3.8881 66.1771 5.62784 67.4614 7.8712C68.7457 10.1146 69.3878 12.7242 69.3878 15.6772V30.5337C69.3878 33.4867 68.7457 36.0963 67.4614 38.3625C66.1771 40.6288 64.3654 42.3914 62.0262 43.6275C59.6869 44.8866 56.9808 45.5046 53.9077 45.5046C50.8346 45.5046 48.1743 44.8866 45.8351 43.6275ZM60.7648 37.6987C62.5078 35.9589 63.3792 33.6469 63.3792 30.7626V15.6085C63.3792 12.7013 62.5078 10.3664 60.7648 8.60372C59.0219 6.84109 56.7285 5.94832 53.8848 5.94832C51.041 5.94832 48.7706 6.8182 47.0506 8.60372C45.3306 10.3664 44.4591 12.7013 44.4591 15.6085V30.7626C44.4591 33.624 45.3306 35.936 47.0506 37.6987C48.7706 39.4613 51.064 40.3083 53.8848 40.3083C56.7056 40.3083 58.999 39.4384 60.7648 37.6987Z" fill="#1F305E"/>
<path d="M102.756 44.4974L93.9954 25.8409C93.9496 25.7036 93.8578 25.6578 93.7432 25.6578H84.7533C84.5927 25.6578 84.501 25.7494 84.501 25.9096V44.3143C84.501 44.7263 84.2946 44.9323 83.8818 44.9323H79.1345C78.7217 44.9323 78.5153 44.7263 78.5153 44.3143V1.89655C78.5153 1.4845 78.7217 1.27848 79.1345 1.27848H95.9448C98.4445 1.27848 100.646 1.80498 102.527 2.83509C104.407 3.86521 105.898 5.33026 106.93 7.20735C107.962 9.08444 108.489 11.2362 108.489 13.6856C108.489 16.5928 107.733 19.0651 106.219 21.0795C104.705 23.094 102.595 24.4675 99.8664 25.1542C99.7059 25.2458 99.66 25.3373 99.7517 25.4747L108.81 44.1998C108.81 44.1998 108.879 44.383 108.879 44.4974C108.879 44.795 108.719 44.9323 108.375 44.9323H103.444C103.123 44.9323 102.871 44.795 102.756 44.4974ZM84.501 6.68085V20.6446C84.501 20.8048 84.5927 20.8964 84.7533 20.8964H95.188C97.3896 20.8964 99.1555 20.2325 100.509 18.9277C101.862 17.6229 102.504 15.8832 102.504 13.7314C102.504 11.5796 101.839 9.74829 100.509 8.42059C99.1784 7.09289 97.4125 6.42904 95.188 6.42904H84.7533C84.5927 6.42904 84.501 6.52061 84.501 6.68085Z" fill="#1F305E"/>
</svg>
