<svg width="184" height="34" fill="none" xmlns="http://www.w3.org/2000/svg"><path d="M93.595.882h-9.652l-7.45 12.692h5.442a7.728 7.728 0 0 0 3.722-.966 7.935 7.935 0 0 0 2.832-2.653L93.595.882Z" fill="#1F305E"/><path d="M80.201 15.773h-6.197V.882h-8.062v32.324h8.063V17.697l10.41 15.509h10.408L84.785 18.254a5.604 5.604 0 0 0-1.992-1.82 5.461 5.461 0 0 0-2.592-.661ZM.001 33.206h22.92v-7.027H8.063v-5.816h14.53v-7.075H8.063v-5.38H22.92V.883H.001v32.324ZM45.755 7.715c3.234 0 5.906 2.133 6.937 4.701l6.937-3.392C57.567 4.76 53.537.35 45.756.35 36.382.35 29.07 7.086 29.07 17.07c0 9.934 7.312 16.718 16.686 16.718 7.78 0 11.859-4.506 13.874-8.675l-6.937-3.393c-1.031 2.57-3.703 4.7-6.937 4.7-4.875 0-8.484-4.07-8.484-9.352s3.61-9.353 8.484-9.353ZM108.38.882h-8.062v32.324h20.623v-7.27h-12.561V.883Zm18.503 32.324h22.921v-7.027h-14.859v-5.816h14.53v-7.075h-14.53v-5.38h14.859V.883h-22.921v32.324Zm43.894-18.027h-6.374v-7.27h6.374c2.11 0 3.891 1.406 3.891 3.635 0 2.23-1.781 3.636-3.891 3.636v-.001Zm5.859 6.155c2.906-1.066 6.234-4.07 6.234-9.693 0-6.01-3.937-10.758-10.874-10.758h-15.655v32.324h8.062V22.255h4.124l5.251 10.952h9.233l-6.375-11.873Z" fill="#1F305E"/></svg>