<svg width="370" height="70" fill="none" xmlns="http://www.w3.org/2000/svg"><path fill-rule="evenodd" clip-rule="evenodd" d="M.002 1.198h19.915v9.815l17.396-9.574.914-.501L76.45 21.974v46.965H.002V1.198Zm3.754 64.013h68.932v-41.05L38.227 5.194 16.154 17.341V4.926H3.756V65.21Z" fill="#1F305E"/><path d="M87.702 6.12h-5.475V1.784h16.258v4.334h-5.503v14.265h-5.28V6.12ZM115.17 13.373v7.03h5.261V1.815h-5.261v7.06h-6.748v-7.06h-5.319v18.59h5.319v-7.031h6.748ZM140.142 20.384h-15.014V1.785h14.644v4.411h-9.413v2.65h8.868v4.285h-8.868v2.813h9.783v4.44ZM347.308 69.402c2.878 0 5.493-.829 7.642-2.928l-3.15-3.507c-1.371 1.378-3.209 1.917-4.492 1.917-3.754 0-5.057-2.783-5.086-5.23-.029-2.446 1.42-5.413 5.086-5.413 1.283 0 2.703.347 4.054 1.647l3.316-3.236c-2.139-2.08-4.619-3.025-7.37-3.025-7.157 0-10.444 5.144-10.415 9.998.029 5.115 2.937 9.777 10.415 9.777Z" fill="#1F305E"/><path fill-rule="evenodd" clip-rule="evenodd" d="M370.002 56.842c0 4.372-3.51 6.27-6.913 6.27-3.404 0-6.924-1.898-6.924-6.27 0-4.373 3.414-6.29 6.924-6.29 3.51 0 6.913 1.917 6.913 6.29Zm-4.414 0c0-1.387-.914-2.62-2.499-2.62s-2.499 1.242-2.499 2.62c0 1.377.904 2.6 2.499 2.6 1.595 0 2.499-1.136 2.499-2.6Z" fill="#1F305E"/><path d="M358.401 65.173h9.364v2.745h-9.364v-2.745Z" fill="#1F305E"/><path fill-rule="evenodd" clip-rule="evenodd" d="M103.492 27.878c8.314 0 15.092 3.65 15.092 11.54 0 3.12-.953 6.347-4.58 8.003 3.86 2.062 5.766 5.885 5.766 9.594 0 9.237-8.499 12.001-16.093 12.059h-21.44V27.878h21.255Zm-9.675 15.72h9.384c2.44 0 3.743-1.243 3.743-3.063s-1.312-3.237-3.617-3.237h-9.51v6.3Zm0 16.412h9.918c2.966 0 4.396-1.59 4.396-3.881 0-2.293-1.488-3.94-4.396-3.94h-9.918v7.821Z" fill="#1F305E"/><path d="M167.834 50.946v-23.01h-11.707v23.01c0 6.242-3.151 9.064-7.896 9.064s-7.896-2.707-7.896-9.17V27.945h-11.698V50.84c0 12.589 7.429 19.12 19.604 19.12 12.174 0 19.651-6.83 19.593-19.014ZM205.369 50.417a188.853 188.853 0 0 1-.324-7.218c-.012-.436-.022-.821-.036-1.19v-14.13h11.824v41.195h-9.976l-17.338-22.182.175 9.005v13.186h-11.882V27.878h9.976l17.581 22.539ZM247.754 48.057l16.881-19.466v-.713h-14.08l-.475.592-.003.004c-3.372 4.203-7.045 8.781-10.452 12.947V27.878h-11.756v41.196h11.756V55.368l11.873 13.706h14.557v-.713c-5.757-6.53-12.476-13.947-18.301-20.304ZM284.88 27.878h-11.698v41.196h11.698V27.878ZM295.149 69.074h33.265V59.24H306.73v-6.232h19.661V43.54H306.73v-5.895h20.857v-9.767h-32.438v41.196Z" fill="#1F305E"/></svg>