<svg width="211" height="52" fill="none" xmlns="http://www.w3.org/2000/svg"><path d="M82.328 3.34c7.286 0 11.064 4.442 11.064 11.135 0 7.42-3.79 11.792-10.923 11.792h-2.91V3.34h2.77ZM79.56 29.537h3.356l9.174 14.183c2.183 3.494 4.001 5.897 6.113 7.42h15.146v-2.766c-3.566-.14-5.174-1.524-8.306-5.967L94.482 27.71c5.386-1.524 11.358-5.603 11.358-13.316C105.852 5.672 98.495.07 86.552.07H61.644v2.766c4.951.586 5.538 1.09 5.538 5.017v35.506c0 3.927-.587 4.43-5.538 5.017v2.766h23.523v-2.766c-5.021-.586-5.608-1.09-5.608-5.017V29.526v.012Zm51.482 1.606h5.385c13.985 0 20.754-6.037 20.754-15.79C157.192 6.832 150.704.07 136.801.07h-23.664v2.766c4.951.586 5.538 1.09 5.538 5.017v35.506c0 3.927-.587 4.443-5.538 5.017v2.766h26.574v-2.836c-6.629-.364-8.67-1.313-8.67-5.31V31.144Zm0-27.945h2.475c7.204 0 11.287 4.876 11.287 12.226 0 7.35-3.719 12.296-11.287 12.296h-2.475V3.199Zm69.115 28.226L175.248.069h-16.531v2.766c2.546.223 3.567 1.454 5.608 4.583v35.94c0 3.857-.586 4.43-5.537 5.017v2.766h17.188v-2.766c-5.972-.516-7.286-1.16-7.286-5.017V11.861l31.454 39.433h4.365V7.852c0-3.856.586-4.442 5.608-5.017V.07h-17.259v2.766c5.972.504 7.286 1.16 7.286 5.017v23.573h.012ZM24.934 39.35l7.637-26.891h-2.569l-4.67 16.962c-.598 2.05-1.302 4.63-1.583 5.896-.082-.235-.716-2.65-1.232-4.431l-5.221-18.439h-2.053l-4.787 17.009c-.516 1.735-1.384 4.63-1.666 5.896-.153-.75-.716-2.614-1.185-4.431l-4.88-18.474H.072L7.276 39.35h2.652l4.67-16.059a152.928 152.928 0 0 0 1.618-5.978 205.2 205.2 0 0 0 1.666 5.896l4.635 16.141h2.417Zm23.16-5.78c-.869 1.817-2.734 4.197-6.336 4.197-3.602 0-6.37-2.415-6.37-7.315v-.281h14.324v-.317c0-5.58-2.769-9.764-8.236-9.764-5.068 0-8.506 3.997-8.506 9.73 0 6.411 3.403 10.01 8.706 10.01 4.786 0 7.121-2.966 8.2-5.1l-1.783-1.148v-.012Zm-6.618-11.558c3.637 0 5.702 3.2 5.702 6.248h-11.72c.316-3.798 2.569-6.248 6.018-6.248Z" fill="#1F305E"/><path d="m24.934 39.35 7.637-26.891h-2.569l-4.67 16.962c-.598 2.05-1.302 4.63-1.583 5.896-.082-.235-.716-2.65-1.232-4.431l-5.221-18.439h-2.053l-4.787 17.009c-.516 1.735-1.384 4.63-1.666 5.896-.153-.75-.716-2.614-1.185-4.431l-4.88-18.474H.072L7.276 39.35h2.652l4.67-16.059a152.928 152.928 0 0 0 1.618-5.978 205.2 205.2 0 0 0 1.666 5.896l4.635 16.141h2.417Zm23.16-5.78c-.869 1.817-2.734 4.197-6.336 4.197-3.602 0-6.37-2.415-6.37-7.315v-.281h14.324v-.317c0-5.58-2.769-9.764-8.236-9.764-5.068 0-8.506 3.997-8.506 9.73 0 6.411 3.403 10.01 8.706 10.01 4.786 0 7.121-2.966 8.2-5.1l-1.783-1.148v-.012Zm-6.618-11.558c3.637 0 5.702 3.2 5.702 6.248h-11.72c.316-3.798 2.569-6.248 6.018-6.248ZM50.217.069H.002v2.766h50.215V.07ZM50.217 48.375H.002v2.766h50.215v-2.766Z" fill="#1F305E"/></svg>