<svg width="164" height="120" fill="none" xmlns="http://www.w3.org/2000/svg"><path d="M38.88 76.6c21.115 0 38.234-17.118 38.234-38.234C77.114 17.25 59.995.13 38.879.13S.645 17.25.645 38.366 17.763 76.6 38.879 76.6Z" fill="#00E600"/><path d="M156.728 53.673c-4.619-4.709-10.959-7.069-19.036-7.069-12.354-.336-19.3 2.904-25.168 9.72-.028.034-.056.067-.085.095-1.216-1.76-2.612-3.385-4.316-4.77-4.131-3.363-9.327-5.045-15.577-5.045-.359 0-.69.05-1.048.062l.022-.062c-10.364-.185-16.037 2.265-20.7 6.38l-.629-4.362H58.078v70.522h13.554l.477-41.351c0-3.75.723-6.996 2.169-9.737 1.44-2.74 2.96-5.325 5.504-6.816 2.545-1.491 5.505-2.236 8.874-2.236 4.81 0 8.604 1.468 11.39 4.394 2.786 2.937 4.182 7.192 4.182 12.764v42.976h13.413l.477-41.35c0-3.75.717-7.019 2.163-9.81 1.441-2.792 2.96-5.404 5.505-6.895 2.545-1.491 5.505-2.236 8.873-2.236 4.81 0 8.627 1.513 11.463 4.54 2.837 3.027 4.255 7.332 4.255 12.91v42.836h13.268v-46.15c0-8.172-2.309-14.613-6.928-19.327l.011.017Z" fill="#1F305E"/></svg>