<svg width="510" height="126" fill="none" xmlns="http://www.w3.org/2000/svg"><path d="M462.358 124.915c-8.383 0-15.594-1.923-21.624-5.758-6.021-3.845-10.662-9.19-13.907-16.045-3.254-6.855-4.876-14.647-4.876-23.397 0-8.749 1.66-16.748 4.96-23.66 3.311-6.91 8.037-12.377 14.179-16.4 6.152-4.014 13.476-6.03 21.981-6.03 6.733 0 12.735 1.397 17.986 4.173 5.261 2.776 9.368 6.883 12.322 12.313V.119h16.495v122.667h-14.901l-1.416-15.773c-2.832 5.795-6.995 10.222-12.5 13.297-5.495 3.076-11.722 4.605-18.699 4.605Zm3.367-15.07c5.673 0 10.549-1.294 14.619-3.901 4.089-2.597 7.249-6.208 9.49-10.812 2.242-4.614 3.367-9.922 3.367-15.951 0-6.03-1.125-11.319-3.367-15.857-2.241-4.549-5.401-8.121-9.49-10.728-4.07-2.598-8.946-3.901-14.619-3.901-5.674 0-10.512 1.331-14.535 3.994-4.014 2.654-7.09 6.264-9.218 10.813-2.12 4.548-3.189 9.78-3.189 15.679 0 5.898 1.069 11.347 3.189 15.95 2.128 4.615 5.204 8.216 9.218 10.813 4.023 2.607 8.871 3.901 14.535 3.901Z" fill="#1F305E"/><path d="M442.103 78.262c0 25.957-21.043 47-47 47s-47-21.043-47-47 21.043-47 47-47 47 21.043 47 47Z" fill="#00E600"/><path d="M298.25 122.608h-16.654V.119h16.654v49.288c2.72-4.726 6.621-8.533 11.703-11.43 5.083-2.899 10.981-4.352 17.714-4.352 10.991 0 19.205 3.254 24.644 9.752 5.43 6.5 8.149 15.305 8.149 26.407v53.002h-16.663V73.507c0-5.907-.854-10.671-2.57-14.272-1.716-3.601-4.135-6.227-7.267-7.887-3.132-1.65-6.771-2.485-10.897-2.485-5.326 0-9.837 1.182-13.56 3.545-3.723 2.363-6.536 5.551-8.421 9.575-1.885 4.013-2.832 8.505-2.832 13.475v47.15ZM221.318 36.11h50.695v14h-50.695v-14Zm33.675 86.676h-16.664V.119h16.664v122.667ZM179.129 124.915c-8.393 0-15.839-1.922-22.337-5.767-6.499-3.836-11.581-9.153-15.248-15.942-3.667-6.799-5.495-14.685-5.495-23.669 0-8.983 1.8-17.076 5.401-23.931 3.611-6.855 8.571-12.228 14.901-16.13 6.311-3.9 13.672-5.851 22.065-5.851s15.454 1.772 21.531 5.317c6.086 3.545 10.812 8.505 14.188 14.892 3.357 6.376 5.045 13.888 5.045 22.515v6.208l-74.269.178.356-11.169h57.259c0-7.202-2.194-12.997-6.555-17.367-4.379-4.37-10.231-6.555-17.545-6.555-5.552 0-10.316 1.21-14.263 3.639-3.958 2.42-6.987 5.964-9.04 10.634-2.073 4.67-3.104 10.25-3.104 16.748 0 10.41 2.363 18.408 7.089 24.025 4.726 5.608 11.525 8.412 20.387 8.412 6.498 0 11.815-1.294 15.951-3.901 4.126-2.598 6.911-6.377 8.327-11.347h15.595c-2.129 9.218-6.677 16.373-13.644 21.446-6.977 5.083-15.83 7.624-26.586 7.624M16.654 122.787H0V36.11h14.892l2.297 15.952-2.129-1.416c1.773-4.849 5.055-8.89 9.837-12.144 4.783-3.245 10.606-4.867 17.452-4.867 7.69 0 14.066 2.063 19.14 6.208 5.091 4.135 8.392 9.63 9.93 16.485h-3.01c1.172-6.845 4.426-12.34 9.743-16.485 5.326-4.136 11.872-6.208 19.674-6.208 9.921 0 17.723 2.897 23.397 8.683 5.683 5.796 8.515 13.71 8.515 23.754v56.724H113.43V70.151c0-6.855-1.744-12.144-5.232-15.867-3.48-3.723-8.187-5.58-14.085-5.58-4.136 0-7.774.92-10.906 2.748-3.133 1.829-5.59 4.454-7.352 7.887-1.782 3.432-2.664 7.445-2.664 12.05v51.407H56.696V69.973c0-6.855-1.706-12.079-5.139-15.689-3.422-3.601-8.092-5.401-14-5.401-4.136 0-7.774.919-10.906 2.747-3.132 1.829-5.59 4.426-7.352 7.793-1.782 3.366-2.663 7.361-2.663 11.966v51.407l.018-.009Z" fill="#1F305E"/></svg>